<?xml version="1.0" standalone="no"?>
<!DOCTYPE svg PUBLIC "-//W3C//DTD SVG 20010904//EN"
 "http://www.w3.org/TR/2001/REC-SVG-20010904/DTD/svg10.dtd">
<svg version="1.0" xmlns="http://www.w3.org/2000/svg"
 width="512.000000pt" height="512.000000pt" viewBox="0 0 512.000000 512.000000"
 preserveAspectRatio="xMidYMid meet">

<g transform="translate(0.000000,512.000000) scale(0.100000,-0.100000)"
fill="#000000" stroke="none">
<path d="M1270 1944 c0 -28 358 -616 553 -909 259 -389 715 -1020 737 -1020
22 0 478 631 737 1020 195 293 553 881 553 909 0 3 -40 6 -88 6 l-89 0 -78
-132 c-115 -195 -317 -511 -493 -773 -151 -224 -466 -670 -517 -730 l-25 -30
-25 30 c-51 60 -366 506 -517 730 -176 262 -378 578 -493 773 l-78 132 -89 0
c-48 0 -88 -3 -88 -6z"/>
</g>
</svg>
