<?xml version="1.0" standalone="no"?>
<!DOCTYPE svg PUBLIC "-//W3C//DTD SVG 1.1//EN" "http://www.w3.org/Graphics/SVG/1.1/DTD/svg11.dtd" >
<svg>
<metadata>
Created by FontForge 20090914 at Mon Nov  8 20:52:45 2021
 By www-data
Digitized data copyright &#194;&#169; 2012-2015, The Mozilla Foundation and Telefonica S.A.
</metadata>
<defs>
<font id="FiraMono-Bold" horiz-adv-x="600" >
  <font-face 
    font-family="Fira Mono"
    font-weight="700"
    font-stretch="normal"
    units-per-em="1000"
    panose-1="2 11 8 9 5 0 0 2 0 4"
    ascent="800"
    descent="-200"
    x-height="531"
    cap-height="693"
    bbox="-634 -500 1192 1050"
    underline-thickness="50"
    underline-position="-50"
    unicode-range="U+000D-U+1F310"
  />
<missing-glyph 
d="M510 1050v-1400h-420v1400h420zM456 998h-311v-1296h311v1296zM299.5 155.5c-5 -4.33301 -10.8359 -6.50195 -17.5029 -6.50195s-12.5 2.16699 -17.5 6.5s-7.5 10.166 -7.5 17.499v84c35.333 2 59.333 8.5 72 19.5s19 30.167 19 57.5c0 22 -4.33301 39 -13 51
s-24.667 18 -48 18c-19.333 0 -36.666 -3.66699 -51.999 -11c-4.66699 -2 -9 -3 -13 -3c-7.33301 0 -13.166 2.16699 -17.499 6.5s-6.5 9.83301 -6.5 16.5c0 12.667 9.83301 22.334 29.5 29.001s40.834 10 63.501 10c40 0 68.5 -10.667 85.5 -32s25.5 -49 25.5 -83
c0 -35.333 -7.5 -62.666 -22.5 -81.999s-39.167 -31.333 -72.5 -36v-45c0 -7.33301 -2.5 -13.166 -7.5 -17.499zM256.997 109.998c6.66699 6.66699 15 10 25 10s18.333 -3.33301 25 -10s10 -15 10 -25c0 -10.667 -3.33301 -19.5 -10 -26.5s-15 -10.5 -25 -10.5
s-18.333 3.5 -25 10.5s-10 15.833 -10 26.5c0 10 3.33301 18.333 10 25z" />
    <glyph glyph-name=".notdef" 
d="M510 1050v-1400h-420v1400h420zM456 998h-311v-1296h311v1296zM299.5 155.5c-5 -4.33301 -10.8359 -6.50195 -17.5029 -6.50195s-12.5 2.16699 -17.5 6.5s-7.5 10.166 -7.5 17.499v84c35.333 2 59.333 8.5 72 19.5s19 30.167 19 57.5c0 22 -4.33301 39 -13 51
s-24.667 18 -48 18c-19.333 0 -36.666 -3.66699 -51.999 -11c-4.66699 -2 -9 -3 -13 -3c-7.33301 0 -13.166 2.16699 -17.499 6.5s-6.5 9.83301 -6.5 16.5c0 12.667 9.83301 22.334 29.5 29.001s40.834 10 63.501 10c40 0 68.5 -10.667 85.5 -32s25.5 -49 25.5 -83
c0 -35.333 -7.5 -62.666 -22.5 -81.999s-39.167 -31.333 -72.5 -36v-45c0 -7.33301 -2.5 -13.166 -7.5 -17.499zM256.997 109.998c6.66699 6.66699 15 10 25 10s18.333 -3.33301 25 -10s10 -15 10 -25c0 -10.667 -3.33301 -19.5 -10 -26.5s-15 -10.5 -25 -10.5
s-18.333 3.5 -25 10.5s-10 15.833 -10 26.5c0 10 3.33301 18.333 10 25z" />
    <glyph glyph-name="nonmarkingreturn" unicode="&#xd;" 
 />
    <glyph glyph-name="space" unicode=" " 
 />
    <glyph glyph-name="exclam" unicode="!" 
d="M364 255h-127l-21 438h168zM364 137.5c17.333 -17.667 26 -38.834 26 -63.501c0 -25.333 -8.66699 -46.833 -26 -64.5s-38.666 -26.5 -63.999 -26.5c-24.667 0 -45.834 8.83301 -63.501 26.5s-26.5 39.167 -26.5 64.5c0 24.667 8.83301 45.834 26.5 63.501
s38.834 26.5 63.501 26.5c25.333 0 46.666 -8.83301 63.999 -26.5z" />
    <glyph glyph-name="quotedbl" unicode="&#x22;" 
d="M129 742h150l-19 -280h-112zM320 742h151l-19 -280h-113z" />
    <glyph glyph-name="numbersign" unicode="#" 
d="M466 249h63v-104h-77l-19 -145h-130l19 145h-96l-19 -145h-130l18 145h-60v104h74l26 197h-63v105h77l18 142h131l-19 -142h96l19 142h130l-19 -142h61v-105h-75zM335 249l26 197h-96l-26 -197h96z" />
    <glyph glyph-name="dollar" unicode="$" 
d="M349 708c76 -6.66699 141.668 -33.001 197.001 -79.001l-77 -81c-35.333 29.333 -75.333 45.666 -120 48.999v-175c72 -23.333 124.833 -51.166 158.5 -83.499s50.5 -77.166 50.5 -134.499s-18.333 -105.833 -55 -145.5s-88 -63.5 -154 -71.5v-149h-81v146
c-46.667 3.33301 -89.334 13.666 -128.001 30.999s-71.334 38.666 -98.001 63.999l76 88c23.333 -20.667 47 -36.5 71 -47.5s50.333 -17.5 79 -19.5v208c-71.333 24 -122.666 52 -153.999 84s-47 71.667 -47 119c0 54.667 18 99.334 54 134.001s85 55.334 147 62.001v149h81
v-148zM223.501 572.999c-10.333 -12 -15.502 -26.333 -15.502 -43c0 -18 3.83301 -32.5 11.5 -43.5s23.834 -22.167 48.501 -33.5v143c-19.333 -3.33301 -34.166 -11 -44.499 -23zM348.999 102.999c41.333 9.33301 62 36.667 62 82c0 20.667 -4.33301 38 -13 52
s-25 27 -49 39v-173z" />
    <glyph glyph-name="percent" unicode="%" 
d="M509 681l-341 -710l-83 35l340 710zM251 668c25.333 -28.667 37.998 -66.667 37.998 -114c0 -48 -12.667 -86.167 -38 -114.5s-60 -42.5 -104 -42.5c-45.333 0 -80.666 14.167 -105.999 42.5s-38 66.5 -38 114.5c0 46.667 12.833 84.5 38.5 113.5
s60.834 43.5 105.501 43.5c44 0 78.667 -14.333 104 -43zM114.998 614c-5.33301 -12.667 -8 -32.667 -8 -60c0 -26 2.83301 -45.667 8.5 -59s16.167 -20 31.5 -20s25.666 6.33301 30.999 19s8 32.667 8 60c0 28.667 -2.66699 49 -8 61s-15.666 18 -30.999 18
c-16 0 -26.667 -6.33301 -32 -19zM557.998 264.5c25.333 -28.333 37.998 -66.5 37.998 -114.5s-12.667 -86 -38 -114s-60 -42 -104 -42c-45.333 0 -80.666 14 -105.999 42s-38 66 -38 114c0 46.667 12.833 84.5 38.5 113.5s60.834 43.5 105.501 43.5
c44 0 78.667 -14.167 104 -42.5zM421.996 210.5c-5.33301 -13 -8 -33.1689 -8 -60.502c0 -25.333 2.83301 -44.666 8.5 -57.999s16.167 -20 31.5 -20s25.666 6.33301 30.999 19s8 32.334 8 59.001c0 28.667 -2.66699 49.167 -8 61.5s-15.666 18.5 -30.999 18.5
c-16 0 -26.667 -6.5 -32 -19.5z" />
    <glyph glyph-name="ampersand" unicode="&#x26;" 
d="M387 692c30.667 -12 59.333 -32.333 86 -61l-85 -73c-15.333 16 -29.666 27.333 -42.999 34s-29.333 10 -48 10c-23.333 0 -41.333 -7 -54 -21s-19 -33.333 -19 -58c0 -26 8.5 -47.5 25.5 -64.5s39.167 -25.5 66.5 -25.5h262v-101h-66v-262
c-24 -25.333 -54.833 -46.166 -92.5 -62.499s-83.834 -24.5 -138.501 -24.5c-51.333 0 -95.333 9.16699 -132 27.5s-64.5 43.833 -83.5 76.5s-28.5 69.667 -28.5 111c0 53.333 13.167 95.5 39.5 126.5s64.166 52.5 113.499 64.5v4c-78.667 20.667 -118 70.667 -118 150
c0 31.333 8.83301 59.666 26.5 84.999s42.334 45.333 74.001 60s67.167 22 106.5 22c41.333 0 77.333 -6 108 -18zM306.999 332c-37.333 0 -65.833 -11.833 -85.5 -35.5s-29.5 -52.5 -29.5 -86.5s8.5 -61.167 25.5 -81.5s41.167 -30.5 72.5 -30.5c16 0 30.667 2.5 44 7.5
s24 11.833 32 20.5v206h-59z" />
    <glyph glyph-name="quotesingle" unicode="'" 
d="M225 742h149l-18 -280h-112z" />
    <glyph glyph-name="parenleft" unicode="(" 
d="M278.5 200c11.667 -44 31 -87.499 58 -130.499s64.833 -91.167 113.5 -144.5l-91 -83c-84.667 72.667 -148.834 149.5 -192.501 230.5s-65.5 173.5 -65.5 277.5s21.833 196.5 65.5 277.5s107.834 157.833 192.501 230.5l91 -83
c-68 -74.667 -116.5 -143.834 -145.5 -207.501s-43.5 -136.167 -43.5 -217.5c0 -56 5.83301 -106 17.5 -150z" />
    <glyph glyph-name="parenright" unicode=")" 
d="M295.5 567.5c-29 63.667 -77.5 132.833 -145.5 207.5l91 83c84.667 -72.667 148.834 -149.5 192.501 -230.5s65.5 -173.5 65.5 -277.5s-21.833 -196.5 -65.5 -277.5s-107.834 -157.833 -192.501 -230.5l-91 83c48.667 53.333 86.5 101.5 113.5 144.5
s46.333 86.5 58 130.5s17.5 94 17.5 150c0 81.333 -14.5 153.833 -43.5 217.5z" />
    <glyph glyph-name="asterisk" unicode="*" 
d="M346 380l136 64l41 -124l-149 -28l106 -109l-109 -79l-72 134l-69 -135l-109 79l104 111l-147 27l39 124l137 -63l-22 150h135z" />
    <glyph glyph-name="plus" unicode="+" 
d="M365 373h152v-121h-152v-156h-131v156h-151v121h151v156h131v-156z" />
    <glyph glyph-name="comma" unicode="," 
d="M378 175c20.667 -20.667 30.999 -46.333 30.999 -77c0 -18.667 -3 -37.167 -9 -55.5s-17.333 -45.833 -34 -82.5l-72 -163h-106l51 212c-14.667 9.33301 -26.167 21.833 -34.5 37.5s-12.5 33.167 -12.5 52.5c0 30 10.333 55.333 31 76s46.334 31 77.001 31
c31.333 0 57.333 -10.333 78 -31z" />
    <glyph glyph-name="hyphen" unicode="-" 
d="M108 374h384v-122h-384v122z" />
    <glyph glyph-name="period" unicode="." 
d="M221.5 173c21.667 22 47.834 33 78.501 33s56.834 -11 78.501 -33s32.5 -48 32.5 -78c0 -30.667 -10.833 -57 -32.5 -79s-47.834 -33 -78.501 -33s-56.834 11 -78.501 33s-32.5 48.333 -32.5 79c0 30 10.833 56 32.5 78z" />
    <glyph glyph-name="slash" unicode="/" 
d="M29 -55l420 872l122 -57l-419 -872z" />
    <glyph glyph-name="zero" unicode="0" 
d="M486.5 616c42.333 -63.333 63.5 -152.666 63.5 -267.999c0 -116 -21.167 -205.833 -63.5 -269.5s-104.5 -95.5 -186.5 -95.5s-144.167 31.833 -186.5 95.5s-63.5 153.5 -63.5 269.5c0 115.333 21.167 204.666 63.5 267.999s104.5 95 186.5 95s144.167 -31.667 186.5 -95z
M226.5 538.5c-15.667 -38.333 -23.499 -101.833 -23.499 -190.5c0 -91.333 7.83301 -156 23.5 -194s40.167 -57 73.5 -57c34 0 58.5 19 73.5 57s22.5 102.667 22.5 194c0 90 -7.83301 153.833 -23.5 191.5s-39.834 56.5 -72.501 56.5c-33.333 0 -57.833 -19.167 -73.5 -57.5
zM346.001 391c12.667 -12.667 19 -28 19 -46c0 -18.667 -6.33301 -34.334 -19 -47.001s-28.334 -19 -47.001 -19s-34.167 6.33301 -46.5 19s-18.5 28.334 -18.5 47.001c0 18 6.16699 33.333 18.5 46s27.833 19 46.5 19s34.334 -6.33301 47.001 -19z" />
    <glyph glyph-name="one" unicode="1" 
d="M551 120v-120h-450v120h167v418l-143 -90l-67 109l224 136h140v-573h129z" />
    <glyph glyph-name="two" unicode="2" 
d="M406 684c36 -18 63.1699 -42.165 81.5029 -72.498s27.5 -63.5 27.5 -99.5c0 -38 -8.66699 -74.667 -26 -110s-45.833 -74.833 -85.5 -118.5s-95.834 -97.834 -168.501 -162.501h296l-17 -121h-460v112c82 79.333 143.333 141.166 184 185.499s70.167 82 88.5 113
s27.5 60.167 27.5 87.5c0 28.667 -8 51 -24 67s-39 24 -69 24c-26 0 -48.667 -5.5 -68 -16.5s-38.333 -28.833 -57 -53.5l-96 73c27.333 38 60.166 67.333 98.499 88s84.166 31 137.499 31c50.667 0 94 -9 130 -27z" />
    <glyph glyph-name="three" unicode="3" 
d="M397.5 687c35.667 -16 63.001 -37.502 82.001 -64.502s28.5 -56.833 28.5 -89.5c0 -42.667 -12.5 -77.667 -37.5 -105s-59.833 -47.666 -104.5 -60.999c109.333 -14.667 164 -72 164 -172c0 -39.333 -10.833 -75.166 -32.5 -107.499s-52.834 -57.833 -93.501 -76.5
s-88 -28 -142 -28c-50.667 0 -96.667 9 -138 27s-76.666 43.667 -105.999 77l89 83c38 -44 86 -66 144 -66c35.333 0 63.666 9 84.999 27s32 43 32 75c0 69.333 -39 104 -117 104h-63l18 108h44c32 0 57.5 7.83301 76.5 23.5s28.5 38.167 28.5 67.5
c0 26 -9.33301 46.5 -28 61.5s-43 22.5 -73 22.5c-50 0 -96 -20 -138 -60l-81 84c64.667 62.667 143.667 94 237 94c48 0 89.833 -8 125.5 -24z" />
    <glyph glyph-name="four" unicode="4" 
d="M553 146h-69v-146h-151l-1 146h-287v104l192 461l134 -50l-163 -397h124l18 167h134v-167h69v-118z" />
    <glyph glyph-name="five" unicode="5" 
d="M497 580l-253.003 -0.000976562v-150c32.667 15.333 66.667 23 102 23c36 0 68.833 -9.16699 98.5 -27.5s53.167 -44.5 70.5 -78.5s26 -73.667 26 -119c0 -46.667 -11.333 -88.667 -34 -126s-54.667 -66.5 -96 -87.5s-88.666 -31.5 -141.999 -31.5
c-48.667 0 -92.5 9.16699 -131.5 27.5s-71.833 43.833 -98.5 76.5l91 83c16.667 -21.333 35.834 -37.666 57.501 -48.999s44.834 -17 69.501 -17c36.667 0 66 11.167 88 33.5s33 51.5 33 87.5c0 79.333 -31.333 119 -94 119c-28.667 0 -56.667 -7.66699 -84 -23h-107v372
h422z" />
    <glyph glyph-name="six" unicode="6" 
d="M459 438c29.333 -18 52.5029 -44.5029 69.5029 -79.5029s25.5 -76.167 25.5 -123.5c0 -46.667 -10.167 -89.167 -30.5 -127.5s-49 -68.666 -86 -90.999s-80.167 -33.5 -129.5 -33.5c-86.667 0 -151.334 30.833 -194.001 92.5s-64 140.834 -64 237.501
c0 78 12.167 147 36.5 207s59.166 106.833 104.499 140.5s98.666 50.5 159.999 50.5c56.667 0 106.667 -15 150 -45l-60 -96c-26.667 18.667 -56 28 -88 28c-38.667 0 -70.5 -17.167 -95.5 -51.5s-39.167 -82.5 -42.5 -144.5c20 20.667 42.833 36.334 68.5 47.001
s51.167 16 76.5 16c36.667 0 69.667 -9 99 -27zM374.503 131.997c14.333 24 21.5 55.332 21.5 93.999c0 46 -6.5 79.167 -19.5 99.5s-32.167 30.5 -57.5 30.5c-18.667 0 -37 -4.66699 -55 -14s-34.333 -22.333 -49 -39c0.666992 -71.333 8.16699 -123.666 22.5 -156.999
s38.5 -50 72.5 -50c28.667 0 50.167 12 64.5 36z" />
    <glyph glyph-name="seven" unicode="7" 
d="M114 31l258 543h-304v119h464v-107l-268 -602z" />
    <glyph glyph-name="eight" unicode="8" 
d="M504.5 444c-17 -23.333 -44.1689 -45.667 -81.502 -67c89.333 -45.333 134 -108.333 134 -189c0 -36.667 -10 -70.667 -30 -102s-49.5 -56.333 -88.5 -75s-86.167 -28 -141.5 -28c-54 0 -100.167 9.16699 -138.5 27.5s-67.166 42.666 -86.499 72.999
s-29 63.833 -29 100.5c0 38.667 11.167 72.834 33.5 102.501s53.5 53.167 93.5 70.5c-36.667 23.333 -62.5 46.833 -77.5 70.5s-22.5 54.167 -22.5 91.5c0 38.667 10 72.5 30 101.5s47.5 51.333 82.5 67s74.5 23.5 118.5 23.5c44.667 0 84.334 -7.5 119.001 -22.5
s61.667 -36.333 81 -64s29 -60.167 29 -97.5c0 -32 -8.5 -59.667 -25.5 -83zM243.998 458.999c16 -16 41.667 -30.668 77 -44.001c22 16 37.333 32 46 48s13 34.333 13 55c0 26 -6.66699 46.667 -20 62s-33 23 -59 23s-46 -7.16699 -60 -21.5s-21 -35.166 -21 -62.499
c0 -24 8 -44 24 -60zM385.498 244.498c-9 14.333 -22.5 26.666 -40.5 36.999s-44 21.5 -78 33.5c-44 -28 -66 -68.333 -66 -121c0 -30 8.5 -53.833 25.5 -71.5s41.833 -26.5 74.5 -26.5s57.167 8.83301 73.5 26.5s24.5 39.834 24.5 66.501c0 22.667 -4.5 41.167 -13.5 55.5z
" />
    <glyph glyph-name="nine" unicode="9" 
d="M485.5 636c43.667 -50 65.499 -117.332 65.499 -201.999c0 -88.667 -15 -163.667 -45 -225s-75.833 -111.333 -137.5 -150s-141.5 -68.334 -239.5 -89.001l-33 111c82.667 20.667 147 48.167 193 82.5s76.667 78.5 92 132.5c-21.333 -18.667 -43.333 -32.834 -66 -42.501
s-47.667 -14.5 -75 -14.5c-36 0 -69 9.33301 -99 28s-53.667 44.834 -71 78.501s-26 72.167 -26 115.5c0 49.333 11 92.833 33 130.5s52 67 90 88s81 31.5 129 31.5c82.667 0 145.834 -25 189.501 -75zM226.499 378.001c15.667 -18.667 36.5 -27.999 62.5 -27.999
c34 0 67 13.333 99 40c0.666992 50 -1.5 89.667 -6.5 119s-14.167 51.5 -27.5 66.5s-33 22.5 -59 22.5c-29.333 0 -52 -10.833 -68 -32.5s-24 -54.834 -24 -99.501c0 -40 7.83301 -69.333 23.5 -88z" />
    <glyph glyph-name="colon" unicode=":" 
d="M225.5 508c20.333 20.667 45.166 31 74.499 31s54 -10.333 74 -31s30 -45.334 30 -74.001s-10 -53.167 -30 -73.5s-44.667 -30.5 -74 -30.5s-54.166 10.167 -74.499 30.5s-30.5 44.833 -30.5 73.5s10.167 53.334 30.5 74.001zM225.5 161.5
c20.333 20.333 45.166 30.5 74.499 30.5s54 -10.167 74 -30.5s30 -44.5 30 -72.5c0 -29.333 -10 -54.333 -30 -75s-44.667 -31 -74 -31s-54.166 10.333 -74.499 31s-30.5 45.667 -30.5 75c0 28 10.167 52.167 30.5 72.5z" />
    <glyph glyph-name="semicolon" unicode=";" 
d="M374 508c20 -20.667 30 -45.334 30 -74.001s-10 -53.167 -30 -73.5s-44.667 -30.5 -74 -30.5s-54.166 10.167 -74.499 30.5s-30.5 44.833 -30.5 73.5s10.167 53.334 30.5 74.001s45.166 31 74.499 31s54 -10.333 74 -31zM374.5 167c19.667 -20 29.5 -44.666 29.5 -73.999
c0 -17.333 -3 -35.333 -9 -54s-16.667 -45 -32 -79l-69 -158h-103l49 205c-14 9.33301 -25 21.666 -33 36.999s-12 32 -12 50c0 29.333 10 53.833 30 73.5s45 29.5 75 29.5s54.833 -10 74.5 -30z" />
    <glyph glyph-name="less" unicode="&#x3c;" 
d="M531 504l-325 -190l325 -186l-72 -113l-389 242v113l391 243z" />
    <glyph glyph-name="equal" unicode="=" 
d="M527 354h-454v124h454v-124zM527 145h-454v123h454v-123z" />
    <glyph glyph-name="greater" unicode="&#x3e;" 
d="M531 371v-114l-390 -242l-71 108l324 191l-324 185l70 114z" />
    <glyph glyph-name="question" unicode="?" 
d="M421 688c34.667 -15.333 60.8311 -35.668 78.498 -61.001s26.5 -53.333 26.5 -84c0 -27.333 -4.83301 -50.666 -14.5 -69.999s-21.5 -35.166 -35.5 -47.499s-32.333 -26.166 -55 -41.499c-27.333 -18 -47.666 -34.5 -60.999 -49.5s-20 -34.5 -20 -58.5v-21h-144v26
c0 31.333 5 57.666 15 78.999s22 38.5 36 51.5s31.667 26.833 53 41.5s36.833 27.167 46.5 37.5s14.5 23.166 14.5 38.499c0 18 -7.33301 32 -22 42s-34 15 -58 15c-22.667 0 -44.667 -5.16699 -66 -15.5s-41 -25.5 -59 -45.5l-100 78c61.333 72 141.333 108 240 108
c48.667 0 90.334 -7.66699 125.001 -23zM333.997 137.498c18 -17.667 27 -38.834 27 -63.501s-8.83301 -46 -26.5 -64s-39.167 -27 -64.5 -27c-24.667 0 -45.834 8.83301 -63.501 26.5s-26.5 39.167 -26.5 64.5c0 24.667 8.83301 45.834 26.5 63.501
s38.834 26.5 63.501 26.5s46 -8.83301 64 -26.5z" />
    <glyph glyph-name="at" unicode="@" 
d="M527.5 603.5c47.667 -71.667 71.498 -174.168 71.498 -307.501c0 -89.333 -4.5 -162 -13.5 -218s-25 -98.667 -48 -128s-55.167 -44 -96.5 -44c-36 0 -63.833 12.833 -83.5 38.5s-31.834 58.834 -36.501 99.501h-4c-12 -27.333 -30 -49.666 -54 -66.999
s-52.667 -26 -86 -26c-56 0 -97 20.667 -123 62s-39 96.666 -39 165.999c0 84.667 17.833 150.667 53.5 198s88.834 71 159.501 71c27.333 0 55.5 -3.66699 84.5 -11s56.833 -18.333 83.5 -33v-300c0 -36 3.16699 -61.667 9.5 -77s16.5 -23 30.5 -23c12.667 0 22 9 28 27
s9.83301 45.833 11.5 83.5s2.5 95.167 2.5 172.5c0 74 -5.66699 134.5 -17 181.5s-31.5 82.833 -60.5 107.5s-69.5 37 -121.5 37c-37.333 0 -73.666 -7.16699 -108.999 -21.5s-71.666 -37.833 -108.999 -70.5l-63 74c45.333 40 91.166 69.333 137.499 88s96.833 28 151.5 28
c112.667 0 192.834 -35.833 240.501 -107.5zM183.498 332.999c-9.66699 -10.667 -16.5 -27.999 -20.5 -51.999s-6 -58 -6 -102c0 -46.667 3.5 -79.834 10.5 -99.501s19.833 -29.5 38.5 -29.5c19.333 0 33 6.66699 41 20s13.333 30.333 16 51v219c-12 6 -24.667 9 -38 9
c-18 0 -31.833 -5.33301 -41.5 -16z" />
    <glyph glyph-name="A" unicode="A" 
d="M197 150l-36 -150h-172l212 693h199l212 -693h-176l-36 150h-203zM373 268l-75 307l-75 -307h150z" />
    <glyph glyph-name="B" unicode="B" 
d="M492.5 46c-52.333 -30.667 -121.167 -46 -206.5 -46h-230v693h220c79.333 0 143.333 -13.833 192 -41.5s73 -72.834 73 -135.501c0 -39.333 -12 -71.666 -36 -96.999s-54.333 -42.666 -91 -51.999c44 -7.33301 81.167 -23.833 111.5 -49.5s45.5 -63.834 45.5 -114.501
c0 -74 -26.167 -126.333 -78.5 -157zM350.499 558.5c-17 12.333 -43.833 18.501 -80.5 18.501h-50v-161h56c34.667 0 60 6.5 76 19.5s24 34.167 24 63.5c0 27.333 -8.5 47.166 -25.5 59.499zM372.499 284.001c-19.667 14.667 -48.167 21.998 -85.5 21.998h-67v-186h60
c38 0 67.833 6.33301 89.5 19s32.5 36.334 32.5 71.001s-9.83301 59.334 -29.5 74.001z" />
    <glyph glyph-name="C" unicode="C" 
d="M482 692c34.667 -12.667 67.332 -31.668 97.999 -57.001l-80 -97c-42 34 -88 51 -138 51c-47.333 0 -85.5 -20 -114.5 -60s-43.5 -100.333 -43.5 -181s14.333 -140.5 43 -179.5s68 -58.5 118 -58.5c30.667 0 57 5.33301 79 16s45.667 26 71 46l74 -95
c-61.333 -62.667 -139 -94 -233 -94c-63.333 0 -119.166 14 -167.499 42s-86.166 69.5 -113.499 124.5s-41 121.167 -41 198.5c0 75.333 14 140.333 42 195s66.667 96.334 116 125.001s104.666 43 165.999 43c48 0 89.333 -6.33301 124 -19z" />
    <glyph glyph-name="D" unicode="D" 
d="M239 0h-187v693h175c104.667 0 188.667 -24.5 252 -73.5s95 -138.833 95 -269.5c0 -233.333 -111.667 -350 -335 -350zM365 526.5c-26.667 31.667 -64.667 47.501 -114 47.501h-35v-455h35c50 0 88.167 17.167 114.5 51.5s39.5 94.166 39.5 179.499
c0 86 -13.333 144.833 -40 176.5z" />
    <glyph glyph-name="E" unicode="E" 
d="M257 409h240v-114h-240v-177h289v-118h-453v693h453l-17 -117h-272v-167z" />
    <glyph glyph-name="F" unicode="F" 
d="M273 393h242v-118h-242v-275h-165v693h455l-16 -117h-274v-183z" />
    <glyph glyph-name="G" unicode="G" 
d="M100.5 76.5c-51.667 62.333 -77.498 152.832 -77.498 271.499c0 76.667 14 142.334 42 197.001s66.5 96 115.5 124s103.833 42 164.5 42c47.333 0 88.5 -7.5 123.5 -22.5s67.167 -36.167 96.5 -63.5l-86 -89c-22 19.333 -42.5 33.333 -61.5 42s-40.5 13 -64.5 13
c-50 0 -89.333 -19.833 -118 -59.5s-43 -101.167 -43 -184.5c0 -89.333 10.667 -152.333 32 -189s55.666 -55 102.999 -55c31.333 0 60 7 86 21v159h-87l-16 114h258v-344c-76 -46.667 -156.667 -70 -242 -70c-98.667 0 -173.834 31.167 -225.501 93.5z" />
    <glyph glyph-name="H" unicode="H" 
d="M384 292h-168v-292h-164v693h164v-266h168v266h164v-693h-164v292z" />
    <glyph glyph-name="I" unicode="I" 
d="M525 573h-143v-452h143v-121h-450v121h143v452h-143v120h450v-120z" />
    <glyph glyph-name="J" unicode="J" 
d="M527 249c0 -81.333 -24.501 -145.668 -73.501 -193.001s-117.5 -71 -205.5 -71c-42.667 0 -80.167 5.33301 -112.5 16s-64.5 27 -96.5 49l62 101c24 -16 46.333 -27.333 67 -34s44.334 -10 71.001 -10c36.667 0 66.5 11.833 89.5 35.5s34.5 58.834 34.5 105.501v325h-212
v120h376v-444z" />
    <glyph glyph-name="K" unicode="K" 
d="M59 0v693h164v-693h-164zM417 693h172l-196 -311l215 -382h-189l-191 370z" />
    <glyph glyph-name="L" unicode="L" 
d="M93 693h164v-563h300l-16 -130h-448v693z" />
    <glyph glyph-name="M" unicode="M" 
d="M583 0l-144 -0.000976562l-8 297c-0.666992 14.667 -1 34.667 -1 60c0 33.333 1 65.833 3 97.5s4.33301 64.834 7 99.501l-78 -436h-124l-85 436c7.33301 -76.667 11 -145.667 11 -207l-1 -53l-5 -294h-141l39 693h169l77 -448l73 448h169z" />
    <glyph glyph-name="N" unicode="N" 
d="M167 557c6.66699 -50.667 12.333 -99.501 17 -146.501s7 -96.833 7 -149.5v-261h-139v693h205l176 -555c-16 102.667 -24 199.334 -24 290.001v265h139v-693h-199z" />
    <glyph glyph-name="O" unicode="O" 
d="M505.5 80.5c-47.667 -65 -116.167 -97.5 -205.5 -97.5c-90 0 -158.667 32.167 -206 96.5s-71 153.5 -71 267.5c0 112.667 23.833 201.5 71.5 266.5s116.167 97.5 205.5 97.5c90 0 158.667 -32.167 206 -96.5s71 -153.5 71 -267.5c0 -112.667 -23.833 -201.5 -71.5 -266.5
zM383.5 533c-17 38.667 -44.833 58 -83.5 58s-66.5 -19.333 -83.5 -58s-25.5 -100.667 -25.5 -186s8.5 -147.333 25.5 -186s44.833 -58 83.5 -58c39.333 0 67.333 19.333 84 58s25 100.667 25 186s-8.5 147.333 -25.5 186z" />
    <glyph glyph-name="P" unicode="P" 
d="M502.5 290.5c-49 -39.667 -115.833 -59.5 -200.5 -59.5h-76v-231h-164v693h218c96 0 169.333 -18.833 220 -56.5s76 -94.167 76 -169.5c0 -78 -24.5 -136.833 -73.5 -176.5zM283 576h-56.999v-227h65c37.333 0 66.166 9.66699 86.499 29s30.5 49 30.5 89
c0 72.667 -41.667 109 -125 109z" />
    <glyph glyph-name="Q" unicode="Q" 
d="M429 40c56 -9.33301 99.5 -26.001 130.5 -50.001s55.833 -63 74.5 -117l-134 -46c-16 38 -32.333 68.167 -49 90.5s-37.834 39.333 -63.501 51s-58.167 17.5 -97.5 17.5c-85.333 0 -149.666 31.5 -192.999 94.5s-65 151.833 -65 266.5c0 113.333 23 202.333 69 267
s113.333 97 202 97c89.333 0 156.833 -32 202.5 -96s68.5 -153.333 68.5 -268c0 -155.333 -48.333 -257.666 -145 -306.999zM395 487.499c-6 35 -16.333 60.833 -31 77.5s-35 25 -61 25s-46.333 -8.5 -61 -25.5s-25 -43 -31 -78s-9 -81.5 -9 -139.5
c0 -86.667 7.5 -149 22.5 -187s41.167 -57 78.5 -57c26.667 0 47.167 8.5 61.5 25.5s24.5 43 30.5 78s9 81.833 9 140.5s-3 105.5 -9 140.5z" />
    <glyph glyph-name="R" unicode="R" 
d="M523.5 364.5c-25 -31.667 -58.499 -55.832 -100.499 -72.499l181 -292h-186l-150 265h-46v-265h-164v693h218c95.333 0 166.666 -17.333 213.999 -52s71 -87.667 71 -159c0 -46.667 -12.5 -85.834 -37.5 -117.501zM363.501 555.002
c-19 15.333 -48.167 23.001 -87.5 23.001h-54v-200h61c36 0 63.167 8.33301 81.5 25s27.5 43 27.5 79c0 33.333 -9.5 57.666 -28.5 72.999z" />
    <glyph glyph-name="S" unicode="S" 
d="M534 88c-22.667 -33.333 -55.167 -59.167 -97.5 -77.5s-92.5 -27.5 -150.5 -27.5c-114.667 0 -206 33.333 -274 100l83 92c52.667 -46.667 115 -70 187 -70c34.667 0 62.5 7.5 83.5 22.5s31.5 35.833 31.5 62.5c0 25.333 -8.83301 45.166 -26.5 59.499
s-50.5 28.833 -98.5 43.5c-81.333 24.667 -139 53.667 -173 87s-51 76.333 -51 129c0 41.333 11.5 77.333 34.5 108s54.333 54 94 70s83.834 24 132.501 24c102 0 184.667 -30 248 -90l-77 -89c-23.333 19.333 -48.5 33.833 -75.5 43.5s-54.833 14.5 -83.5 14.5
c-32 0 -57.167 -5.83301 -75.5 -17.5s-27.5 -28.5 -27.5 -50.5c0 -14.667 4.16699 -27 12.5 -37s22.166 -19.333 41.499 -28s48.333 -19 87 -31c70.667 -21.333 123.167 -48.833 157.5 -82.5s51.5 -80.5 51.5 -140.5c0 -43.333 -11.333 -81.666 -34 -114.999z" />
    <glyph glyph-name="T" unicode="T" 
d="M381 0h-164v567h-195v126h561l-16 -126h-186v-567z" />
    <glyph glyph-name="U" unicode="U" 
d="M558 232c0 -48 -9.66895 -90.834 -29.002 -128.501s-48.333 -67.167 -87 -88.5s-86 -32 -142 -32c-84 0 -148 22.333 -192 67s-66 105.334 -66 182.001v461h165v-400c0 -44.667 2.33301 -80.334 7 -107.001s13.834 -46.834 27.501 -60.501s33.167 -20.5 58.5 -20.5
s44.833 6.83301 58.5 20.5s22.834 33.834 27.501 60.501s7 62.334 7 107.001v400h165v-461z" />
    <glyph glyph-name="V" unicode="V" 
d="M433 693h168l-200 -693h-202l-199 693h174l129 -565z" />
    <glyph glyph-name="W" unicode="W" 
d="M522 0h-170l-51 496l-56 -496h-173l-75 693h153l24 -553l57 473h142l53 -473l34 553h143z" />
    <glyph glyph-name="X" unicode="X" 
d="M196 693l104 -222l107 222h173l-184 -318l201 -375h-177l-122 264l-120 -264h-174l196 368l-181 325h177z" />
    <glyph glyph-name="Y" unicode="Y" 
d="M382 0h-164v259l-226 434h180l131 -298l132 298h173l-226 -433v-260z" />
    <glyph glyph-name="Z" unicode="Z" 
d="M562 131l-17 -131h-506v123l329 443h-293v127h479v-124l-322 -438h330z" />
    <glyph glyph-name="bracketleft" unicode="[" 
d="M156 823h308v-118h-159v-711h159v-117h-308v946z" />
    <glyph glyph-name="backslash" unicode="\" 
d="M152 817l419 -872l-123 -57l-419 872z" />
    <glyph glyph-name="bracketright" unicode="]" 
d="M444 -123h-308v118h159v710h-159v118h308v-946z" />
    <glyph glyph-name="asciicircum" unicode="^" 
d="M561 527h-154l-108 199l-104 -199h-156l189 317h144z" />
    <glyph glyph-name="underscore" unicode="_" 
d="M50 -62h500v-124h-500v124z" />
    <glyph glyph-name="grave" unicode="`" 
d="M163 716l61 119l218 -133l-43 -80z" />
    <glyph glyph-name="a" unicode="a" 
d="M525 110c5.33301 -9.33301 14.335 -16.335 27.002 -21.002l-33 -104c-32 3.33301 -58.667 10.5 -80 21.5s-38 27.167 -50 48.5c-20 -23.333 -45.333 -41.166 -76 -53.499s-63.334 -18.5 -98.001 -18.5c-54.667 0 -98.334 15.5 -131.001 46.5s-49 71.167 -49 120.5
c0 57.333 22.667 101.833 68 133.5s109 47.5 191 47.5h71v19c0 54.667 -35 82 -105 82c-18 0 -40.5 -2.5 -67.5 -7.5s-53.167 -11.833 -78.5 -20.5l-36 105c34 12.667 69.5 22.5 106.5 29.5s70.5 10.5 100.5 10.5c154.667 0 232 -62.667 232 -188v-208
c0 -19.333 2.66699 -33.666 8 -42.999zM323.502 111.498c18.333 10.333 32.167 24.5 41.5 42.5v87h-39c-85.333 0 -128 -26.667 -128 -80c0 -20.667 6.16699 -36.667 18.5 -48s29.833 -17 52.5 -17c18 0 36.167 5.16699 54.5 15.5z" />
    <glyph glyph-name="b" unicode="b" 
d="M288.5 530c23.667 12.667 48.833 18.998 75.5 18.998c66 0 115.167 -24.667 147.5 -74s48.5 -118.666 48.5 -207.999c0 -55.333 -8.33301 -104.333 -25 -147s-41 -76.167 -73 -100.5s-70.333 -36.5 -115 -36.5c-26.667 0 -51.334 5.66699 -74.001 17
s-41.667 27.333 -57 48l-6 -48h-140v742l158 17v-282c16.667 22.667 36.834 40.334 60.501 53.001zM396.999 264.998c0 62 -6.99902 105.333 -20.999 130s-34.667 37 -62 37c-32.667 0 -61.334 -20.667 -86.001 -62v-224c20.667 -32 46.667 -48 78 -48
c60.667 0 91 55.667 91 167z" />
    <glyph glyph-name="c" unicode="c" 
d="M410 119.5c18.667 7.66699 38.667 18.834 60 33.501l70 -100c-25.333 -21.333 -54.666 -38.333 -87.999 -51s-69.666 -19 -108.999 -19c-56.667 0 -105.5 11.667 -146.5 35s-72.5 56 -94.5 98s-33 90.667 -33 146s11.333 104.666 34 147.999s54.834 77.333 96.501 102
s90.5 37 146.5 37c39.333 0 74.666 -5.5 105.999 -16.5s60.666 -27.833 87.999 -50.5l-68 -95c-38.667 26.667 -78.334 40 -119.001 40c-79.333 0 -119 -55 -119 -165c0 -55.333 10.333 -94.833 31 -118.5s49.667 -35.5 87 -35.5c20 0 39.333 3.83301 58 11.5z" />
    <glyph glyph-name="d" unicode="d" 
d="M530 742l0.000976562 -742h-140l-8 58c-16 -22.667 -36.333 -40.834 -61 -54.501s-53.334 -20.5 -86.001 -20.5c-64 0 -112.5 25.333 -145.5 76s-49.5 120 -49.5 208c0 54.667 8.66699 103.334 26 146.001s42 76 74 100s69.333 36 112 36c48 0 88 -16.667 120 -50v260z
M227.001 392.5c-16 -27 -24.001 -69.167 -24.001 -126.5c0 -61.333 7.16699 -104.5 21.5 -129.5s34.5 -37.5 60.5 -37.5c33.333 0 62.333 20.333 87 61v229c-11.333 14.667 -23.166 25.667 -35.499 33s-26.5 11 -42.5 11c-28.667 0 -51 -13.5 -67 -40.5z" />
    <glyph glyph-name="e" unicode="e" 
d="M335 98c45.333 0 90.667 14.667 136 44l63 -86c-26 -22.667 -57 -40.5 -93 -53.5s-75.667 -19.5 -119 -19.5c-59.333 0 -109.666 11.833 -150.999 35.5s-72.5 56.667 -93.5 99s-31.5 91.5 -31.5 147.5c0 53.333 10.167 101.5 30.5 144.5s50 77 89 102
s85.5 37.5 139.5 37.5c50.667 0 94.667 -10.833 132 -32.5s66.166 -53 86.499 -94s30.5 -89.833 30.5 -146.5c0 -22 -1 -41 -3 -57h-344c10 -80.667 52.667 -121 128 -121zM236.001 411.5c-17.333 -21 -27.667 -53.167 -31 -96.5h195c-1.33301 85.333 -33 128 -95 128
c-28.667 0 -51.667 -10.5 -69 -31.5z" />
    <glyph glyph-name="f" unicode="f" 
d="M590 725l-44 -103c-34 13.333 -71.667 20 -113 20c-31.333 0 -53.833 -5.66699 -67.5 -17s-20.5 -30 -20.5 -56v-71h173l-18 -110h-155v-388h-157v388h-112v110h112v76c0 54.667 19.167 99.167 57.5 133.5s92.5 51.5 162.5 51.5c68 0 128.667 -11.333 182 -34z" />
    <glyph glyph-name="g" unicode="g" 
d="M578 500c-34.667 -14 -85.666 -21.0049 -152.999 -21.0049c34.667 -15.333 60.5 -33.666 77.5 -54.999s25.5 -48.666 25.5 -81.999c0 -34 -9.33301 -64.5 -28 -91.5s-45 -48.167 -79 -63.5s-73.333 -23 -118 -23c-22 0 -42.667 2 -62 6
c-5.33301 -2.66699 -9.5 -6.83398 -12.5 -12.501s-4.5 -11.5 -4.5 -17.5c0 -10 3.83301 -17.833 11.5 -23.5s23.167 -8.5 46.5 -8.5h88c40 0 75.333 -6.66699 106 -20s54.334 -31.666 71.001 -54.999s25 -49.666 25 -78.999c0 -55.333 -24.167 -98.5 -72.5 -129.5
s-118.833 -46.5 -211.5 -46.5c-66 0 -117.833 6.83301 -155.5 20.5s-64 32.834 -79 57.501s-22.5 55.667 -22.5 93h140c0 -16.667 3.16699 -29.667 9.5 -39s18.166 -16.333 35.499 -21s42.666 -7 75.999 -7c46.667 0 78.834 5.33301 96.501 16s26.5 25.667 26.5 45
c0 16 -6.5 28.833 -19.5 38.5s-32.167 14.5 -57.5 14.5h-84c-54.667 0 -95.667 9.83301 -123 29.5s-41 44.834 -41 75.501c0 20 5.16699 38.833 15.5 56.5s24.833 32.5 43.5 44.5c-33.333 18 -57.333 39.167 -72 63.5s-22 53.833 -22 88.5c0 39.333 10 73.666 30 102.999
s48 51.833 84 67.5s77 23.5 123 23.5c53.333 -1.33301 98.666 3.83398 135.999 15.501s75.333 29.167 114 52.5zM236.501 420.995c-14.333 -16 -21.502 -37.668 -21.502 -65.001c0 -28.667 7.33301 -51 22 -67s34.334 -24 59.001 -24c26 0 46 7.83301 60 23.5
s21 38.834 21 69.501c0 58 -27 87 -81 87c-25.333 0 -45.166 -8 -59.499 -24z" />
    <glyph glyph-name="h" unicode="h" 
d="M228 478c44.667 47.333 96.666 71.001 155.999 71.001c46.667 0 82.667 -13.833 108 -41.5s38 -66.834 38 -117.501v-390h-158v346c0 32 -3.66699 54.333 -11 67s-20.666 19 -39.999 19c-16 0 -31.5 -5.5 -46.5 -16.5s-30.5 -27.167 -46.5 -48.5v-367h-158v742l158 16
v-280z" />
    <glyph glyph-name="i" unicode="i" 
d="M366 783.5c17.333 -17 26 -38.167 26 -63.5c0 -26 -8.66699 -47.333 -26 -64s-39.666 -25 -66.999 -25s-49.833 8.5 -67.5 25.5s-26.5 38.167 -26.5 63.5s8.83301 46.5 26.5 63.5s40.167 25.5 67.5 25.5s49.666 -8.5 66.999 -25.5zM394 108h136v-108h-444v108h150v315
h-145v108h303v-423z" />
    <glyph glyph-name="j" unicode="j" 
d="M436.5 783.5c17.667 -17 26.5 -38.167 26.5 -63.5s-8.83301 -46.5 -26.5 -63.5s-39.834 -25.5 -66.501 -25.5c-28 0 -50.667 8.33301 -68 25s-26 38 -26 64c0 25.333 8.83301 46.5 26.5 63.5s40.167 25.5 67.5 25.5c26.667 0 48.834 -8.5 66.501 -25.5zM472 154
c0 -75.333 -14 -137.833 -42 -187.5s-69.5 -89.334 -124.5 -119.001s-125.5 -52.834 -211.5 -69.501l-24 121c56.667 12.667 102.5 28.334 137.5 47.001s61.5 43.834 79.5 75.501s27 72.5 27 122.5v279h-190v108h348v-377z" />
    <glyph glyph-name="k" unicode="k" 
d="M228 0h-158v742l158 17v-759zM399 296l189 -296h-180l-174 291l175 240h165z" />
    <glyph glyph-name="l" unicode="l" 
d="M347 167c0 -39.333 22.667 -59.001 68 -59.001c24.667 0 50 5.33301 76 16l37 -106c-42.667 -23.333 -93.667 -35 -153 -35c-62 0 -108.5 17.833 -139.5 53.5s-46.5 85.834 -46.5 150.501v447h-156v108h314v-575z" />
    <glyph glyph-name="m" unicode="m" 
d="M546.5 511.5c17.667 -25 26.5 -64.499 26.5 -118.499v-393h-135v375c0 19.333 -1.83301 32.666 -5.5 39.999s-10.5 11 -20.5 11c-18.667 0 -37 -11.667 -55 -35v-391h-112v375c0 19.333 -1.83301 32.666 -5.5 39.999s-10.5 11 -20.5 11c-18.667 0 -37 -11.667 -55 -35
v-391h-137v531h115l11 -51c17.333 24 34.5 41.5 51.5 52.5s36.833 16.5 59.5 16.5c20.667 0 38 -5.16699 52 -15.5s24 -26.166 30 -47.499c36 42 75 63 117 63c38 0 65.833 -12.5 83.5 -37.5z" />
    <glyph glyph-name="n" unicode="n" 
d="M70 531h138l11 -61c24 26.667 49.167 46.5 75.5 59.5s56.166 19.5 89.499 19.5c46 0 81.833 -14 107.5 -42s38.5 -67 38.5 -117v-390h-158v344c0 33.333 -3.66699 56.333 -11 69s-20.666 19 -39.999 19c-16 0 -31.5 -5.16699 -46.5 -15.5s-30.5 -25.5 -46.5 -45.5v-371
h-158v531z" />
    <glyph glyph-name="o" unicode="o" 
d="M489.5 472.5c45.667 -51 68.4971 -119.5 68.4971 -205.5c0 -89.333 -22.667 -159 -68 -209s-108.666 -75 -189.999 -75s-144.666 24.833 -189.999 74.5s-68 119.167 -68 208.5c0 56.667 10.167 106.167 30.5 148.5s50 75.333 89 99s85.167 35.5 138.5 35.5
c80.667 0 143.834 -25.5 189.501 -76.5zM227.997 392.5c-15.333 -26.333 -23 -68.5 -23 -126.5c0 -58.667 7.66699 -101.167 23 -127.5s39.333 -39.5 72 -39.5s56.667 13.333 72 40s23 69.334 23 128.001c0 57.333 -7.66699 99.166 -23 125.499s-39.333 39.5 -72 39.5
s-56.667 -13.167 -72 -39.5z" />
    <glyph glyph-name="p" unicode="p" 
d="M511 475.5c31.333 -49 46.999 -118.5 46.999 -208.5c0 -54.667 -8.16699 -103.5 -24.5 -146.5s-39.833 -76.667 -70.5 -101s-67 -36.5 -109 -36.5c-51.333 0 -93.333 18.333 -126 55v-243l-158 -17v753h140l7 -59c20.667 26 43.834 45.333 69.501 58s51.5 19 77.5 19
c66.667 0 115.667 -24.5 147 -73.5zM227.999 370l0.000976562 -224c11.333 -16 23.166 -27.833 35.499 -35.5s26.5 -11.5 42.5 -11.5c29.333 0 51.5 13.167 66.5 39.5s22.5 68.5 22.5 126.5c0 62.667 -6.66699 106.167 -20 130.5s-33.333 36.5 -60 36.5
c-33.333 0 -62.333 -20.667 -87 -62z" />
    <glyph glyph-name="q" unicode="q" 
d="M327.5 533.5c22.333 -10.333 41.5 -25.501 57.5 -45.501l7 43h138v-753l-158 17v250c-34.667 -41.333 -80 -62 -136 -62c-66 0 -114.833 25 -146.5 75s-47.5 119.667 -47.5 209c0 54.667 8.33301 103.334 25 146.001s41 76 73 100s70.333 36 115 36
c26 0 50.167 -5.16699 72.5 -15.5zM228 392.999c-15.333 -26.667 -23.002 -69 -23.002 -127c0 -62 6.83301 -105.167 20.5 -129.5s33.834 -36.5 60.501 -36.5c34 0 62.667 20 86 60v229c-10.667 14.667 -22.167 25.667 -34.5 33s-26.166 11 -41.499 11
c-30 0 -52.667 -13.333 -68 -40z" />
    <glyph glyph-name="r" unicode="r" 
d="M563 531l-28.998 -221.998h-100v98c-29.333 -5.33301 -55.333 -21.333 -78 -48s-40.334 -60.334 -53.001 -101.001v-152h105v-106h-333v106h70v320h-70v105h191l28 -119c19.333 45.333 43.666 79.166 72.999 101.499s65.333 33.5 108 33.5c32 0 61.333 -5.33301 88 -16z
" />
    <glyph glyph-name="s" unicode="s" 
d="M347.5 108.5c15.667 8.33301 23.5 20.8311 23.5 37.498c0 12 -3.16699 21.667 -9.5 29s-18.166 14.5 -35.499 21.5s-44.333 15.5 -81 25.5c-53.333 14 -94 33.5 -122 58.5s-42 59.5 -42 103.5c0 48.667 20.167 88.334 60.5 119.001s96.833 46 169.5 46
c84 0 155.667 -21.667 215 -65l-63 -93c-48.667 30 -97.667 45 -147 45c-26 0 -45.167 -3.33301 -57.5 -10s-18.5 -17 -18.5 -31c0 -9.33301 3.16699 -17.166 9.5 -23.499s18.333 -12.833 36 -19.5s44.167 -15 79.5 -25c38 -10.667 69.167 -22.334 93.5 -35.001
s43.166 -29.667 56.499 -51s20 -48.666 20 -81.999c0 -37.333 -11.333 -69.333 -34 -96s-53 -46.667 -91 -60s-80 -20 -126 -20c-49.333 0 -94 7 -134 21s-74 33.667 -102 59l79 89c48 -37.333 100 -56 156 -56c27.333 0 48.833 4.16699 64.5 12.5z" />
    <glyph glyph-name="t" unicode="t" 
d="M374 -17c-68 0 -119.167 17.332 -153.5 51.999s-51.5 83.334 -51.5 146.001v241h-111v109h111v115l158 19v-134h171l-16 -109h-155v-241c0 -26 6 -44.667 18 -56s31.333 -17 58 -17c33.333 0 64.333 8 93 24l52 -101c-50 -32 -108 -48 -174 -48z" />
    <glyph glyph-name="u" unicode="u" 
d="M228 168c0 -24.667 4.49805 -42.167 13.498 -52.5s22.5 -15.5 40.5 -15.5c16 0 32.333 5.16699 49 15.5s30.334 24.5 41.001 42.5v373h158v-531h-138l-7 62c-17.333 -25.333 -40.666 -44.833 -69.999 -58.5s-60.333 -20.5 -93 -20.5c-50 0 -87.833 14.5 -113.5 43.5
s-38.5 69.5 -38.5 121.5v383h158v-363z" />
    <glyph glyph-name="v" unicode="v" 
d="M394 0h-186l-179 531h171l103 -410l108 410h160z" />
    <glyph glyph-name="w" unicode="w" 
d="M347 0l-46 357l-48 -357h-171l-79 531h145l35 -432l55 365h134l49 -365l36 432h140l-76 -531h-174z" />
    <glyph glyph-name="x" unicode="x" 
d="M22 0l182 279l-165 252h177l85 -170l82 170h168l-156 -246l183 -285h-179l-105 199l-101 -199h-171z" />
    <glyph glyph-name="y" unicode="y" 
d="M395 0c-24 -71.333 -59.668 -125.167 -107.001 -161.5s-110.666 -56.833 -189.999 -61.5l-18 112c50.667 6.66699 88.167 18 112.5 34s43.833 41.667 58.5 77h-55l-168 531h167l103 -430l112 430h162z" />
    <glyph glyph-name="z" unicode="z" 
d="M524 120l-15 -120h-437v112l264 300h-242v119h425v-111l-260 -300h265z" />
    <glyph glyph-name="braceleft" unicode="{" 
d="M467 730c-33.333 0 -57.833 -4.50293 -73.5 -13.5029s-22.167 -25.5 -19.5 -49.5l15 -148c0.666992 -6 1 -14.333 1 -25c0 -44 -13.5 -77.167 -40.5 -99.5s-65.5 -37.166 -115.5 -44.499c52.667 -8 92 -22.667 118 -44s39 -54 39 -98
c0 -4.66699 -0.666992 -13.667 -2 -27l-15 -148c-2.66699 -23.333 4 -39.666 20 -48.999s40.333 -14 73 -14v-110c-85.333 0 -146.833 11.667 -184.5 35s-56.5 62.333 -56.5 117c0 6.66699 0.666992 17.334 2 32.001l15 144l1 13c0 30.667 -12.167 52.5 -36.5 65.5
s-58.5 19.5 -102.5 19.5v128c92.667 0 139 28.333 139 85l-1 13l-15 143c-1.33301 16 -2 27.333 -2 34c0 54.667 19 93.5 57 116.5s99.333 34.5 184 34.5v-110z" />
    <glyph glyph-name="bar" unicode="|" 
d="M373 -105h-147v915h147v-915z" />
    <glyph glyph-name="braceright" unicode="}" 
d="M317.5 805c37.667 -23.333 56.5 -62.3301 56.5 -116.997c0 -6.66699 -0.666992 -17.334 -2 -32.001l-15 -144l-1 -13c0 -56.667 46.333 -85 139 -85v-128c-92.667 0 -139 -28.333 -139 -85l1 -13l15 -143c1.33301 -16 2 -27.333 2 -34c0 -54.667 -19 -93.5 -57 -116.5
s-99.333 -34.5 -184 -34.5v110c33.333 0 57.833 4.5 73.5 13.5s22.167 25.5 19.5 49.5l-15 148c-0.666992 6 -1 14.333 -1 25c0 44 13.5 77.167 40.5 99.5s65.833 37.166 116.5 44.499c-52.667 8 -92 22.667 -118 44s-39 54 -39 98c0 12 0.333008 21 1 27l15 148
c2.66699 23.333 -4 39.666 -20 48.999s-40.333 14 -73 14v110c85.333 0 146.833 -11.667 184.5 -35z" />
    <glyph glyph-name="asciitilde" unicode="~" 
d="M267.5 414.5c18.333 -10.333 38.168 -24.832 59.501 -43.499c15.333 -14 28.5 -24.333 39.5 -31s22.5 -10 34.5 -10c18 0 33.833 6.16699 47.5 18.5s27.5 32.166 41.5 59.499l88 -39c-23.333 -51.333 -49 -90.666 -77 -117.999s-62.667 -41 -104 -41
c-24 0 -44.833 5 -62.5 15s-37.834 24.667 -60.501 44c-16.667 14 -30.5 24.333 -41.5 31s-22.167 10 -33.5 10c-18 0 -33.833 -6.33301 -47.5 -19s-27.5 -32.334 -41.5 -59.001l-88 40c24 49.333 49.833 88 77.5 116s62.167 42 103.5 42
c24.667 0 46.167 -5.16699 64.5 -15.5z" />
    <glyph glyph-name="uni00A0" unicode="&#xa0;" 
 />
    <glyph glyph-name="exclamdown" unicode="&#xa1;" 
d="M364 485c17.333 -18 26 -39.667 26 -65c0 -24 -8.66699 -44.833 -26 -62.5s-38.666 -26.5 -63.999 -26.5c-24.667 0 -45.834 8.83301 -63.501 26.5s-26.5 38.5 -26.5 62.5c0 25.333 8.83301 47 26.5 65s38.834 27 63.501 27c25.333 0 46.666 -9 63.999 -27zM385 -205
h-169l21 445h126z" />
    <glyph glyph-name="cent" unicode="&#xa2;" 
d="M392 543c48 -8 90.999 -28 128.999 -60l-68 -95c-17.333 14 -34 24 -50 30s-33 9 -51 9c-36 0 -63 -13 -81 -39s-27 -68 -27 -126c0 -56.667 9.16699 -96.5 27.5 -119.5s44.833 -34.5 79.5 -34.5c17.333 0 33.333 3 48 9s31.667 16 51 30l71 -101
c-38.667 -30.667 -81.667 -50 -129 -58v-149h-113v152c-63.333 12.667 -112.5 43 -147.5 91s-52.5 108 -52.5 180c0 72.667 17.833 134.167 53.5 184.5s84.834 81.833 147.501 94.5v151h112v-149z" />
    <glyph glyph-name="sterling" unicode="&#xa3;" 
d="M470.5 686c33.667 -16.667 62.8311 -42.334 87.498 -77.001l-97 -70c-13.333 19.333 -27.333 33 -42 41s-32.334 12 -53.001 12c-56.667 0 -85 -31.333 -85 -94v-96h183v-83h-183v-76c0 -28 -4.66699 -52.167 -14 -72.5s-26 -37.166 -50 -50.499h325l-18 -120h-482v114
c24.667 8 42.834 17.5 54.501 28.5s19.334 24.333 23.001 40s5.5 37.5 5.5 65.5v71h-73v83h73v100c0 40.667 8.83301 76.667 26.5 108s43.667 56 78 74s75.5 27 123.5 27c44.667 0 83.834 -8.33301 117.501 -25z" />
    <glyph glyph-name="currency" unicode="&#xa4;" 
d="M183 531c32 19.333 71.333 28.999 118 28.999c45.333 0 84.333 -9.66699 117 -29l80 80l71 -71l-78 -79c21.333 -35.333 32 -75 32 -119c0 -44.667 -11 -84.667 -33 -120l79 -79l-71 -70l-80 78c-32.667 -18.667 -71.667 -28 -117 -28c-46 0 -85.667 9.33301 -119 28
l-80 -80l-71 71l80 81c-20.667 33.333 -31 73 -31 119c0 46.667 10 86.334 30 119.001l-79 80l71 71zM227.5 423.999c-17 -19.333 -25.5 -46.666 -25.5 -81.999c0 -36 8.5 -63.667 25.5 -83s41.5 -29 73.5 -29s56.167 9.66699 72.5 29s24.5 47 24.5 83
c0 35.333 -8.16699 62.666 -24.5 81.999s-40.5 29 -72.5 29s-56.5 -9.66699 -73.5 -29z" />
    <glyph glyph-name="yen" unicode="&#xa5;" 
d="M415 352h99v-82h-134v-68h134v-82h-134v-120h-158v120h-132v82h132v68h-132v82h96l-178 341h168l126 -285h4l123 285h163z" />
    <glyph glyph-name="brokenbar" unicode="&#xa6;" 
d="M373 446h-147v364h147v-364zM373 -105h-147v364h147v-364z" />
    <glyph glyph-name="section" unicode="&#xa7;" 
d="M421.5 696c33 -10 62.832 -23.665 89.499 -40.998l-55 -92c-40.667 25.333 -84 38 -130 38c-23.333 0 -41.166 -4.16699 -53.499 -12.5s-18.5 -19.833 -18.5 -34.5c0 -11.333 2.83301 -20.666 8.5 -27.999s16.5 -14.666 32.5 -21.999s41 -16.333 75 -27
c51.333 -16 89.5 -35.833 114.5 -59.5s37.5 -55.834 37.5 -96.501c0 -27.333 -7.16699 -51.833 -21.5 -73.5s-33.5 -40.167 -57.5 -55.5c37.333 -29.333 56 -67.333 56 -114c0 -31.333 -9.16699 -59.333 -27.5 -84s-44.333 -43.834 -78 -57.501s-72.5 -20.5 -116.5 -20.5
c-74.667 0 -139 18.667 -193 56l53 97c45.333 -28.667 89.333 -43 132 -43c24.667 0 44 4.33301 58 13s21 20 21 34c0 11.333 -2.66699 20.666 -8 27.999s-16.333 15 -33 23s-42.667 17.333 -78 28c-50.667 16 -88.5 35.667 -113.5 59s-37.5 55.333 -37.5 96
c0 26.667 7.5 50.667 22.5 72s34.833 39.666 59.5 54.999c-38.667 30.667 -58 68.667 -58 114c0 31.333 9 59.333 27 84s43.333 44 76 58s70.667 21 114 21c35.333 0 69.5 -5 102.5 -15zM215.999 330.002c0 -14.667 3.66504 -26.501 10.998 -35.501s20.333 -17.667 39 -26
s49 -19.833 91 -34.5c18 24.667 27 46.667 27 66c0 14 -3.66699 25.333 -11 34s-20.666 17.334 -39.999 26.001s-49.666 20 -90.999 34c-17.333 -20 -26 -41.333 -26 -64z" />
    <glyph glyph-name="dieresis" unicode="&#xa8;" 
d="M126 660.5c-16 15.667 -24 34.834 -24 57.501c0 22 8 40.667 24 56s35.333 23 58 23c23.333 0 43 -7.66699 59 -23s24 -34 24 -56c0 -22.667 -8 -41.834 -24 -57.501s-35.667 -23.5 -59 -23.5c-22.667 0 -42 7.83301 -58 23.5zM357.5 660.5
c-16.333 15.667 -24.5 34.834 -24.5 57.501c0 22 8.16699 40.667 24.5 56s35.833 23 58.5 23s42 -7.66699 58 -23s24 -34 24 -56c0 -22.667 -7.83301 -41.834 -23.5 -57.501s-35.167 -23.5 -58.5 -23.5c-22.667 0 -42.167 7.83301 -58.5 23.5z" />
    <glyph glyph-name="copyright" unicode="&#xa9;" 
d="M456.5 715c43.667 -29.333 77 -69.5 100 -120.5s34.5 -107.833 34.5 -170.5s-11.5 -119.167 -34.5 -169.5s-56.333 -90 -100 -119s-95.5 -43.5 -155.5 -43.5c-61.333 0 -114 14.5 -158 43.5s-77.333 68.667 -100 119s-34 106.833 -34 169.5s11.667 119.5 35 170.5
s57 91.167 101 120.5s96 44 156 44s111.833 -14.667 155.5 -44zM144.5 615c-35 -49.333 -52.5 -113 -52.5 -191c0 -77.333 17.5 -140.5 52.5 -189.5s87.167 -73.5 156.5 -73.5c68.667 0 120.5 24.5 155.5 73.5s52.5 112.167 52.5 189.5c0 78 -17.333 141.667 -52 191
s-86.667 74 -156 74s-121.5 -24.667 -156.5 -74zM374.5 610.5c18.333 -7.66699 35.5 -19.832 51.5 -36.499l-49 -60c-9.33301 7.33301 -18.333 12.833 -27 16.5s-18.334 5.5 -29.001 5.5c-20.667 0 -37 -8.83301 -49 -26.5s-18 -45.834 -18 -84.501
c0 -72.667 22.333 -109 67 -109c22.667 0 44.334 9 65.001 27l45 -66c-36 -32.667 -76 -49 -120 -49c-53.333 0 -95 17.167 -125 51.5s-45 82.833 -45 145.5c0 60.667 15.667 108.667 47 144s72 53 122 53c24.667 0 46.167 -3.83301 64.5 -11.5z" />
    <glyph glyph-name="ordfeminine" unicode="&#xaa;" 
d="M437 721c30 -25.333 44.999 -63.6689 44.999 -115.002v-164c0 -14 2.33301 -24.667 7 -32s12.334 -12.666 23.001 -15.999l-30 -88c-29.333 3.33301 -52.833 9.33301 -70.5 18s-31.5 22 -41.5 40c-16.667 -19.333 -36.5 -34.166 -59.5 -44.499s-47.833 -15.5 -74.5 -15.5
c-45.333 0 -82 12.833 -110 38.5s-42 59.167 -42 100.5c0 46 19 82 57 108s91.333 39 160 39h53v12c0 22.667 -6.16699 38.167 -18.5 46.5s-33.833 12.5 -64.5 12.5c-14 0 -31.5 -2 -52.5 -6s-42.5 -9.66699 -64.5 -17l-33 90c29.333 10 59 17.667 89 23s57 8 81 8
c67.333 0 116 -12.667 146 -38zM321.999 506.997c-34.667 0 -59.334 -4.66699 -74.001 -14s-22 -24.333 -22 -45c0 -34 16.667 -51 50 -51c14.667 0 28.834 4.16699 42.501 12.5s25.5 19.833 35.5 34.5v63h-32zM513.999 -0.00292969h-414v108h414v-108z" />
    <glyph glyph-name="guillemotleft" unicode="&#xab;" 
d="M222 17l-170 220v100l170 219l91 -57l-116 -212l116 -213zM457 17l-171 220v100l171 219l91 -57l-115 -212l115 -213z" />
    <glyph glyph-name="logicalnot" unicode="&#xac;" 
d="M517 104h-130v154h-304v121h434v-275z" />
    <glyph glyph-name="uni00AD" unicode="&#xad;" 
d="M135 374h330v-122h-330v122z" />
    <glyph glyph-name="registered" unicode="&#xae;" 
d="M440.5 723c41.667 -24 74.334 -57 98.001 -99s35.5 -88.667 35.5 -140c0 -50.667 -11.833 -96.667 -35.5 -138s-56.334 -74 -98.001 -98s-88.167 -36 -139.5 -36c-52 0 -99 12 -141 36s-75 56.667 -99 98s-36 87.333 -36 138c0 51.333 12 98 36 140s57 75 99 99
s89 36 141 36c51.333 0 97.833 -12 139.5 -36zM199 664.5c-30 -18.333 -53.667 -43.333 -71 -75s-26 -66.834 -26 -105.501s8.66699 -73.5 26 -104.5s41 -55.5 71 -73.5s64 -27 102 -27c37.333 0 71 9 101 27s53.333 42.5 70 73.5s25 65.833 25 104.5
s-8.33301 73.834 -25 105.501s-40 56.667 -70 75s-63.667 27.5 -101 27.5c-38 0 -72 -9.16699 -102 -27.5zM414 547c0 -18.667 -5.16699 -34.667 -15.5 -48s-24.5 -23.333 -42.5 -30l77 -118h-83l-62 103h-23v-103h-72v284h87c89.333 0 134 -29.333 134 -88zM265 581v-69h23
c34.667 0 52 12.333 52 37c0 21.333 -17.667 32 -53 32h-22z" />
    <glyph glyph-name="macron" unicode="&#xaf;" 
d="M147 658v109h306v-109h-306z" />
    <glyph glyph-name="degree" unicode="&#xb0;" 
d="M335.5 738.5c27.667 -13.667 50 -33.334 67 -59.001s25.5 -55.5 25.5 -89.5s-8.5 -64 -25.5 -90s-39.333 -46 -67 -60s-56.5 -21 -86.5 -21c-29.333 0 -57.833 7 -85.5 21s-50 34 -67 60s-25.5 56 -25.5 90s8.5 63.833 25.5 89.5s39.167 45.334 66.5 59.001
s56 20.5 86 20.5s58.833 -6.83301 86.5 -20.5zM198.5 647c-12.333 -14 -18.502 -33 -18.502 -57c0 -23.333 6.33301 -42.166 19 -56.499s29.334 -21.5 50.001 -21.5c21.333 0 38.333 7.16699 51 21.5s19 33.166 19 56.499c0 24 -6.33301 43 -19 57s-29.667 21 -51 21
s-38.166 -7 -50.499 -21z" />
    <glyph glyph-name="plusminus" unicode="&#xb1;" 
d="M366 402h151v-120h-151v-107h-132v107h-151v120h151v156h132v-156zM517 0h-434v120h434v-120z" />
    <glyph glyph-name="uni00B2" unicode="&#xb2;" 
d="M412.5 464c-20.333 -20.667 -57.834 -43.002 -112.501 -67.002h155l-13 -82h-285v73c48 26.667 83.833 47.834 107.5 63.501s39.5 28.667 47.5 39s12 21.5 12 33.5c0 10.667 -3.66699 19.334 -11 26.001s-17.333 10 -30 10s-24.167 -2.66699 -34.5 -8
s-21.166 -14.666 -32.499 -27.999l-71 52c40 44 92 66 156 66c44.667 0 79.5 -10 104.5 -30s37.5 -44.667 37.5 -74c0 -28.667 -10.167 -53.334 -30.5 -74.001z" />
    <glyph glyph-name="uni00B3" unicode="&#xb3;" 
d="M409 617.5c24.667 -16.333 37 -37.832 37 -64.499c0 -19.333 -5.66699 -34.5 -17 -45.5s-28.666 -19.167 -51.999 -24.5c29.333 -4.66699 50.666 -12.667 63.999 -24s20 -28.333 20 -51c0 -30.667 -14.833 -54.834 -44.5 -72.501s-69.834 -26.5 -120.501 -26.5
c-32 0 -62.167 4.5 -90.5 13.5s-51.833 22.833 -70.5 41.5l65 55c15.333 -11.333 30 -19.333 44 -24s30 -7 48 -7c16.667 0 29.334 2.83301 38.001 8.5s13 13.5 13 23.5c0 18.667 -16.667 28 -50 28h-52l12 65h40c12 0 21.333 2.16699 28 6.5s10 9.83301 10 16.5
c0 18 -13 27 -39 27c-16.667 0 -31.667 -2.16699 -45 -6.5s-28 -11.833 -44 -22.5l-57 57c42.667 34 96 51 160 51c44 0 78.333 -8.16699 103 -24.5z" />
    <glyph glyph-name="acute" unicode="&#xb4;" 
d="M438 716l-237 -94l-43 81l218 132z" />
    <glyph glyph-name="uni00B5" unicode="&#xb5;" 
d="M524 188c0 -59.333 3.99805 -122 11.998 -188l-142 -14c-6 22 -10.333 47.667 -13 77c-15.333 -24.667 -32.666 -43.834 -51.999 -57.501s-40.333 -20.5 -63 -20.5c-18.667 0 -34.167 3.33301 -46.5 10s-25.5 19.334 -39.5 38.001
c12.667 -26.667 21.834 -50.5 27.501 -71.5s8.5 -46.5 8.5 -76.5v-90l-149 -16v752h157v-302c0 -32.667 1 -57.5 3 -74.5s7 -30 15 -39s20.333 -13.5 37 -13.5s32.5 5 47.5 15s28.167 24 39.5 42v372h158v-343z" />
    <glyph glyph-name="paragraph" unicode="&#xb6;" 
d="M581 -210l-131.999 -11v807h-83v-796l-132 -11v486c-70.667 6 -124.167 27.5 -160.5 64.5s-54.5 86.5 -54.5 148.5c0 64.667 21.667 116.667 65 156s105.666 59 186.999 59h310v-903z" />
    <glyph glyph-name="periodcentered" unicode="&#xb7;" 
d="M221.5 420.5c21.667 21.667 47.834 32.5 78.501 32.5s56.834 -10.833 78.501 -32.5s32.5 -47.834 32.5 -78.501s-10.833 -56.834 -32.5 -78.501s-47.834 -32.5 -78.501 -32.5s-56.834 10.833 -78.501 32.5s-32.5 47.834 -32.5 78.501s10.833 56.834 32.5 78.501z" />
    <glyph glyph-name="cedilla" unicode="&#xb8;" 
d="M298 -119c-14.667 4.66699 -38 6.99707 -70 6.99707l14 128h88v-64c34 -4 59.667 -14.667 77 -32s26 -39.666 26 -66.999c0 -34 -13.667 -61.667 -41 -83s-63.333 -32 -108 -32c-22.667 0 -44.167 2.83301 -64.5 8.5s-37.833 12.834 -52.5 21.501l36 73
c22.667 -11.333 44 -17 64 -17c35.333 0 53 10.333 53 31c0 12.667 -7.33301 21.334 -22 26.001z" />
    <glyph glyph-name="uni00B9" unicode="&#xb9;" 
d="M310 526l-79 -41l-52 72l148 79h95v-321h-112v211z" />
    <glyph glyph-name="ordmasculine" unicode="&#xba;" 
d="M418 729.5c33.333 -19.667 59 -46.667 77 -81s27 -73.166 27 -116.499c0 -44.667 -9 -84.334 -27 -119.001s-43.667 -61.5 -77 -80.5s-72.666 -28.5 -117.999 -28.5c-68.667 0 -122.834 20.833 -162.501 62.5s-59.5 96.834 -59.5 165.501c0 43.333 9 82.166 27 116.499
s43.833 61.333 77.5 81s72.834 29.5 117.501 29.5c45.333 0 84.666 -9.83301 117.999 -29.5zM217 532c0 -45.333 7 -78.166 21 -98.499s34.667 -30.5 62 -30.5s48 10.167 62 30.5s21 53.166 21 98.499c0 86 -27.667 129 -83 129s-83 -43 -83 -129zM507 0h-414v108h414v-108z
" />
    <glyph glyph-name="guillemotright" unicode="&#xbb;" 
d="M52 499l91 57l170 -219v-100l-170 -220l-91 57l115 213zM286 499l91 57l171 -219v-100l-171 -220l-91 57l116 213z" />
    <glyph glyph-name="onequarter" unicode="&#xbc;" 
d="M114 582l-79 -41l-52 72l148 79h95v-321h-112v211zM14 251l535 256l41 -76l-534 -256zM574 0h-104v56h-181v66l121 208l95 -32l-99 -167h66l15 79h87v-79h44v-75h-44v-56z" />
    <glyph glyph-name="onehalf" unicode="&#xbd;" 
d="M111 582l-79 -41l-52 72l148 79h95v-321h-112v211zM10 251l535 256l41 -76l-534 -256zM577.5 149c-20.333 -20.667 -57.834 -43.002 -112.501 -67.002h155l-13 -82h-285v73c48 26.667 83.833 47.834 107.5 63.501s39.5 28.667 47.5 39s12 21.5 12 33.5
c0 10.667 -3.66699 19.334 -11 26.001s-17.333 10 -30 10s-24.167 -2.66699 -34.5 -8s-21.166 -14.666 -32.499 -27.999l-71 52c40 44 92 66 156 66c44.667 0 79.5 -10 104.5 -30s37.5 -44.667 37.5 -74c0 -28.667 -10.167 -53.334 -30.5 -74.001z" />
    <glyph glyph-name="threequarters" unicode="&#xbe;" 
d="M260 673.5c24.667 -16.333 37 -37.832 37 -64.499c0 -19.333 -5.66699 -34.5 -17 -45.5s-28.666 -19.167 -51.999 -24.5c29.333 -4.66699 50.666 -12.667 63.999 -24s20 -28.333 20 -51c0 -30.667 -14.833 -54.834 -44.5 -72.501s-69.834 -26.5 -120.501 -26.5
c-32 0 -62.167 4.5 -90.5 13.5s-51.833 22.833 -70.5 41.5l65 55c14.667 -11.333 29.167 -19.333 43.5 -24s30.5 -7 48.5 -7c16.667 0 29.334 2.83301 38.001 8.5s13 13.5 13 23.5c0 18.667 -16.667 28 -50 28h-52l12 65h40c12 0 21.333 2.16699 28 6.5s10 9.83301 10 16.5
c0 18 -13 27 -39 27c-16 0 -30.667 -2.16699 -44 -6.5s-28.333 -11.833 -45 -22.5l-57 57c42.667 34 96 51 160 51c44 0 78.333 -8.16699 103 -24.5zM19 251.001l535 256l41 -76l-534 -256zM571 0.000976562h-104v56h-181v66l121 208l95 -32l-99 -167h66l15 79h87v-79h44
v-75h-44v-56z" />
    <glyph glyph-name="questiondown" unicode="&#xbf;" 
d="M381 485c18 -18 27 -39.667 27 -65c0 -24 -9 -44.833 -27 -62.5s-39.333 -26.5 -64 -26.5s-45.834 8.83301 -63.501 26.5s-26.5 38.5 -26.5 62.5c0 25.333 8.83301 47 26.5 65s38.834 27 63.501 27s46 -9 64 -27zM390 207c0 -30.667 -5.00391 -56.8301 -15.0039 -78.4971
s-22 -38.834 -36 -51.501s-31.667 -26.334 -53 -41.001c-21.333 -15.333 -36.666 -28 -45.999 -38s-14 -22.667 -14 -38c0 -18 7.33301 -32 22 -42s34 -15 58 -15c46.667 0 88.334 20 125.001 60l100 -77c-61.333 -72 -141.666 -108 -240.999 -108
c-48.667 0 -90.167 7.66699 -124.5 23s-60.333 35.666 -78 60.999s-26.5 53.333 -26.5 84c0 26.667 4.66699 49.667 14 69s20.833 35 34.5 47s31.834 26 54.501 42c28 19.333 48.833 37 62.5 53s20.5 36.667 20.5 62v21h143v-33z" />
    <glyph glyph-name="Agrave" unicode="&#xc0;" 
d="M197 150l-36 -150h-172l212 693h199l212 -693h-176l-36 150h-203zM373 268l-75 307l-75 -307h150zM437 831l-37 -80l-238 84l60 118z" />
    <glyph glyph-name="Aacute" unicode="&#xc1;" 
d="M197 150l-36 -150h-172l212 693h199l212 -693h-176l-36 150h-203zM373 268l-75 307l-75 -307h150zM437 835l-237 -84l-38 80l216 122z" />
    <glyph glyph-name="Acircumflex" unicode="&#xc2;" 
d="M197 150l-36 -150h-172l212 693h199l212 -693h-176l-36 150h-203zM373 268l-75 307l-75 -307h150zM489 813l-56 -65l-133 85l-133 -85l-57 65l142 130h96z" />
    <glyph glyph-name="Atilde" unicode="&#xc3;" 
d="M197 150l-36 -150h-172l212 693h199l212 -693h-176l-36 150h-203zM373 268l-75 307l-75 -307h150zM318 767c-10.667 4.66699 -22.3311 11.333 -34.998 20c-16.667 12 -30.334 18 -41.001 18c-12 0 -21.667 -3.33301 -29 -10s-15.333 -18 -24 -34l-79 38
c14 35.333 31.833 63.833 53.5 85.5s46.834 32.5 75.501 32.5c15.333 0 28.5 -2.33301 39.5 -7s22.833 -11.334 35.5 -20.001c8.66699 -6 16 -10.5 22 -13.5s12.333 -4.5 19 -4.5c10.667 0 19.667 3.33301 27 10s15.666 17.667 24.999 33l79 -38
c-14 -35.333 -32.167 -63.666 -54.5 -84.999s-47.5 -32 -75.5 -32c-14.667 0 -27.334 2.33301 -38.001 7z" />
    <glyph glyph-name="Adieresis" unicode="&#xc4;" 
d="M197 150l-36 -150h-172l212 693h199l212 -693h-176l-36 150h-203zM373 268l-75 307l-75 -307h150zM126 785c-16 15.333 -24 34.333 -24 57s8 41.667 24 57s35.333 23 58 23c23.333 0 42.833 -7.66699 58.5 -23s23.5 -34.333 23.5 -57s-7.83301 -41.667 -23.5 -57
s-35.167 -23 -58.5 -23c-22.667 0 -42 7.66699 -58 23zM357.5 785.5c-16.333 15.667 -24.5 34.5 -24.5 56.5s8.16699 40.833 24.5 56.5s35.833 23.5 58.5 23.5c23.333 0 42.833 -7.66699 58.5 -23s23.5 -34.333 23.5 -57s-7.83301 -41.667 -23.5 -57s-35.167 -23 -58.5 -23
c-22.667 0 -42.167 7.83301 -58.5 23.5z" />
    <glyph glyph-name="Aring" unicode="&#xc5;" 
d="M197 150l-36 -150h-172l212 693h199l212 -693h-176l-36 150h-203zM373 268l-75 307l-75 -307h150zM400 952c25.333 -25.333 38 -56.333 38 -93s-12.833 -68 -38.5 -94s-59.167 -39 -100.5 -39s-74.666 13 -99.999 39s-38 57.333 -38 94s12.667 67.667 38 93
s58.666 38 99.999 38c42 0 75.667 -12.667 101 -38zM267 895.5c-8 -8.33301 -12 -20.5 -12 -36.5c0 -16.667 4 -29.334 12 -38.001s18.667 -13 32 -13c14 0 25 4.33301 33 13s12 21.334 12 38.001c0 16 -4 28.167 -12 36.5s-19 12.5 -33 12.5
c-13.333 0 -24 -4.16699 -32 -12.5z" />
    <glyph glyph-name="AE" unicode="&#xc6;" 
d="M173 153l-28 -153h-157l175 693h402l-17 -111h-182l33 -176h157v-110h-137l36 -185h148v-111h-265l-25 153h-140zM296 265l-51 318l-54 -318h105z" />
    <glyph glyph-name="Ccedilla" unicode="&#xc7;" 
d="M459 -80c17.333 -17.333 26 -39.6699 26 -67.0029c0 -34 -13.667 -61.667 -41 -83s-63.333 -32 -108 -32c-22.667 0 -44.167 2.83301 -64.5 8.5s-37.833 12.834 -52.5 21.501l36 73c22.667 -11.333 44 -17 64 -17c35.333 0 53 10.333 53 31
c0 12.667 -7.33301 21.334 -22 26.001s-38 7 -70 7l11 101c-78.667 13.333 -141.167 51 -187.5 113s-69.5 144 -69.5 246c0 75.333 14 140.333 42 195s66.667 96.334 116 125.001s104.666 43 165.999 43c48 0 89.333 -6.33301 124 -19s67.334 -31.667 98.001 -57l-80 -97
c-42 34 -88 51 -138 51c-47.333 0 -85.5 -20 -114.5 -60s-43.5 -100.333 -43.5 -181s14.333 -140.5 43 -179.5s68 -58.5 118 -58.5c30.667 0 57 5.33301 79 16s45.667 26 71 46l74 -95c-55.333 -56.667 -124.333 -87.667 -207 -93v-32c34 -4 59.667 -14.667 77 -32z" />
    <glyph glyph-name="Egrave" unicode="&#xc8;" 
d="M257 409h240v-114h-240v-177h289v-118h-453v693h453l-17 -117h-272v-167zM457 831l-37 -80l-238 84l60 118z" />
    <glyph glyph-name="Eacute" unicode="&#xc9;" 
d="M257 409h240v-114h-240v-177h289v-118h-453v693h453l-17 -117h-272v-167zM457 835l-237 -84l-38 80l216 122z" />
    <glyph glyph-name="Ecircumflex" unicode="&#xca;" 
d="M257 409h240v-114h-240v-177h289v-118h-453v693h453l-17 -117h-272v-167zM509 813l-56 -65l-133 85l-133 -85l-57 65l142 130h96z" />
    <glyph glyph-name="Edieresis" unicode="&#xcb;" 
d="M257 409h240v-114h-240v-177h289v-118h-453v693h453l-17 -117h-272v-167zM146 785c-16 15.333 -24 34.333 -24 57s8 41.667 24 57s35.333 23 58 23c23.333 0 42.833 -7.66699 58.5 -23s23.5 -34.333 23.5 -57s-7.83301 -41.667 -23.5 -57s-35.167 -23 -58.5 -23
c-22.667 0 -42 7.66699 -58 23zM377.5 785.5c-16.333 15.667 -24.5 34.5 -24.5 56.5s8.16699 40.833 24.5 56.5s35.833 23.5 58.5 23.5c23.333 0 42.833 -7.66699 58.5 -23s23.5 -34.333 23.5 -57s-7.83301 -41.667 -23.5 -57s-35.167 -23 -58.5 -23
c-22.667 0 -42.167 7.83301 -58.5 23.5z" />
    <glyph glyph-name="Igrave" unicode="&#xcc;" 
d="M525 573h-143v-452h143v-121h-450v121h143v452h-143v120h450v-120zM437 831l-37 -80l-238 84l60 118z" />
    <glyph glyph-name="Iacute" unicode="&#xcd;" 
d="M525 573h-143v-452h143v-121h-450v121h143v452h-143v120h450v-120zM437 835l-237 -84l-38 80l216 122z" />
    <glyph glyph-name="Icircumflex" unicode="&#xce;" 
d="M525 573h-143v-452h143v-121h-450v121h143v452h-143v120h450v-120zM489 813l-56 -65l-133 85l-133 -85l-57 65l142 130h96z" />
    <glyph glyph-name="Idieresis" unicode="&#xcf;" 
d="M525 573h-143v-452h143v-121h-450v121h143v452h-143v120h450v-120zM126 785c-16 15.333 -24 34.333 -24 57s8 41.667 24 57s35.333 23 58 23c23.333 0 42.833 -7.66699 58.5 -23s23.5 -34.333 23.5 -57s-7.83301 -41.667 -23.5 -57s-35.167 -23 -58.5 -23
c-22.667 0 -42 7.66699 -58 23zM357.5 785.5c-16.333 15.667 -24.5 34.5 -24.5 56.5s8.16699 40.833 24.5 56.5s35.833 23.5 58.5 23.5c23.333 0 42.833 -7.66699 58.5 -23s23.5 -34.333 23.5 -57s-7.83301 -41.667 -23.5 -57s-35.167 -23 -58.5 -23
c-22.667 0 -42.167 7.83301 -58.5 23.5z" />
    <glyph glyph-name="Eth" unicode="&#xd0;" 
d="M492 619.5c63.333 -49 95 -138.833 95 -269.5c0 -233.333 -111.667 -350 -335 -350h-187v303h-56v100h56v290h175c104.667 0 188.667 -24.5 252 -73.5zM377.5 170c26.333 34 39.501 94 39.501 180c0 59.333 -6.5 105.333 -19.5 138s-30.5 55.167 -52.5 67.5
s-49 18.5 -81 18.5h-35v-171h120v-100h-120v-184h35c49.333 0 87.166 17 113.499 51z" />
    <glyph glyph-name="Ntilde" unicode="&#xd1;" 
d="M167 557c6.66699 -50.667 12.333 -99.501 17 -146.501s7 -96.833 7 -149.5v-261h-139v693h205l176 -555c-16 102.667 -24 199.334 -24 290.001v265h139v-693h-199zM327.999 766.999c-10.667 4.66699 -22.3311 11.333 -34.998 20c-16.667 12 -30.334 18 -41.001 18
c-12 0 -21.667 -3.33301 -29 -10s-15.333 -18 -24 -34l-79 38c14 35.333 31.833 63.833 53.5 85.5s46.834 32.5 75.501 32.5c15.333 0 28.5 -2.33301 39.5 -7s22.833 -11.334 35.5 -20.001c8.66699 -6 16 -10.5 22 -13.5s12.333 -4.5 19 -4.5c10.667 0 19.667 3.33301 27 10
s15.666 17.667 24.999 33l79 -38c-14 -35.333 -32.167 -63.666 -54.5 -84.999s-47.5 -32 -75.5 -32c-14.667 0 -27.334 2.33301 -38.001 7z" />
    <glyph glyph-name="Ograve" unicode="&#xd2;" 
d="M505.5 80.5c-47.667 -65 -116.167 -97.5 -205.5 -97.5c-90 0 -158.667 32.167 -206 96.5s-71 153.5 -71 267.5c0 112.667 23.833 201.5 71.5 266.5s116.167 97.5 205.5 97.5c90 0 158.667 -32.167 206 -96.5s71 -153.5 71 -267.5c0 -112.667 -23.833 -201.5 -71.5 -266.5
zM383.5 533c-17 38.667 -44.833 58 -83.5 58s-66.5 -19.333 -83.5 -58s-25.5 -100.667 -25.5 -186s8.5 -147.333 25.5 -186s44.833 -58 83.5 -58c39.333 0 67.333 19.333 84 58s25 100.667 25 186s-8.5 147.333 -25.5 186zM437 831l-37 -80l-238 84l60 118z" />
    <glyph glyph-name="Oacute" unicode="&#xd3;" 
d="M505.5 80.5c-47.667 -65 -116.167 -97.5 -205.5 -97.5c-90 0 -158.667 32.167 -206 96.5s-71 153.5 -71 267.5c0 112.667 23.833 201.5 71.5 266.5s116.167 97.5 205.5 97.5c90 0 158.667 -32.167 206 -96.5s71 -153.5 71 -267.5c0 -112.667 -23.833 -201.5 -71.5 -266.5
zM383.5 533c-17 38.667 -44.833 58 -83.5 58s-66.5 -19.333 -83.5 -58s-25.5 -100.667 -25.5 -186s8.5 -147.333 25.5 -186s44.833 -58 83.5 -58c39.333 0 67.333 19.333 84 58s25 100.667 25 186s-8.5 147.333 -25.5 186zM437 835l-237 -84l-38 80l216 122z" />
    <glyph glyph-name="Ocircumflex" unicode="&#xd4;" 
d="M505.5 80.5c-47.667 -65 -116.167 -97.5 -205.5 -97.5c-90 0 -158.667 32.167 -206 96.5s-71 153.5 -71 267.5c0 112.667 23.833 201.5 71.5 266.5s116.167 97.5 205.5 97.5c90 0 158.667 -32.167 206 -96.5s71 -153.5 71 -267.5c0 -112.667 -23.833 -201.5 -71.5 -266.5
zM383.5 533c-17 38.667 -44.833 58 -83.5 58s-66.5 -19.333 -83.5 -58s-25.5 -100.667 -25.5 -186s8.5 -147.333 25.5 -186s44.833 -58 83.5 -58c39.333 0 67.333 19.333 84 58s25 100.667 25 186s-8.5 147.333 -25.5 186zM489 813l-56 -65l-133 85l-133 -85l-57 65l142 130
h96z" />
    <glyph glyph-name="Otilde" unicode="&#xd5;" 
d="M505.5 80.5c-47.667 -65 -116.167 -97.5 -205.5 -97.5c-90 0 -158.667 32.167 -206 96.5s-71 153.5 -71 267.5c0 112.667 23.833 201.5 71.5 266.5s116.167 97.5 205.5 97.5c90 0 158.667 -32.167 206 -96.5s71 -153.5 71 -267.5c0 -112.667 -23.833 -201.5 -71.5 -266.5
zM383.5 533c-17 38.667 -44.833 58 -83.5 58s-66.5 -19.333 -83.5 -58s-25.5 -100.667 -25.5 -186s8.5 -147.333 25.5 -186s44.833 -58 83.5 -58c39.333 0 67.333 19.333 84 58s25 100.667 25 186s-8.5 147.333 -25.5 186zM318 767
c-10.667 4.66699 -22.3311 11.333 -34.998 20c-16.667 12 -30.334 18 -41.001 18c-12 0 -21.667 -3.33301 -29 -10s-15.333 -18 -24 -34l-79 38c14 35.333 31.833 63.833 53.5 85.5s46.834 32.5 75.501 32.5c15.333 0 28.5 -2.33301 39.5 -7s22.833 -11.334 35.5 -20.001
c8.66699 -6 16 -10.5 22 -13.5s12.333 -4.5 19 -4.5c10.667 0 19.667 3.33301 27 10s15.666 17.667 24.999 33l79 -38c-14 -35.333 -32.167 -63.666 -54.5 -84.999s-47.5 -32 -75.5 -32c-14.667 0 -27.334 2.33301 -38.001 7z" />
    <glyph glyph-name="Odieresis" unicode="&#xd6;" 
d="M505.5 80.5c-47.667 -65 -116.167 -97.5 -205.5 -97.5c-90 0 -158.667 32.167 -206 96.5s-71 153.5 -71 267.5c0 112.667 23.833 201.5 71.5 266.5s116.167 97.5 205.5 97.5c90 0 158.667 -32.167 206 -96.5s71 -153.5 71 -267.5c0 -112.667 -23.833 -201.5 -71.5 -266.5
zM383.5 533c-17 38.667 -44.833 58 -83.5 58s-66.5 -19.333 -83.5 -58s-25.5 -100.667 -25.5 -186s8.5 -147.333 25.5 -186s44.833 -58 83.5 -58c39.333 0 67.333 19.333 84 58s25 100.667 25 186s-8.5 147.333 -25.5 186zM126 785c-16 15.333 -24 34.333 -24 57
s8 41.667 24 57s35.333 23 58 23c23.333 0 42.833 -7.66699 58.5 -23s23.5 -34.333 23.5 -57s-7.83301 -41.667 -23.5 -57s-35.167 -23 -58.5 -23c-22.667 0 -42 7.66699 -58 23zM357.5 785.5c-16.333 15.667 -24.5 34.5 -24.5 56.5s8.16699 40.833 24.5 56.5
s35.833 23.5 58.5 23.5c23.333 0 42.833 -7.66699 58.5 -23s23.5 -34.333 23.5 -57s-7.83301 -41.667 -23.5 -57s-35.167 -23 -58.5 -23c-22.667 0 -42.167 7.83301 -58.5 23.5z" />
    <glyph glyph-name="multiply" unicode="&#xd7;" 
d="M502 422l-117 -115l117 -115l-87 -87l-115 117l-115 -117l-87 87l117 115l-117 115l87 87l115 -117l115 117z" />
    <glyph glyph-name="Oslash" unicode="&#xd8;" 
d="M546 535.5c20.667 -53.667 31 -116.5 31 -188.5c0 -112.667 -23.833 -201.5 -71.5 -266.5s-116.167 -97.5 -205.5 -97.5c-16.667 0 -34 1.66699 -52 5l-28 -97l-111 33l34 110c-38.667 30 -68.334 71.833 -89.001 125.5s-31 116.167 -31 187.5
c0 112.667 23.833 201.5 71.5 266.5s116.167 97.5 205.5 97.5c16 0 33 -1.66699 51 -5l29 97l111 -33l-34 -110c38.667 -29.333 68.334 -70.833 89.001 -124.5zM212 535.5c-18 -39 -27 -101.833 -27 -188.5c0 -82 7.66699 -142.333 23 -181l124 424
c-13.333 2.66699 -24 4 -32 4c-40.667 0 -70 -19.5 -88 -58.5zM388.5 158.5c17.667 39 26.5 101.832 26.5 188.499c0 82.667 -7.33301 142.334 -22 179.001l-123 -422c8 -2.66699 18 -4 30 -4c41.333 0 70.833 19.5 88.5 58.5z" />
    <glyph glyph-name="Ugrave" unicode="&#xd9;" 
d="M558 232c0 -48 -9.66895 -90.834 -29.002 -128.501s-48.333 -67.167 -87 -88.5s-86 -32 -142 -32c-84 0 -148 22.333 -192 67s-66 105.334 -66 182.001v461h165v-400c0 -44.667 2.33301 -80.334 7 -107.001s13.834 -46.834 27.501 -60.501s33.167 -20.5 58.5 -20.5
s44.833 6.83301 58.5 20.5s22.834 33.834 27.501 60.501s7 62.334 7 107.001v400h165v-461zM436.998 830.999l-37 -80l-238 84l60 118z" />
    <glyph glyph-name="Uacute" unicode="&#xda;" 
d="M558 232c0 -48 -9.66895 -90.834 -29.002 -128.501s-48.333 -67.167 -87 -88.5s-86 -32 -142 -32c-84 0 -148 22.333 -192 67s-66 105.334 -66 182.001v461h165v-400c0 -44.667 2.33301 -80.334 7 -107.001s13.834 -46.834 27.501 -60.501s33.167 -20.5 58.5 -20.5
s44.833 6.83301 58.5 20.5s22.834 33.834 27.501 60.501s7 62.334 7 107.001v400h165v-461zM436.998 834.999l-237 -84l-38 80l216 122z" />
    <glyph glyph-name="Ucircumflex" unicode="&#xdb;" 
d="M558 232c0 -48 -9.66895 -90.834 -29.002 -128.501s-48.333 -67.167 -87 -88.5s-86 -32 -142 -32c-84 0 -148 22.333 -192 67s-66 105.334 -66 182.001v461h165v-400c0 -44.667 2.33301 -80.334 7 -107.001s13.834 -46.834 27.501 -60.501s33.167 -20.5 58.5 -20.5
s44.833 6.83301 58.5 20.5s22.834 33.834 27.501 60.501s7 62.334 7 107.001v400h165v-461zM488.998 812.999l-56 -65l-133 85l-133 -85l-57 65l142 130h96z" />
    <glyph glyph-name="Udieresis" unicode="&#xdc;" 
d="M558 232c0 -48 -9.66895 -90.834 -29.002 -128.501s-48.333 -67.167 -87 -88.5s-86 -32 -142 -32c-84 0 -148 22.333 -192 67s-66 105.334 -66 182.001v461h165v-400c0 -44.667 2.33301 -80.334 7 -107.001s13.834 -46.834 27.501 -60.501s33.167 -20.5 58.5 -20.5
s44.833 6.83301 58.5 20.5s22.834 33.834 27.501 60.501s7 62.334 7 107.001v400h165v-461zM125.998 784.999c-16 15.333 -24 34.333 -24 57s8 41.667 24 57s35.333 23 58 23c23.333 0 42.833 -7.66699 58.5 -23s23.5 -34.333 23.5 -57s-7.83301 -41.667 -23.5 -57
s-35.167 -23 -58.5 -23c-22.667 0 -42 7.66699 -58 23zM357.498 785.499c-16.333 15.667 -24.5 34.5 -24.5 56.5s8.16699 40.833 24.5 56.5s35.833 23.5 58.5 23.5c23.333 0 42.833 -7.66699 58.5 -23s23.5 -34.333 23.5 -57s-7.83301 -41.667 -23.5 -57
s-35.167 -23 -58.5 -23c-22.667 0 -42.167 7.83301 -58.5 23.5z" />
    <glyph glyph-name="Yacute" unicode="&#xdd;" 
d="M382 0h-164v259l-226 434h180l131 -298l132 298h173l-226 -433v-260zM437 835l-237 -84l-38 80l216 122z" />
    <glyph glyph-name="Thorn" unicode="&#xde;" 
d="M224 581h55.001c95.333 0 168.666 -19 219.999 -57s77 -94.667 77 -170c0 -80 -23.833 -139.667 -71.5 -179s-115.5 -59 -203.5 -59h-77v-116h-165v693h165v-112zM224.001 464v-229h66c38 0 66.833 9.16699 86.5 27.5s29.5 48.5 29.5 90.5c0 38 -10.167 66 -30.5 84
s-50.833 27 -91.5 27h-60z" />
    <glyph glyph-name="germandbls" unicode="&#xdf;" 
d="M399.5 738.5c30.333 -13.667 53.499 -32.335 69.499 -56.002s24 -50.167 24 -79.5c0 -22 -4.33301 -40.333 -13 -55s-21.667 -31 -39 -49c-12.667 -13.333 -22.167 -24.833 -28.5 -34.5s-9.5 -20.5 -9.5 -32.5c0 -13.333 5 -25.333 15 -36s25.333 -23.667 46 -39
c23.333 -17.333 42.5 -33.333 57.5 -48s28 -33.667 39 -57s16.5 -51.333 16.5 -84c0 -57.333 -18.667 -102.5 -56 -135.5s-85.666 -49.5 -144.999 -49.5c-46.667 0 -89 10.333 -127 31l50 106c21.333 -10 40.333 -15 57 -15c19.333 0 34 5.33301 44 16s15 26 15 46
c0 23.333 -5.83301 42.5 -17.5 57.5s-29.167 31.167 -52.5 48.5c-18 14.667 -32.167 27 -42.5 37s-19.166 22.833 -26.499 38.5s-11 34.167 -11 55.5s3.5 39.833 10.5 55.5s17.167 33.167 30.5 52.5c12 18 20.667 32.833 26 44.5s8 24.834 8 39.501
c0 16.667 -4.66699 29.5 -14 38.5s-22.333 13.5 -39 13.5c-24 0 -41.5 -9 -52.5 -27s-16.5 -45.667 -16.5 -83v-538h-158v531c0 72.667 19.667 128.834 59 168.501s96.666 59.5 171.999 59.5c42 0 78.167 -6.83301 108.5 -20.5z" />
    <glyph glyph-name="agrave" unicode="&#xe0;" 
d="M525 110c5.33301 -9.33301 14.335 -16.335 27.002 -21.002l-33 -104c-32 3.33301 -58.667 10.5 -80 21.5s-38 27.167 -50 48.5c-20 -23.333 -45.333 -41.166 -76 -53.499s-63.334 -18.5 -98.001 -18.5c-54.667 0 -98.334 15.5 -131.001 46.5s-49 71.167 -49 120.5
c0 57.333 22.667 101.833 68 133.5s109 47.5 191 47.5h71v19c0 54.667 -35 82 -105 82c-18 0 -40.5 -2.5 -67.5 -7.5s-53.167 -11.833 -78.5 -20.5l-36 105c34 12.667 69.5 22.5 106.5 29.5s70.5 10.5 100.5 10.5c154.667 0 232 -62.667 232 -188v-208
c0 -19.333 2.66699 -33.666 8 -42.999zM323.502 111.498c18.333 10.333 32.167 24.5 41.5 42.5v87h-39c-85.333 0 -128 -26.667 -128 -80c0 -20.667 6.16699 -36.667 18.5 -48s29.833 -17 52.5 -17c18 0 36.167 5.16699 54.5 15.5zM156.003 715.998l61 119l218 -133l-43 -80
z" />
    <glyph glyph-name="aacute" unicode="&#xe1;" 
d="M525 110c5.33301 -9.33301 14.335 -16.335 27.002 -21.002l-33 -104c-32 3.33301 -58.667 10.5 -80 21.5s-38 27.167 -50 48.5c-20 -23.333 -45.333 -41.166 -76 -53.499s-63.334 -18.5 -98.001 -18.5c-54.667 0 -98.334 15.5 -131.001 46.5s-49 71.167 -49 120.5
c0 57.333 22.667 101.833 68 133.5s109 47.5 191 47.5h71v19c0 54.667 -35 82 -105 82c-18 0 -40.5 -2.5 -67.5 -7.5s-53.167 -11.833 -78.5 -20.5l-36 105c34 12.667 69.5 22.5 106.5 29.5s70.5 10.5 100.5 10.5c154.667 0 232 -62.667 232 -188v-208
c0 -19.333 2.66699 -33.666 8 -42.999zM323.502 111.498c18.333 10.333 32.167 24.5 41.5 42.5v87h-39c-85.333 0 -128 -26.667 -128 -80c0 -20.667 6.16699 -36.667 18.5 -48s29.833 -17 52.5 -17c18 0 36.167 5.16699 54.5 15.5zM431.003 715.998l-237 -94l-43 81l218 132
z" />
    <glyph glyph-name="acircumflex" unicode="&#xe2;" 
d="M525 110c5.33301 -9.33301 14.335 -16.335 27.002 -21.002l-33 -104c-32 3.33301 -58.667 10.5 -80 21.5s-38 27.167 -50 48.5c-20 -23.333 -45.333 -41.166 -76 -53.499s-63.334 -18.5 -98.001 -18.5c-54.667 0 -98.334 15.5 -131.001 46.5s-49 71.167 -49 120.5
c0 57.333 22.667 101.833 68 133.5s109 47.5 191 47.5h71v19c0 54.667 -35 82 -105 82c-18 0 -40.5 -2.5 -67.5 -7.5s-53.167 -11.833 -78.5 -20.5l-36 105c34 12.667 69.5 22.5 106.5 29.5s70.5 10.5 100.5 10.5c154.667 0 232 -62.667 232 -188v-208
c0 -19.333 2.66699 -33.666 8 -42.999zM323.502 111.498c18.333 10.333 32.167 24.5 41.5 42.5v87h-39c-85.333 0 -128 -26.667 -128 -80c0 -20.667 6.16699 -36.667 18.5 -48s29.833 -17 52.5 -17c18 0 36.167 5.16699 54.5 15.5zM103.003 675.998l142 139h96l141 -139
l-56 -65l-133 94l-133 -94z" />
    <glyph glyph-name="atilde" unicode="&#xe3;" 
d="M525 110c5.33301 -9.33301 14.335 -16.335 27.002 -21.002l-33 -104c-32 3.33301 -58.667 10.5 -80 21.5s-38 27.167 -50 48.5c-20 -23.333 -45.333 -41.166 -76 -53.499s-63.334 -18.5 -98.001 -18.5c-54.667 0 -98.334 15.5 -131.001 46.5s-49 71.167 -49 120.5
c0 57.333 22.667 101.833 68 133.5s109 47.5 191 47.5h71v19c0 54.667 -35 82 -105 82c-18 0 -40.5 -2.5 -67.5 -7.5s-53.167 -11.833 -78.5 -20.5l-36 105c34 12.667 69.5 22.5 106.5 29.5s70.5 10.5 100.5 10.5c154.667 0 232 -62.667 232 -188v-208
c0 -19.333 2.66699 -33.666 8 -42.999zM323.502 111.498c18.333 10.333 32.167 24.5 41.5 42.5v87h-39c-85.333 0 -128 -26.667 -128 -80c0 -20.667 6.16699 -36.667 18.5 -48s29.833 -17 52.5 -17c18 0 36.167 5.16699 54.5 15.5zM311.003 641.998
c-10.667 4.66699 -22.3311 11.333 -34.998 20c-16.667 12 -30.334 18 -41.001 18c-12 0 -21.667 -3.33301 -29 -10s-15.333 -18 -24 -34l-79 38c14 35.333 31.833 63.833 53.5 85.5s46.834 32.5 75.501 32.5c15.333 0 28.5 -2.33301 39.5 -7s22.833 -11.334 35.5 -20.001
c8.66699 -6 16 -10.5 22 -13.5s12.333 -4.5 19 -4.5c10.667 0 19.667 3.33301 27 10s15.666 17.667 24.999 33l79 -38c-14 -35.333 -32 -63.666 -54 -84.999s-47.333 -32 -76 -32c-14.667 0 -27.334 2.33301 -38.001 7z" />
    <glyph glyph-name="adieresis" unicode="&#xe4;" 
d="M525 110c5.33301 -9.33301 14.335 -16.335 27.002 -21.002l-33 -104c-32 3.33301 -58.667 10.5 -80 21.5s-38 27.167 -50 48.5c-20 -23.333 -45.333 -41.166 -76 -53.499s-63.334 -18.5 -98.001 -18.5c-54.667 0 -98.334 15.5 -131.001 46.5s-49 71.167 -49 120.5
c0 57.333 22.667 101.833 68 133.5s109 47.5 191 47.5h71v19c0 54.667 -35 82 -105 82c-18 0 -40.5 -2.5 -67.5 -7.5s-53.167 -11.833 -78.5 -20.5l-36 105c34 12.667 69.5 22.5 106.5 29.5s70.5 10.5 100.5 10.5c154.667 0 232 -62.667 232 -188v-208
c0 -19.333 2.66699 -33.666 8 -42.999zM323.502 111.498c18.333 10.333 32.167 24.5 41.5 42.5v87h-39c-85.333 0 -128 -26.667 -128 -80c0 -20.667 6.16699 -36.667 18.5 -48s29.833 -17 52.5 -17c18 0 36.167 5.16699 54.5 15.5zM119.003 660.498
c-16 15.667 -24 34.834 -24 57.501c0 22 8 40.667 24 56s35.333 23 58 23c23.333 0 43 -7.66699 59 -23s24 -34 24 -56c0 -22.667 -8 -41.834 -24 -57.501s-35.667 -23.5 -59 -23.5c-22.667 0 -42 7.83301 -58 23.5zM350.503 660.498
c-16.333 15.667 -24.5 34.834 -24.5 57.501c0 22 8.16699 40.667 24.5 56s35.833 23 58.5 23s42 -7.66699 58 -23s24 -34 24 -56c0 -22.667 -7.83301 -41.834 -23.5 -57.501s-35.167 -23.5 -58.5 -23.5c-22.667 0 -42.167 7.83301 -58.5 23.5z" />
    <glyph glyph-name="aring" unicode="&#xe5;" 
d="M525 110c5.33301 -9.33301 14.335 -16.335 27.002 -21.002l-33 -104c-32 3.33301 -58.667 10.5 -80 21.5s-38 27.167 -50 48.5c-20 -23.333 -45.333 -41.166 -76 -53.499s-63.334 -18.5 -98.001 -18.5c-54.667 0 -98.334 15.5 -131.001 46.5s-49 71.167 -49 120.5
c0 57.333 22.667 101.833 68 133.5s109 47.5 191 47.5h71v19c0 54.667 -35 82 -105 82c-18 0 -40.5 -2.5 -67.5 -7.5s-53.167 -11.833 -78.5 -20.5l-36 105c34 12.667 69.5 22.5 106.5 29.5s70.5 10.5 100.5 10.5c154.667 0 232 -62.667 232 -188v-208
c0 -19.333 2.66699 -33.666 8 -42.999zM323.502 111.498c18.333 10.333 32.167 24.5 41.5 42.5v87h-39c-85.333 0 -128 -26.667 -128 -80c0 -20.667 6.16699 -36.667 18.5 -48s29.833 -17 52.5 -17c18 0 36.167 5.16699 54.5 15.5zM393.003 826.998
c25.333 -25.333 38.001 -56.333 38.001 -93s-12.833 -68 -38.5 -94s-59.167 -39 -100.5 -39c-27.333 0 -51.5 6 -72.5 18s-37.167 28.167 -48.5 48.5s-17 42.5 -17 66.5c0 36 12.667 66.833 38 92.5s58.666 38.5 99.999 38.5c42 0 75.667 -12.667 101 -38zM260.004 770.498
c-8 -8.33301 -12 -20.5 -12 -36.5c0 -16.667 4 -29.334 12 -38.001s18.667 -13 32 -13c14 0 25 4.33301 33 13s12 21.334 12 38.001c0 16 -4 28.167 -12 36.5s-19 12.5 -33 12.5c-13.333 0 -24 -4.16699 -32 -12.5z" />
    <glyph glyph-name="ae" unicode="&#xe6;" 
d="M559.5 480.5c27 -45.667 40.501 -113.834 40.501 -204.501c0 -17.333 -1 -34 -3 -50h-241c8.66699 -92.667 41 -139 97 -139c15.333 0 29.833 2.66699 43.5 8s28.167 13.333 43.5 24l60 -79c-44.667 -38 -96.667 -57 -156 -57c-70.667 0 -124 28 -160 84
c-20 -30 -40.333 -51.5 -61 -64.5s-47.334 -19.5 -80.001 -19.5c-46 0 -82.333 15.667 -109 47s-40 72 -40 122c0 57.333 16.667 100.833 50 130.5s84 44.5 152 44.5h41v23c0 67.333 -29.667 101 -89 101c-16 0 -30.5 -1.83301 -43.5 -5.5s-29.5 -10.167 -49.5 -19.5l-36 87
c28 12.667 53 21.834 75 27.501s45.333 8.5 70 8.5c34.667 0 63 -6.16699 85 -18.5s39.667 -29.833 53 -52.5c12.667 22 29.5 39.333 50.5 52s46.167 19 75.5 19c60.667 0 104.5 -22.833 131.5 -68.5zM375.501 419c-10.333 -20.667 -16.833 -56.332 -19.5 -106.999h125
c-0.666992 49.333 -5 84.666 -13 105.999s-23.333 32 -46 32c-20.667 0 -36.167 -10.333 -46.5 -31zM216.001 242.002c-32 0 -54.999 -6.99902 -68.999 -20.999s-21 -34.667 -21 -62c0 -23.333 4 -41.333 12 -54s19.333 -19 34 -19c13.333 0 25.666 5 36.999 15
s22.333 25.667 33 47c-3.33301 33.333 -5 64.666 -5 93.999h-21z" />
    <glyph glyph-name="ccedilla" unicode="&#xe7;" 
d="M446 -80c17.333 -17.333 26.002 -39.6689 26.002 -67.002c0 -34 -13.667 -61.667 -41 -83s-63.333 -32 -108 -32c-22.667 0 -44.167 2.83301 -64.5 8.5s-37.833 12.834 -52.5 21.501l36 73c22.667 -11.333 44 -17 64 -17c35.333 0 53 10.333 53 31
c0 12.667 -7.33301 21.334 -22 26.001s-38 7 -70 7l11 101c-65.333 12.667 -116.5 43.167 -153.5 91.5s-55.5 108.833 -55.5 181.5c0 55.333 11.333 104.666 34 147.999s54.834 77.333 96.501 102s90.5 37 146.5 37c39.333 0 74.666 -5.5 105.999 -16.5
s60.666 -27.833 87.999 -50.5l-68 -95c-38.667 26.667 -78.334 40 -119.001 40c-79.333 0 -119 -55 -119 -165c0 -55.333 10.333 -94.833 31 -118.5s49.667 -35.5 87 -35.5c20 0 39.333 3.83301 58 11.5s38.667 18.834 60 33.501l70 -100
c-47.333 -40.667 -104.333 -63.667 -171 -69v-32c34 -4 59.667 -14.667 77 -32z" />
    <glyph glyph-name="egrave" unicode="&#xe8;" 
d="M335 98c45.333 0 90.667 14.667 136 44l63 -86c-26 -22.667 -57 -40.5 -93 -53.5s-75.667 -19.5 -119 -19.5c-59.333 0 -109.666 11.833 -150.999 35.5s-72.5 56.667 -93.5 99s-31.5 91.5 -31.5 147.5c0 53.333 10.167 101.5 30.5 144.5s50 77 89 102
s85.5 37.5 139.5 37.5c50.667 0 94.667 -10.833 132 -32.5s66.166 -53 86.499 -94s30.5 -89.833 30.5 -146.5c0 -22 -1 -41 -3 -57h-344c10 -80.667 52.667 -121 128 -121zM236.001 411.5c-17.333 -21 -27.667 -53.167 -31 -96.5h195c-1.33301 85.333 -33 128 -95 128
c-28.667 0 -51.667 -10.5 -69 -31.5zM170 716l61 119l218 -133l-43 -80z" />
    <glyph glyph-name="eacute" unicode="&#xe9;" 
d="M335 98c45.333 0 90.667 14.667 136 44l63 -86c-26 -22.667 -57 -40.5 -93 -53.5s-75.667 -19.5 -119 -19.5c-59.333 0 -109.666 11.833 -150.999 35.5s-72.5 56.667 -93.5 99s-31.5 91.5 -31.5 147.5c0 53.333 10.167 101.5 30.5 144.5s50 77 89 102
s85.5 37.5 139.5 37.5c50.667 0 94.667 -10.833 132 -32.5s66.166 -53 86.499 -94s30.5 -89.833 30.5 -146.5c0 -22 -1 -41 -3 -57h-344c10 -80.667 52.667 -121 128 -121zM236.001 411.5c-17.333 -21 -27.667 -53.167 -31 -96.5h195c-1.33301 85.333 -33 128 -95 128
c-28.667 0 -51.667 -10.5 -69 -31.5zM445 716l-237 -94l-43 81l218 132z" />
    <glyph glyph-name="ecircumflex" unicode="&#xea;" 
d="M335 98c45.333 0 90.667 14.667 136 44l63 -86c-26 -22.667 -57 -40.5 -93 -53.5s-75.667 -19.5 -119 -19.5c-59.333 0 -109.666 11.833 -150.999 35.5s-72.5 56.667 -93.5 99s-31.5 91.5 -31.5 147.5c0 53.333 10.167 101.5 30.5 144.5s50 77 89 102
s85.5 37.5 139.5 37.5c50.667 0 94.667 -10.833 132 -32.5s66.166 -53 86.499 -94s30.5 -89.833 30.5 -146.5c0 -22 -1 -41 -3 -57h-344c10 -80.667 52.667 -121 128 -121zM236.001 411.5c-17.333 -21 -27.667 -53.167 -31 -96.5h195c-1.33301 85.333 -33 128 -95 128
c-28.667 0 -51.667 -10.5 -69 -31.5zM117 676l142 139h96l141 -139l-56 -65l-133 94l-133 -94z" />
    <glyph glyph-name="edieresis" unicode="&#xeb;" 
d="M335 98c45.333 0 90.667 14.667 136 44l63 -86c-26 -22.667 -57 -40.5 -93 -53.5s-75.667 -19.5 -119 -19.5c-59.333 0 -109.666 11.833 -150.999 35.5s-72.5 56.667 -93.5 99s-31.5 91.5 -31.5 147.5c0 53.333 10.167 101.5 30.5 144.5s50 77 89 102
s85.5 37.5 139.5 37.5c50.667 0 94.667 -10.833 132 -32.5s66.166 -53 86.499 -94s30.5 -89.833 30.5 -146.5c0 -22 -1 -41 -3 -57h-344c10 -80.667 52.667 -121 128 -121zM236.001 411.5c-17.333 -21 -27.667 -53.167 -31 -96.5h195c-1.33301 85.333 -33 128 -95 128
c-28.667 0 -51.667 -10.5 -69 -31.5zM133 660.5c-16 15.667 -24 34.834 -24 57.501c0 22 8 40.667 24 56s35.333 23 58 23c23.333 0 43 -7.66699 59 -23s24 -34 24 -56c0 -22.667 -8 -41.834 -24 -57.501s-35.667 -23.5 -59 -23.5c-22.667 0 -42 7.83301 -58 23.5z
M364.5 660.5c-16.333 15.667 -24.5 34.834 -24.5 57.501c0 22 8.16699 40.667 24.5 56s35.833 23 58.5 23s42 -7.66699 58 -23s24 -34 24 -56c0 -22.667 -7.83301 -41.834 -23.5 -57.501s-35.167 -23.5 -58.5 -23.5c-22.667 0 -42.167 7.83301 -58.5 23.5z" />
    <glyph glyph-name="igrave" unicode="&#xec;" 
d="M394 108h136v-108h-444v108h150v315h-145v108h303v-423zM162 716l61 119l218 -133l-43 -80z" />
    <glyph glyph-name="iacute" unicode="&#xed;" 
d="M394 108h136v-108h-444v108h150v315h-145v108h303v-423zM437 716l-237 -94l-43 81l218 132z" />
    <glyph glyph-name="icircumflex" unicode="&#xee;" 
d="M394 108h136v-108h-444v108h150v315h-145v108h303v-423zM109 676l142 139h96l141 -139l-56 -65l-133 94l-133 -94z" />
    <glyph glyph-name="idieresis" unicode="&#xef;" 
d="M394 108h136v-108h-444v108h150v315h-145v108h303v-423zM125 660.5c-16 15.667 -24 34.834 -24 57.501c0 22 8 40.667 24 56s35.333 23 58 23c23.333 0 43 -7.66699 59 -23s24 -34 24 -56c0 -22.667 -8 -41.834 -24 -57.501s-35.667 -23.5 -59 -23.5
c-22.667 0 -42 7.83301 -58 23.5zM356.5 660.5c-16.333 15.667 -24.5 34.834 -24.5 57.501c0 22 8.16699 40.667 24.5 56s35.833 23 58.5 23s42 -7.66699 58 -23s24 -34 24 -56c0 -22.667 -7.83301 -41.834 -23.5 -57.501s-35.167 -23.5 -58.5 -23.5
c-22.667 0 -42.167 7.83301 -58.5 23.5z" />
    <glyph glyph-name="eth" unicode="&#xf0;" 
d="M184 631c-26.667 10 -57.0039 18.001 -91.0039 24.001l31 103c56.667 -8 105.334 -20.333 146.001 -37l73 76l81 -70l-53 -54c63.333 -40.667 110 -94 140 -160s45 -144.667 45 -236c0 -55.333 -10.167 -105.333 -30.5 -150s-50.333 -79.834 -90 -105.501
s-86.834 -38.5 -141.501 -38.5c-48 0 -91.333 10 -130 30s-69 49 -91 87s-33 82.667 -33 134c0 48 9.83301 90.833 29.5 128.5s45.834 67 78.501 88s68.334 31.5 107.001 31.5c28.667 0 53.334 -4.16699 74.001 -12.5s40.334 -21.166 59.001 -38.499
c-22 65.333 -57.333 115.666 -106 150.999l-56 -57l-100 46zM394.996 328.001c-25.333 28.667 -58.334 43 -99.001 43c-30 0 -53.333 -11.333 -70 -34s-25 -56.334 -25 -101.001c0 -47.333 8.33301 -82.166 25 -104.499s40.334 -33.5 71.001 -33.5c34 0 59 12.833 75 38.5
s24 65.5 24 119.5c0 32.667 -0.333008 56.667 -1 72z" />
    <glyph glyph-name="ntilde" unicode="&#xf1;" 
d="M70 531h138l11 -61c24 26.667 49.167 46.5 75.5 59.5s56.166 19.5 89.499 19.5c46 0 81.833 -14 107.5 -42s38.5 -67 38.5 -117v-390h-158v344c0 33.333 -3.66699 56.333 -11 69s-20.666 19 -39.999 19c-16 0 -31.5 -5.16699 -46.5 -15.5s-30.5 -25.5 -46.5 -45.5v-371
h-158v531zM319 642c-10.667 4.66699 -22.3311 11.333 -34.998 20c-16.667 12 -30.334 18 -41.001 18c-12 0 -21.667 -3.33301 -29 -10s-15.333 -18 -24 -34l-79 38c14 35.333 31.833 63.833 53.5 85.5s46.834 32.5 75.501 32.5c15.333 0 28.5 -2.33301 39.5 -7
s22.833 -11.334 35.5 -20.001c8.66699 -6 16 -10.5 22 -13.5s12.333 -4.5 19 -4.5c10.667 0 19.667 3.33301 27 10s15.666 17.667 24.999 33l79 -38c-14 -35.333 -32 -63.666 -54 -84.999s-47.333 -32 -76 -32c-14.667 0 -27.334 2.33301 -38.001 7z" />
    <glyph glyph-name="ograve" unicode="&#xf2;" 
d="M489.5 472.5c45.667 -51 68.4971 -119.5 68.4971 -205.5c0 -89.333 -22.667 -159 -68 -209s-108.666 -75 -189.999 -75s-144.666 24.833 -189.999 74.5s-68 119.167 -68 208.5c0 56.667 10.167 106.167 30.5 148.5s50 75.333 89 99s85.167 35.5 138.5 35.5
c80.667 0 143.834 -25.5 189.501 -76.5zM227.997 392.5c-15.333 -26.333 -23 -68.5 -23 -126.5c0 -58.667 7.66699 -101.167 23 -127.5s39.333 -39.5 72 -39.5s56.667 13.333 72 40s23 69.334 23 128.001c0 57.333 -7.66699 99.166 -23 125.499s-39.333 39.5 -72 39.5
s-56.667 -13.167 -72 -39.5zM162.997 716l61 119l218 -133l-43 -80z" />
    <glyph glyph-name="oacute" unicode="&#xf3;" 
d="M489.5 472.5c45.667 -51 68.4971 -119.5 68.4971 -205.5c0 -89.333 -22.667 -159 -68 -209s-108.666 -75 -189.999 -75s-144.666 24.833 -189.999 74.5s-68 119.167 -68 208.5c0 56.667 10.167 106.167 30.5 148.5s50 75.333 89 99s85.167 35.5 138.5 35.5
c80.667 0 143.834 -25.5 189.501 -76.5zM227.997 392.5c-15.333 -26.333 -23 -68.5 -23 -126.5c0 -58.667 7.66699 -101.167 23 -127.5s39.333 -39.5 72 -39.5s56.667 13.333 72 40s23 69.334 23 128.001c0 57.333 -7.66699 99.166 -23 125.499s-39.333 39.5 -72 39.5
s-56.667 -13.167 -72 -39.5zM437.997 716l-237 -94l-43 81l218 132z" />
    <glyph glyph-name="ocircumflex" unicode="&#xf4;" 
d="M489.5 472.5c45.667 -51 68.4971 -119.5 68.4971 -205.5c0 -89.333 -22.667 -159 -68 -209s-108.666 -75 -189.999 -75s-144.666 24.833 -189.999 74.5s-68 119.167 -68 208.5c0 56.667 10.167 106.167 30.5 148.5s50 75.333 89 99s85.167 35.5 138.5 35.5
c80.667 0 143.834 -25.5 189.501 -76.5zM227.997 392.5c-15.333 -26.333 -23 -68.5 -23 -126.5c0 -58.667 7.66699 -101.167 23 -127.5s39.333 -39.5 72 -39.5s56.667 13.333 72 40s23 69.334 23 128.001c0 57.333 -7.66699 99.166 -23 125.499s-39.333 39.5 -72 39.5
s-56.667 -13.167 -72 -39.5zM109.997 676l142 139h96l141 -139l-56 -65l-133 94l-133 -94z" />
    <glyph glyph-name="otilde" unicode="&#xf5;" 
d="M489.5 472.5c45.667 -51 68.4971 -119.5 68.4971 -205.5c0 -89.333 -22.667 -159 -68 -209s-108.666 -75 -189.999 -75s-144.666 24.833 -189.999 74.5s-68 119.167 -68 208.5c0 56.667 10.167 106.167 30.5 148.5s50 75.333 89 99s85.167 35.5 138.5 35.5
c80.667 0 143.834 -25.5 189.501 -76.5zM227.997 392.5c-15.333 -26.333 -23 -68.5 -23 -126.5c0 -58.667 7.66699 -101.167 23 -127.5s39.333 -39.5 72 -39.5s56.667 13.333 72 40s23 69.334 23 128.001c0 57.333 -7.66699 99.166 -23 125.499s-39.333 39.5 -72 39.5
s-56.667 -13.167 -72 -39.5zM317.997 642c-10.667 4.66699 -22.3311 11.333 -34.998 20c-16.667 12 -30.334 18 -41.001 18c-12 0 -21.667 -3.33301 -29 -10s-15.333 -18 -24 -34l-79 38c14 35.333 31.833 63.833 53.5 85.5s46.834 32.5 75.501 32.5
c15.333 0 28.5 -2.33301 39.5 -7s22.833 -11.334 35.5 -20.001c8.66699 -6 16 -10.5 22 -13.5s12.333 -4.5 19 -4.5c10.667 0 19.667 3.33301 27 10s15.666 17.667 24.999 33l79 -38c-14 -35.333 -32 -63.666 -54 -84.999s-47.333 -32 -76 -32
c-14.667 0 -27.334 2.33301 -38.001 7z" />
    <glyph glyph-name="odieresis" unicode="&#xf6;" 
d="M489.5 472.5c45.667 -51 68.4971 -119.5 68.4971 -205.5c0 -89.333 -22.667 -159 -68 -209s-108.666 -75 -189.999 -75s-144.666 24.833 -189.999 74.5s-68 119.167 -68 208.5c0 56.667 10.167 106.167 30.5 148.5s50 75.333 89 99s85.167 35.5 138.5 35.5
c80.667 0 143.834 -25.5 189.501 -76.5zM227.997 392.5c-15.333 -26.333 -23 -68.5 -23 -126.5c0 -58.667 7.66699 -101.167 23 -127.5s39.333 -39.5 72 -39.5s56.667 13.333 72 40s23 69.334 23 128.001c0 57.333 -7.66699 99.166 -23 125.499s-39.333 39.5 -72 39.5
s-56.667 -13.167 -72 -39.5zM125.997 660.5c-16 15.667 -24 34.834 -24 57.501c0 22 8 40.667 24 56s35.333 23 58 23c23.333 0 43 -7.66699 59 -23s24 -34 24 -56c0 -22.667 -8 -41.834 -24 -57.501s-35.667 -23.5 -59 -23.5c-22.667 0 -42 7.83301 -58 23.5z
M357.497 660.5c-16.333 15.667 -24.5 34.834 -24.5 57.501c0 22 8.16699 40.667 24.5 56s35.833 23 58.5 23s42 -7.66699 58 -23s24 -34 24 -56c0 -22.667 -7.83301 -41.834 -23.5 -57.501s-35.167 -23.5 -58.5 -23.5c-22.667 0 -42.167 7.83301 -58.5 23.5z" />
    <glyph glyph-name="divide" unicode="&#xf7;" 
d="M364 596.5c17.333 -17.667 26 -39.167 26 -64.5c0 -24 -8.66699 -44.833 -26 -62.5s-38.666 -26.5 -63.999 -26.5s-46.666 8.83301 -63.999 26.5s-26 38.5 -26 62.5c0 25.333 8.66699 46.833 26 64.5s38.666 26.5 63.999 26.5s46.666 -8.83301 63.999 -26.5zM517 258
h-434v121h434v-121zM364 168.5c17.333 -17.667 26 -39.167 26 -64.5c0 -24.667 -8.66699 -45.834 -26 -63.501s-38.666 -26.5 -63.999 -26.5s-46.666 8.83301 -63.999 26.5s-26 38.834 -26 63.501c0 25.333 8.66699 46.833 26 64.5s38.666 26.5 63.999 26.5
s46.666 -8.83301 63.999 -26.5z" />
    <glyph glyph-name="oslash" unicode="&#xf8;" 
d="M529 412.5c19.333 -41.667 29.001 -90.167 29.001 -145.5c0 -89.333 -22.667 -159 -68 -209s-108.666 -75 -189.999 -75l-31 1l-37 -121l-116 34l40 122c-36.667 22.667 -64.834 55 -84.501 97s-29.5 92 -29.5 150c0 56.667 10.167 106.167 30.5 148.5s50 75.333 89 99
s85.167 35.5 138.5 35.5c7.33301 0 17.666 -0.666992 30.999 -2l39 116l114 -34l-39 -119c36.667 -23.333 64.667 -55.833 84 -97.5zM225.501 395c-15.667 -26.667 -23.501 -69.666 -23.501 -128.999c0 -62.667 6 -106.334 18 -131.001l96 299
c-3.33301 0.666992 -8.66602 1 -15.999 1c-34 0 -58.833 -13.333 -74.5 -40zM374.5 136.001c15.667 26.667 23.5 70.333 23.5 131c0 61.333 -5.66699 103.333 -17 126l-95 -297h14c34 0 58.833 13.333 74.5 40z" />
    <glyph glyph-name="ugrave" unicode="&#xf9;" 
d="M228 168c0 -24.667 4.49805 -42.167 13.498 -52.5s22.5 -15.5 40.5 -15.5c16 0 32.333 5.16699 49 15.5s30.334 24.5 41.001 42.5v373h158v-531h-138l-7 62c-17.333 -25.333 -40.666 -44.833 -69.999 -58.5s-60.333 -20.5 -93 -20.5c-50 0 -87.833 14.5 -113.5 43.5
s-38.5 69.5 -38.5 121.5v383h158v-363zM162.998 716l61 119l218 -133l-43 -80z" />
    <glyph glyph-name="uacute" unicode="&#xfa;" 
d="M228 168c0 -24.667 4.49805 -42.167 13.498 -52.5s22.5 -15.5 40.5 -15.5c16 0 32.333 5.16699 49 15.5s30.334 24.5 41.001 42.5v373h158v-531h-138l-7 62c-17.333 -25.333 -40.666 -44.833 -69.999 -58.5s-60.333 -20.5 -93 -20.5c-50 0 -87.833 14.5 -113.5 43.5
s-38.5 69.5 -38.5 121.5v383h158v-363zM437.998 716l-237 -94l-43 81l218 132z" />
    <glyph glyph-name="ucircumflex" unicode="&#xfb;" 
d="M228 168c0 -24.667 4.49805 -42.167 13.498 -52.5s22.5 -15.5 40.5 -15.5c16 0 32.333 5.16699 49 15.5s30.334 24.5 41.001 42.5v373h158v-531h-138l-7 62c-17.333 -25.333 -40.666 -44.833 -69.999 -58.5s-60.333 -20.5 -93 -20.5c-50 0 -87.833 14.5 -113.5 43.5
s-38.5 69.5 -38.5 121.5v383h158v-363zM109.998 676l142 139h96l141 -139l-56 -65l-133 94l-133 -94z" />
    <glyph glyph-name="udieresis" unicode="&#xfc;" 
d="M228 168c0 -24.667 4.49805 -42.167 13.498 -52.5s22.5 -15.5 40.5 -15.5c16 0 32.333 5.16699 49 15.5s30.334 24.5 41.001 42.5v373h158v-531h-138l-7 62c-17.333 -25.333 -40.666 -44.833 -69.999 -58.5s-60.333 -20.5 -93 -20.5c-50 0 -87.833 14.5 -113.5 43.5
s-38.5 69.5 -38.5 121.5v383h158v-363zM125.998 660.5c-16 15.667 -24 34.834 -24 57.501c0 22 8 40.667 24 56s35.333 23 58 23c23.333 0 43 -7.66699 59 -23s24 -34 24 -56c0 -22.667 -8 -41.834 -24 -57.501s-35.667 -23.5 -59 -23.5c-22.667 0 -42 7.83301 -58 23.5z
M357.498 660.5c-16.333 15.667 -24.5 34.834 -24.5 57.501c0 22 8.16699 40.667 24.5 56s35.833 23 58.5 23s42 -7.66699 58 -23s24 -34 24 -56c0 -22.667 -7.83301 -41.834 -23.5 -57.501s-35.167 -23.5 -58.5 -23.5c-22.667 0 -42.167 7.83301 -58.5 23.5z" />
    <glyph glyph-name="yacute" unicode="&#xfd;" 
d="M395 0c-24 -71.333 -59.668 -125.167 -107.001 -161.5s-110.666 -56.833 -189.999 -61.5l-18 112c50.667 6.66699 88.167 18 112.5 34s43.833 41.667 58.5 77h-55l-168 531h167l103 -430l112 430h162zM437.999 715.999l-237 -94l-43 81l218 132z" />
    <glyph glyph-name="thorn" unicode="&#xfe;" 
d="M228 478c16 22.667 35.667 40.167 59 52.5s49 18.5 77 18.5c66.667 0 115.667 -24.5 147 -73.5s47 -118.5 47 -208.5c0 -54.667 -8.16699 -103.5 -24.5 -146.5s-39.833 -76.667 -70.5 -101s-67 -36.5 -109 -36.5c-51.333 0 -93.333 18.333 -126 55v-243l-158 -17v964
l158 17v-281zM228 370l0.000976562 -224c11.333 -16 23.166 -27.833 35.499 -35.5s26.5 -11.5 42.5 -11.5c29.333 0 51.5 13.167 66.5 39.5s22.5 68.5 22.5 126.5c0 62.667 -6.66699 106.167 -20 130.5s-33.333 36.5 -60 36.5c-33.333 0 -62.333 -20.667 -87 -62z" />
    <glyph glyph-name="ydieresis" unicode="&#xff;" 
d="M395 0c-24 -71.333 -59.668 -125.167 -107.001 -161.5s-110.666 -56.833 -189.999 -61.5l-18 112c50.667 6.66699 88.167 18 112.5 34s43.833 41.667 58.5 77h-55l-168 531h167l103 -430l112 430h162zM125.999 660.499c-16 15.667 -24 34.834 -24 57.501
c0 22 8 40.667 24 56s35.333 23 58 23c23.333 0 43 -7.66699 59 -23s24 -34 24 -56c0 -22.667 -8 -41.834 -24 -57.501s-35.667 -23.5 -59 -23.5c-22.667 0 -42 7.83301 -58 23.5zM357.499 660.499c-16.333 15.667 -24.5 34.834 -24.5 57.501c0 22 8.16699 40.667 24.5 56
s35.833 23 58.5 23s42 -7.66699 58 -23s24 -34 24 -56c0 -22.667 -7.83301 -41.834 -23.5 -57.501s-35.167 -23.5 -58.5 -23.5c-22.667 0 -42.167 7.83301 -58.5 23.5z" />
    <glyph glyph-name="Amacron" unicode="&#x100;" 
d="M197 150l-36 -150h-172l212 693h199l212 -693h-176l-36 150h-203zM373 268l-75 307l-75 -307h150zM147 782v110h305v-110h-305z" />
    <glyph glyph-name="amacron" unicode="&#x101;" 
d="M525 110c5.33301 -9.33301 14.335 -16.335 27.002 -21.002l-33 -104c-32 3.33301 -58.667 10.5 -80 21.5s-38 27.167 -50 48.5c-20 -23.333 -45.333 -41.166 -76 -53.499s-63.334 -18.5 -98.001 -18.5c-54.667 0 -98.334 15.5 -131.001 46.5s-49 71.167 -49 120.5
c0 57.333 22.667 101.833 68 133.5s109 47.5 191 47.5h71v19c0 54.667 -35 82 -105 82c-18 0 -40.5 -2.5 -67.5 -7.5s-53.167 -11.833 -78.5 -20.5l-36 105c34 12.667 69.5 22.5 106.5 29.5s70.5 10.5 100.5 10.5c154.667 0 232 -62.667 232 -188v-208
c0 -19.333 2.66699 -33.666 8 -42.999zM323.502 111.498c18.333 10.333 32.167 24.5 41.5 42.5v87h-39c-85.333 0 -128 -26.667 -128 -80c0 -20.667 6.16699 -36.667 18.5 -48s29.833 -17 52.5 -17c18 0 36.167 5.16699 54.5 15.5zM140.003 657.998v109h306v-109h-306z" />
    <glyph glyph-name="Abreve" unicode="&#x102;" 
d="M197 150l-36 -150h-172l212 693h199l212 -693h-176l-36 150h-203zM373 268l-75 307l-75 -307h150zM179 793.5c-28.667 28.333 -45.665 65.5 -50.998 111.5l87 16c6.66699 -20.667 16.667 -35.834 30 -45.501s31.666 -14.5 54.999 -14.5s41.666 4.83301 54.999 14.5
s23.333 24.834 30 45.501l87 -16c-4.66699 -45.333 -21.5 -82.333 -50.5 -111s-69.5 -43 -121.5 -43s-92.333 14.167 -121 42.5z" />
    <glyph glyph-name="abreve" unicode="&#x103;" 
d="M525 110c5.33301 -9.33301 14.335 -16.335 27.002 -21.002l-33 -104c-32 3.33301 -58.667 10.5 -80 21.5s-38 27.167 -50 48.5c-20 -23.333 -45.333 -41.166 -76 -53.499s-63.334 -18.5 -98.001 -18.5c-54.667 0 -98.334 15.5 -131.001 46.5s-49 71.167 -49 120.5
c0 57.333 22.667 101.833 68 133.5s109 47.5 191 47.5h71v19c0 54.667 -35 82 -105 82c-18 0 -40.5 -2.5 -67.5 -7.5s-53.167 -11.833 -78.5 -20.5l-36 105c34 12.667 69.5 22.5 106.5 29.5s70.5 10.5 100.5 10.5c154.667 0 232 -62.667 232 -188v-208
c0 -19.333 2.66699 -33.666 8 -42.999zM323.502 111.498c18.333 10.333 32.167 24.5 41.5 42.5v87h-39c-85.333 0 -128 -26.667 -128 -80c0 -20.667 6.16699 -36.667 18.5 -48s29.833 -17 52.5 -17c18 0 36.167 5.16699 54.5 15.5zM171.503 662.498
c-29 33.667 -45.834 74.833 -50.501 123.5l87 15c6 -25.333 16.167 -45.166 30.5 -59.499s32.5 -21.5 54.5 -21.5s40.167 7.16699 54.5 21.5s24.5 34.166 30.5 59.499l87 -15c-4.66699 -48 -21.667 -89 -51 -123s-69.666 -51 -120.999 -51c-52 0 -92.5 16.833 -121.5 50.5z
" />
    <glyph glyph-name="Aogonek" unicode="&#x104;" 
d="M443 -49c-16.667 -18 -25 -38.334 -25 -61.001c0 -16 5.16699 -28.167 15.5 -36.5s24.5 -12.5 42.5 -12.5c16 0 34 2.33301 54 7l-12 -93c-19.333 -5.33301 -39 -8 -59 -8c-44 0 -80.167 10.833 -108.5 32.5s-42.5 51.834 -42.5 90.501c0 36.667 10.5 67 31.5 91
s51.5 44.333 91.5 61l-31 128h-203l-36 -150h-172l212 693h199l212 -693h-79c-43.333 -14.667 -73.333 -31 -90 -49zM373 267.999l-75 307l-75 -307h150z" />
    <glyph glyph-name="aogonek" unicode="&#x105;" 
d="M519 -15c-43.333 -14.667 -73.3311 -31.002 -89.998 -49.002s-25 -38.333 -25 -61c0 -16 5.16699 -28.167 15.5 -36.5s24.5 -12.5 42.5 -12.5c16 0 34 2.33301 54 7l-12 -93c-19.333 -5.33301 -39 -8 -59 -8c-44 0 -80.167 10.833 -108.5 32.5s-42.5 51.834 -42.5 90.501
s11.667 70.167 35 94.5s57 45.166 101 62.499c-16 10.667 -29.667 25 -41 43c-20 -23.333 -45.333 -41.166 -76 -53.499s-63.334 -18.5 -98.001 -18.5c-54.667 0 -98.334 15.5 -131.001 46.5s-49 71.167 -49 120.5c0 57.333 22.667 101.833 68 133.5s109 47.5 191 47.5h71
v19c0 54.667 -35 82 -105 82c-18 0 -40.5 -2.5 -67.5 -7.5s-53.167 -11.833 -78.5 -20.5l-36 105c34 12.667 69.5 22.5 106.5 29.5s70.5 10.5 100.5 10.5c154.667 0 232 -62.667 232 -188v-208c0 -19.333 2.66699 -33.666 8 -42.999s14.333 -16.333 27 -21zM365.002 240.998
h-38.999c-85.333 0 -128 -26.667 -128 -80c0 -20.667 6.16699 -36.667 18.5 -48s29.833 -17 52.5 -17c18 0 36.167 5.16699 54.5 15.5s32.166 24.5 41.499 42.5v87z" />
    <glyph glyph-name="Cacute" unicode="&#x106;" 
d="M482 692c34.667 -12.667 67.332 -31.668 97.999 -57.001l-80 -97c-42 34 -88 51 -138 51c-47.333 0 -85.5 -20 -114.5 -60s-43.5 -100.333 -43.5 -181s14.333 -140.5 43 -179.5s68 -58.5 118 -58.5c30.667 0 57 5.33301 79 16s45.667 26 71 46l74 -95
c-61.333 -62.667 -139 -94 -233 -94c-63.333 0 -119.166 14 -167.499 42s-86.166 69.5 -113.499 124.5s-41 121.167 -41 198.5c0 75.333 14 140.333 42 195s66.667 96.334 116 125.001s104.666 43 165.999 43c48 0 89.333 -6.33301 124 -19zM497.998 834.999l-237 -84
l-38 80l216 122z" />
    <glyph glyph-name="cacute" unicode="&#x107;" 
d="M410 119.5c18.667 7.66699 38.667 18.834 60 33.501l70 -100c-25.333 -21.333 -54.666 -38.333 -87.999 -51s-69.666 -19 -108.999 -19c-56.667 0 -105.5 11.667 -146.5 35s-72.5 56 -94.5 98s-33 90.667 -33 146s11.333 104.666 34 147.999s54.834 77.333 96.501 102
s90.5 37 146.5 37c39.333 0 74.666 -5.5 105.999 -16.5s60.666 -27.833 87.999 -50.5l-68 -95c-38.667 26.667 -78.334 40 -119.001 40c-79.333 0 -119 -55 -119 -165c0 -55.333 10.333 -94.833 31 -118.5s49.667 -35.5 87 -35.5c20 0 39.333 3.83301 58 11.5zM482 703
l-237 -94l-43 81l218 132z" />
    <glyph glyph-name="Ccircumflex" unicode="&#x108;" 
d="M482 692c34.667 -12.667 67.332 -31.668 97.999 -57.001l-80 -97c-42 34 -88 51 -138 51c-47.333 0 -85.5 -20 -114.5 -60s-43.5 -100.333 -43.5 -181s14.333 -140.5 43 -179.5s68 -58.5 118 -58.5c30.667 0 57 5.33301 79 16s45.667 26 71 46l74 -95
c-61.333 -62.667 -139 -94 -233 -94c-63.333 0 -119.166 14 -167.499 42s-86.166 69.5 -113.499 124.5s-41 121.167 -41 198.5c0 75.333 14 140.333 42 195s66.667 96.334 116 125.001s104.666 43 165.999 43c48 0 89.333 -6.33301 124 -19zM549.998 812.999l-56 -65
l-133 85l-133 -85l-57 65l142 130h96z" />
    <glyph glyph-name="ccircumflex" unicode="&#x109;" 
d="M410 119.5c18.667 7.66699 38.667 18.834 60 33.501l70 -100c-25.333 -21.333 -54.666 -38.333 -87.999 -51s-69.666 -19 -108.999 -19c-56.667 0 -105.5 11.667 -146.5 35s-72.5 56 -94.5 98s-33 90.667 -33 146s11.333 104.666 34 147.999s54.834 77.333 96.501 102
s90.5 37 146.5 37c39.333 0 74.666 -5.5 105.999 -16.5s60.666 -27.833 87.999 -50.5l-68 -95c-38.667 26.667 -78.334 40 -119.001 40c-79.333 0 -119 -55 -119 -165c0 -55.333 10.333 -94.833 31 -118.5s49.667 -35.5 87 -35.5c20 0 39.333 3.83301 58 11.5zM154 663
l142 139h96l141 -139l-56 -65l-133 94l-133 -94z" />
    <glyph glyph-name="Cdotaccent" unicode="&#x10a;" 
d="M482 692c34.667 -12.667 67.332 -31.668 97.999 -57.001l-80 -97c-42 34 -88 51 -138 51c-47.333 0 -85.5 -20 -114.5 -60s-43.5 -100.333 -43.5 -181s14.333 -140.5 43 -179.5s68 -58.5 118 -58.5c30.667 0 57 5.33301 79 16s45.667 26 71 46l74 -95
c-61.333 -62.667 -139 -94 -233 -94c-63.333 0 -119.166 14 -167.499 42s-86.166 69.5 -113.499 124.5s-41 121.167 -41 198.5c0 75.333 14 140.333 42 195s66.667 96.334 116 125.001s104.666 43 165.999 43c48 0 89.333 -6.33301 124 -19zM427.498 908.499
c17.667 -17 26.5 -38.167 26.5 -63.5s-8.83301 -46.5 -26.5 -63.5s-39.834 -25.5 -66.501 -25.5c-28 0 -50.667 8.33301 -68 25s-26 38 -26 64c0 25.333 8.83301 46.5 26.5 63.5s40.167 25.5 67.5 25.5c26.667 0 48.834 -8.5 66.501 -25.5z" />
    <glyph glyph-name="cdotaccent" unicode="&#x10b;" 
d="M410 119.5c18.667 7.66699 38.667 18.834 60 33.501l70 -100c-25.333 -21.333 -54.666 -38.333 -87.999 -51s-69.666 -19 -108.999 -19c-56.667 0 -105.5 11.667 -146.5 35s-72.5 56 -94.5 98s-33 90.667 -33 146s11.333 104.666 34 147.999s54.834 77.333 96.501 102
s90.5 37 146.5 37c39.333 0 74.666 -5.5 105.999 -16.5s60.666 -27.833 87.999 -50.5l-68 -95c-38.667 26.667 -78.334 40 -119.001 40c-79.333 0 -119 -55 -119 -165c0 -55.333 10.333 -94.833 31 -118.5s49.667 -35.5 87 -35.5c20 0 39.333 3.83301 58 11.5zM411 770.5
c17.333 -17 26 -38.167 26 -63.5c0 -26 -8.66699 -47.333 -26 -64s-39.666 -25 -66.999 -25s-49.833 8.5 -67.5 25.5s-26.5 38.167 -26.5 63.5s8.83301 46.5 26.5 63.5s40.167 25.5 67.5 25.5s49.666 -8.5 66.999 -25.5z" />
    <glyph glyph-name="Ccaron" unicode="&#x10c;" 
d="M482 692c34.667 -12.667 67.332 -31.668 97.999 -57.001l-80 -97c-42 34 -88 51 -138 51c-47.333 0 -85.5 -20 -114.5 -60s-43.5 -100.333 -43.5 -181s14.333 -140.5 43 -179.5s68 -58.5 118 -58.5c30.667 0 57 5.33301 79 16s45.667 26 71 46l74 -95
c-61.333 -62.667 -139 -94 -233 -94c-63.333 0 -119.166 14 -167.499 42s-86.166 69.5 -113.499 124.5s-41 121.167 -41 198.5c0 75.333 14 140.333 42 195s66.667 96.334 116 125.001s104.666 43 165.999 43c48 0 89.333 -6.33301 124 -19zM549.998 880.999l-141 -130h-96
l-142 130l57 65l133 -85l133 85z" />
    <glyph glyph-name="ccaron" unicode="&#x10d;" 
d="M410 119.5c18.667 7.66699 38.667 18.834 60 33.501l70 -100c-25.333 -21.333 -54.666 -38.333 -87.999 -51s-69.666 -19 -108.999 -19c-56.667 0 -105.5 11.667 -146.5 35s-72.5 56 -94.5 98s-33 90.667 -33 146s11.333 104.666 34 147.999s54.834 77.333 96.501 102
s90.5 37 146.5 37c39.333 0 74.666 -5.5 105.999 -16.5s60.666 -27.833 87.999 -50.5l-68 -95c-38.667 26.667 -78.334 40 -119.001 40c-79.333 0 -119 -55 -119 -165c0 -55.333 10.333 -94.833 31 -118.5s49.667 -35.5 87 -35.5c20 0 39.333 3.83301 58 11.5zM533 738
l-141 -140h-96l-142 140l57 64l133 -94l133 94z" />
    <glyph glyph-name="Dcaron" unicode="&#x10e;" 
d="M239 0h-187v693h175c104.667 0 188.667 -24.5 252 -73.5s95 -138.833 95 -269.5c0 -233.333 -111.667 -350 -335 -350zM365 526.5c-26.667 31.667 -64.667 47.501 -114 47.501h-35v-455h35c50 0 88.167 17.167 114.5 51.5s39.5 94.166 39.5 179.499
c0 86 -13.333 144.833 -40 176.5zM476 881.001l-141 -130h-96l-142 130l57 65l133 -85l133 85z" />
    <glyph glyph-name="dcaron" unicode="&#x10f;" 
d="M491 742l0.000976562 -742h-140l-8 58c-16 -22.667 -36.333 -40.834 -61 -54.501s-53.334 -20.5 -86.001 -20.5c-64 0 -112.5 25.333 -145.5 76s-49.5 120 -49.5 208c0 54.667 8.66699 103.334 26 146.001s42 76 74 100s69.333 36 112 36c48 0 88 -16.667 120 -50v260z
M188.001 392.5c-16 -27 -24.001 -69.167 -24.001 -126.5c0 -61.333 7.16699 -104.5 21.5 -129.5s34.5 -37.5 60.5 -37.5c33.333 0 62.333 20.333 87 61v229c-11.333 14.667 -23.166 25.667 -35.499 33s-26.5 11 -42.5 11c-28.667 0 -51 -13.5 -67 -40.5zM693 747l-78 -232
l-98 16l37 233z" />
    <glyph glyph-name="Dcroat" unicode="&#x110;" 
d="M492 619.5c63.333 -49 95 -138.833 95 -269.5c0 -233.333 -111.667 -350 -335 -350h-187v303h-56v100h56v290h175c104.667 0 188.667 -24.5 252 -73.5zM377.5 170c26.333 34 39.501 94 39.501 180c0 59.333 -6.5 105.333 -19.5 138s-30.5 55.167 -52.5 67.5
s-49 18.5 -81 18.5h-35v-171h120v-100h-120v-184h35c49.333 0 87.166 17 113.499 51z" />
    <glyph glyph-name="dcroat" unicode="&#x111;" 
d="M592 593h-79.998v-593h-140l-8 58c-16.667 -22.667 -37.334 -40.834 -62.001 -54.501s-53.334 -20.5 -86.001 -20.5c-64 0 -112.5 25.333 -145.5 76s-49.5 120 -49.5 208c0 54.667 8.66699 103.334 26 146.001s42 76 74 100s69.333 36 112 36
c48.667 0 89 -16.667 121 -50v94h-123v92h123v74l158 -17v-57h80v-92zM354.002 389c-23.333 29.333 -49.333 44 -78 44s-51.167 -13.5 -67.5 -40.5s-24.5 -69.167 -24.5 -126.5c0 -61.333 7.16699 -104.5 21.5 -129.5s34.833 -37.5 61.5 -37.5c33.333 0 62.333 20.333 87 61
v229z" />
    <glyph glyph-name="Emacron" unicode="&#x112;" 
d="M257 409h240v-114h-240v-177h289v-118h-453v693h453l-17 -117h-272v-167zM167 782v110h305v-110h-305z" />
    <glyph glyph-name="emacron" unicode="&#x113;" 
d="M335 98c45.333 0 90.667 14.667 136 44l63 -86c-26 -22.667 -57 -40.5 -93 -53.5s-75.667 -19.5 -119 -19.5c-59.333 0 -109.666 11.833 -150.999 35.5s-72.5 56.667 -93.5 99s-31.5 91.5 -31.5 147.5c0 53.333 10.167 101.5 30.5 144.5s50 77 89 102
s85.5 37.5 139.5 37.5c50.667 0 94.667 -10.833 132 -32.5s66.166 -53 86.499 -94s30.5 -89.833 30.5 -146.5c0 -22 -1 -41 -3 -57h-344c10 -80.667 52.667 -121 128 -121zM236.001 411.5c-17.333 -21 -27.667 -53.167 -31 -96.5h195c-1.33301 85.333 -33 128 -95 128
c-28.667 0 -51.667 -10.5 -69 -31.5zM154 658v109h306v-109h-306z" />
    <glyph glyph-name="Ebreve" unicode="&#x114;" 
d="M257 409h240v-114h-240v-177h289v-118h-453v693h453l-17 -117h-272v-167zM199 793.5c-28.667 28.333 -45.665 65.5 -50.998 111.5l87 16c6.66699 -20.667 16.667 -35.834 30 -45.501s31.666 -14.5 54.999 -14.5s41.666 4.83301 54.999 14.5s23.333 24.834 30 45.501
l87 -16c-4.66699 -45.333 -21.5 -82.333 -50.5 -111s-69.5 -43 -121.5 -43s-92.333 14.167 -121 42.5z" />
    <glyph glyph-name="ebreve" unicode="&#x115;" 
d="M335 98c45.333 0 90.667 14.667 136 44l63 -86c-26 -22.667 -57 -40.5 -93 -53.5s-75.667 -19.5 -119 -19.5c-59.333 0 -109.666 11.833 -150.999 35.5s-72.5 56.667 -93.5 99s-31.5 91.5 -31.5 147.5c0 53.333 10.167 101.5 30.5 144.5s50 77 89 102
s85.5 37.5 139.5 37.5c50.667 0 94.667 -10.833 132 -32.5s66.166 -53 86.499 -94s30.5 -89.833 30.5 -146.5c0 -22 -1 -41 -3 -57h-344c10 -80.667 52.667 -121 128 -121zM236.001 411.5c-17.333 -21 -27.667 -53.167 -31 -96.5h195c-1.33301 85.333 -33 128 -95 128
c-28.667 0 -51.667 -10.5 -69 -31.5zM185.5 662.5c-29 33.667 -45.834 74.833 -50.501 123.5l87 15c6 -25.333 16.167 -45.166 30.5 -59.499s32.5 -21.5 54.5 -21.5s40.167 7.16699 54.5 21.5s24.5 34.166 30.5 59.499l87 -15c-4.66699 -48 -21.667 -89 -51 -123
s-69.666 -51 -120.999 -51c-52 0 -92.5 16.833 -121.5 50.5z" />
    <glyph glyph-name="Edotaccent" unicode="&#x116;" 
d="M257 409h240v-114h-240v-177h289v-118h-453v693h453l-17 -117h-272v-167zM386.5 908.5c17.667 -17 26.5 -38.167 26.5 -63.5s-8.83301 -46.5 -26.5 -63.5s-39.834 -25.5 -66.501 -25.5c-28 0 -50.667 8.33301 -68 25s-26 38 -26 64c0 25.333 8.83301 46.5 26.5 63.5
s40.167 25.5 67.5 25.5c26.667 0 48.834 -8.5 66.501 -25.5z" />
    <glyph glyph-name="edotaccent" unicode="&#x117;" 
d="M335 98c45.333 0 90.667 14.667 136 44l63 -86c-26 -22.667 -57 -40.5 -93 -53.5s-75.667 -19.5 -119 -19.5c-59.333 0 -109.666 11.833 -150.999 35.5s-72.5 56.667 -93.5 99s-31.5 91.5 -31.5 147.5c0 53.333 10.167 101.5 30.5 144.5s50 77 89 102
s85.5 37.5 139.5 37.5c50.667 0 94.667 -10.833 132 -32.5s66.166 -53 86.499 -94s30.5 -89.833 30.5 -146.5c0 -22 -1 -41 -3 -57h-344c10 -80.667 52.667 -121 128 -121zM236.001 411.5c-17.333 -21 -27.667 -53.167 -31 -96.5h195c-1.33301 85.333 -33 128 -95 128
c-28.667 0 -51.667 -10.5 -69 -31.5zM374 783.5c17.333 -17 26 -38.167 26 -63.5c0 -26 -8.66699 -47.333 -26 -64s-39.666 -25 -66.999 -25s-49.833 8.5 -67.5 25.5s-26.5 38.167 -26.5 63.5s8.83301 46.5 26.5 63.5s40.167 25.5 67.5 25.5s49.666 -8.5 66.999 -25.5z" />
    <glyph glyph-name="Eogonek" unicode="&#x118;" 
d="M546 118v-118h-79c-43.333 -14.667 -73.333 -31 -90 -49s-25 -38.333 -25 -61c0 -16 5.16699 -28.167 15.5 -36.5s24.5 -12.5 42.5 -12.5c16 0 34 2.33301 54 7l-12 -93c-19.333 -5.33301 -39 -8 -59 -8c-44 0 -80.167 10.833 -108.5 32.5s-42.5 51.834 -42.5 90.501
c0 55.333 26.667 98.666 80 129.999h-229v693h453l-17 -117h-272v-167h240v-114h-240v-177h289z" />
    <glyph glyph-name="eogonek" unicode="&#x119;" 
d="M551 219l-343.998 -0.00195312c10 -80.667 52.667 -121 128 -121c45.333 0 90.666 14.667 135.999 44l63 -86c-30 -25.333 -63 -43.666 -99 -54.999v-1c-43.333 -14.667 -73.333 -31 -90 -49s-25 -38.333 -25 -61c0 -16 5.16699 -28.167 15.5 -36.5
s24.5 -12.5 42.5 -12.5c16 0 34 2.33301 54 7l-12 -93c-19.333 -5.33301 -39 -8 -59 -8c-44 0 -80.167 10.833 -108.5 32.5s-42.5 51.834 -42.5 90.501c0 46.667 23 85 69 115c-75.333 8 -133 37.167 -173 87.5s-60 114.5 -60 192.5c0 53.333 10.167 101.5 30.5 144.5
s50 77 89 102s85.5 37.5 139.5 37.5c50.667 0 94.667 -10.833 132 -32.5s66.166 -53 86.499 -94s30.5 -89.833 30.5 -146.5c0 -22 -1 -41 -3 -57zM400.002 314.998c-1.33301 85.333 -33.001 128 -95.001 128c-28.667 0 -51.667 -10.5 -69 -31.5
s-27.666 -53.167 -30.999 -96.5h195z" />
    <glyph glyph-name="Ecaron" unicode="&#x11a;" 
d="M257 409h240v-114h-240v-177h289v-118h-453v693h453l-17 -117h-272v-167zM509 881l-141 -130h-96l-142 130l57 65l133 -85l133 85z" />
    <glyph glyph-name="ecaron" unicode="&#x11b;" 
d="M335 98c45.333 0 90.667 14.667 136 44l63 -86c-26 -22.667 -57 -40.5 -93 -53.5s-75.667 -19.5 -119 -19.5c-59.333 0 -109.666 11.833 -150.999 35.5s-72.5 56.667 -93.5 99s-31.5 91.5 -31.5 147.5c0 53.333 10.167 101.5 30.5 144.5s50 77 89 102
s85.5 37.5 139.5 37.5c50.667 0 94.667 -10.833 132 -32.5s66.166 -53 86.499 -94s30.5 -89.833 30.5 -146.5c0 -22 -1 -41 -3 -57h-344c10 -80.667 52.667 -121 128 -121zM236.001 411.5c-17.333 -21 -27.667 -53.167 -31 -96.5h195c-1.33301 85.333 -33 128 -95 128
c-28.667 0 -51.667 -10.5 -69 -31.5zM496 751l-141 -140h-96l-142 140l57 64l133 -94l133 94z" />
    <glyph glyph-name="Gcircumflex" unicode="&#x11c;" 
d="M100.5 76.5c-51.667 62.333 -77.498 152.832 -77.498 271.499c0 76.667 14 142.334 42 197.001s66.5 96 115.5 124s103.833 42 164.5 42c47.333 0 88.5 -7.5 123.5 -22.5s67.167 -36.167 96.5 -63.5l-86 -89c-22 19.333 -42.5 33.333 -61.5 42s-40.5 13 -64.5 13
c-50 0 -89.333 -19.833 -118 -59.5s-43 -101.167 -43 -184.5c0 -89.333 10.667 -152.333 32 -189s55.666 -55 102.999 -55c31.333 0 60 7 86 21v159h-87l-16 114h258v-344c-76 -46.667 -156.667 -70 -242 -70c-98.667 0 -173.834 31.167 -225.501 93.5zM519.002 812.999
l-56 -65l-133 85l-133 -85l-57 65l142 130h96z" />
    <glyph glyph-name="gcircumflex" unicode="&#x11d;" 
d="M578 500c-34.667 -14 -85.666 -21.0049 -152.999 -21.0049c34.667 -15.333 60.5 -33.666 77.5 -54.999s25.5 -48.666 25.5 -81.999c0 -34 -9.33301 -64.5 -28 -91.5s-45 -48.167 -79 -63.5s-73.333 -23 -118 -23c-22 0 -42.667 2 -62 6
c-5.33301 -2.66699 -9.5 -6.83398 -12.5 -12.501s-4.5 -11.5 -4.5 -17.5c0 -10 3.83301 -17.833 11.5 -23.5s23.167 -8.5 46.5 -8.5h88c40 0 75.333 -6.66699 106 -20s54.334 -31.666 71.001 -54.999s25 -49.666 25 -78.999c0 -55.333 -24.167 -98.5 -72.5 -129.5
s-118.833 -46.5 -211.5 -46.5c-66 0 -117.833 6.83301 -155.5 20.5s-64 32.834 -79 57.501s-22.5 55.667 -22.5 93h140c0 -16.667 3.16699 -29.667 9.5 -39s18.166 -16.333 35.499 -21s42.666 -7 75.999 -7c46.667 0 78.834 5.33301 96.501 16s26.5 25.667 26.5 45
c0 16 -6.5 28.833 -19.5 38.5s-32.167 14.5 -57.5 14.5h-84c-54.667 0 -95.667 9.83301 -123 29.5s-41 44.834 -41 75.501c0 20 5.16699 38.833 15.5 56.5s24.833 32.5 43.5 44.5c-33.333 18 -57.333 39.167 -72 63.5s-22 53.833 -22 88.5c0 39.333 10 73.666 30 102.999
s48 51.833 84 67.5s77 23.5 123 23.5c53.333 -1.33301 98.666 3.83398 135.999 15.501s75.333 29.167 114 52.5zM236.501 420.995c-14.333 -16 -21.502 -37.668 -21.502 -65.001c0 -28.667 7.33301 -51 22 -67s34.334 -24 59.001 -24c26 0 46 7.83301 60 23.5
s21 38.834 21 69.501c0 58 -27 87 -81 87c-25.333 0 -45.166 -8 -59.499 -24zM110.999 675.994l142 139h96l141 -139l-56 -65l-133 94l-133 -94z" />
    <glyph glyph-name="Gbreve" unicode="&#x11e;" 
d="M100.5 76.5c-51.667 62.333 -77.498 152.832 -77.498 271.499c0 76.667 14 142.334 42 197.001s66.5 96 115.5 124s103.833 42 164.5 42c47.333 0 88.5 -7.5 123.5 -22.5s67.167 -36.167 96.5 -63.5l-86 -89c-22 19.333 -42.5 33.333 -61.5 42s-40.5 13 -64.5 13
c-50 0 -89.333 -19.833 -118 -59.5s-43 -101.167 -43 -184.5c0 -89.333 10.667 -152.333 32 -189s55.666 -55 102.999 -55c31.333 0 60 7 86 21v159h-87l-16 114h258v-344c-76 -46.667 -156.667 -70 -242 -70c-98.667 0 -173.834 31.167 -225.501 93.5zM209.002 793.499
c-28.667 28.333 -45.665 65.5 -50.998 111.5l87 16c6.66699 -20.667 16.667 -35.834 30 -45.501s31.666 -14.5 54.999 -14.5s41.666 4.83301 54.999 14.5s23.333 24.834 30 45.501l87 -16c-4.66699 -45.333 -21.5 -82.333 -50.5 -111s-69.5 -43 -121.5 -43
s-92.333 14.167 -121 42.5z" />
    <glyph glyph-name="gbreve" unicode="&#x11f;" 
d="M578 500c-34.667 -14 -85.666 -21.0049 -152.999 -21.0049c34.667 -15.333 60.5 -33.666 77.5 -54.999s25.5 -48.666 25.5 -81.999c0 -34 -9.33301 -64.5 -28 -91.5s-45 -48.167 -79 -63.5s-73.333 -23 -118 -23c-22 0 -42.667 2 -62 6
c-5.33301 -2.66699 -9.5 -6.83398 -12.5 -12.501s-4.5 -11.5 -4.5 -17.5c0 -10 3.83301 -17.833 11.5 -23.5s23.167 -8.5 46.5 -8.5h88c40 0 75.333 -6.66699 106 -20s54.334 -31.666 71.001 -54.999s25 -49.666 25 -78.999c0 -55.333 -24.167 -98.5 -72.5 -129.5
s-118.833 -46.5 -211.5 -46.5c-66 0 -117.833 6.83301 -155.5 20.5s-64 32.834 -79 57.501s-22.5 55.667 -22.5 93h140c0 -16.667 3.16699 -29.667 9.5 -39s18.166 -16.333 35.499 -21s42.666 -7 75.999 -7c46.667 0 78.834 5.33301 96.501 16s26.5 25.667 26.5 45
c0 16 -6.5 28.833 -19.5 38.5s-32.167 14.5 -57.5 14.5h-84c-54.667 0 -95.667 9.83301 -123 29.5s-41 44.834 -41 75.501c0 20 5.16699 38.833 15.5 56.5s24.833 32.5 43.5 44.5c-33.333 18 -57.333 39.167 -72 63.5s-22 53.833 -22 88.5c0 39.333 10 73.666 30 102.999
s48 51.833 84 67.5s77 23.5 123 23.5c53.333 -1.33301 98.666 3.83398 135.999 15.501s75.333 29.167 114 52.5zM236.501 420.995c-14.333 -16 -21.502 -37.668 -21.502 -65.001c0 -28.667 7.33301 -51 22 -67s34.334 -24 59.001 -24c26 0 46 7.83301 60 23.5
s21 38.834 21 69.501c0 58 -27 87 -81 87c-25.333 0 -45.166 -8 -59.499 -24zM179.499 662.494c-29 33.667 -45.834 74.833 -50.501 123.5l87 15c6 -25.333 16.167 -45.166 30.5 -59.499s32.5 -21.5 54.5 -21.5s40.167 7.16699 54.5 21.5s24.5 34.166 30.5 59.499l87 -15
c-4.66699 -48 -21.667 -89 -51 -123s-69.666 -51 -120.999 -51c-52 0 -92.5 16.833 -121.5 50.5z" />
    <glyph glyph-name="Gdotaccent" unicode="&#x120;" 
d="M100.5 76.5c-51.667 62.333 -77.498 152.832 -77.498 271.499c0 76.667 14 142.334 42 197.001s66.5 96 115.5 124s103.833 42 164.5 42c47.333 0 88.5 -7.5 123.5 -22.5s67.167 -36.167 96.5 -63.5l-86 -89c-22 19.333 -42.5 33.333 -61.5 42s-40.5 13 -64.5 13
c-50 0 -89.333 -19.833 -118 -59.5s-43 -101.167 -43 -184.5c0 -89.333 10.667 -152.333 32 -189s55.666 -55 102.999 -55c31.333 0 60 7 86 21v159h-87l-16 114h258v-344c-76 -46.667 -156.667 -70 -242 -70c-98.667 0 -173.834 31.167 -225.501 93.5zM396.502 908.499
c17.667 -17 26.5 -38.167 26.5 -63.5s-8.83301 -46.5 -26.5 -63.5s-39.834 -25.5 -66.501 -25.5c-28 0 -50.667 8.33301 -68 25s-26 38 -26 64c0 25.333 8.83301 46.5 26.5 63.5s40.167 25.5 67.5 25.5c26.667 0 48.834 -8.5 66.501 -25.5z" />
    <glyph glyph-name="gdotaccent" unicode="&#x121;" 
d="M578 500c-34.667 -14 -85.666 -21.0049 -152.999 -21.0049c34.667 -15.333 60.5 -33.666 77.5 -54.999s25.5 -48.666 25.5 -81.999c0 -34 -9.33301 -64.5 -28 -91.5s-45 -48.167 -79 -63.5s-73.333 -23 -118 -23c-22 0 -42.667 2 -62 6
c-5.33301 -2.66699 -9.5 -6.83398 -12.5 -12.501s-4.5 -11.5 -4.5 -17.5c0 -10 3.83301 -17.833 11.5 -23.5s23.167 -8.5 46.5 -8.5h88c40 0 75.333 -6.66699 106 -20s54.334 -31.666 71.001 -54.999s25 -49.666 25 -78.999c0 -55.333 -24.167 -98.5 -72.5 -129.5
s-118.833 -46.5 -211.5 -46.5c-66 0 -117.833 6.83301 -155.5 20.5s-64 32.834 -79 57.501s-22.5 55.667 -22.5 93h140c0 -16.667 3.16699 -29.667 9.5 -39s18.166 -16.333 35.499 -21s42.666 -7 75.999 -7c46.667 0 78.834 5.33301 96.501 16s26.5 25.667 26.5 45
c0 16 -6.5 28.833 -19.5 38.5s-32.167 14.5 -57.5 14.5h-84c-54.667 0 -95.667 9.83301 -123 29.5s-41 44.834 -41 75.501c0 20 5.16699 38.833 15.5 56.5s24.833 32.5 43.5 44.5c-33.333 18 -57.333 39.167 -72 63.5s-22 53.833 -22 88.5c0 39.333 10 73.666 30 102.999
s48 51.833 84 67.5s77 23.5 123 23.5c53.333 -1.33301 98.666 3.83398 135.999 15.501s75.333 29.167 114 52.5zM236.501 420.995c-14.333 -16 -21.502 -37.668 -21.502 -65.001c0 -28.667 7.33301 -51 22 -67s34.334 -24 59.001 -24c26 0 46 7.83301 60 23.5
s21 38.834 21 69.501c0 58 -27 87 -81 87c-25.333 0 -45.166 -8 -59.499 -24zM367.999 783.494c17.333 -17 26 -38.167 26 -63.5c0 -26 -8.66699 -47.333 -26 -64s-39.666 -25 -66.999 -25s-49.833 8.5 -67.5 25.5s-26.5 38.167 -26.5 63.5s8.83301 46.5 26.5 63.5
s40.167 25.5 67.5 25.5s49.666 -8.5 66.999 -25.5z" />
    <glyph glyph-name="Gcommaaccent" unicode="&#x122;" 
d="M100.5 76.5c-51.667 62.333 -77.498 152.832 -77.498 271.499c0 76.667 14 142.334 42 197.001s66.5 96 115.5 124s103.833 42 164.5 42c47.333 0 88.5 -7.5 123.5 -22.5s67.167 -36.167 96.5 -63.5l-86 -89c-22 19.333 -42.5 33.333 -61.5 42s-40.5 13 -64.5 13
c-50 0 -89.333 -19.833 -118 -59.5s-43 -101.167 -43 -184.5c0 -89.333 10.667 -152.333 32 -189s55.666 -55 102.999 -55c31.333 0 60 7 86 21v159h-87l-16 114h258v-344c-76 -46.667 -156.667 -70 -242 -70c-98.667 0 -173.834 31.167 -225.501 93.5zM383.002 -87.001
c14.667 -14.667 21.999 -33.333 21.999 -56c0 -24 -7.66699 -51.333 -23 -82l-49 -97h-80l27 115c-21.333 18 -32 39.333 -32 64c0 22 7.5 40.5 22.5 55.5s33.833 22.5 56.5 22.5s41.334 -7.33301 56.001 -22z" />
    <glyph glyph-name="gcommaaccent" unicode="&#x123;" 
d="M245 618c-14.667 14.667 -21.999 33.333 -21.999 56c0 24 7.66699 51.333 23 82l49 97h80l-27 -115c21.333 -18 32 -39.333 32 -64c0 -22 -7.5 -40.5 -22.5 -55.5s-33.833 -22.5 -56.5 -22.5s-41.334 7.33301 -56.001 22zM578.001 499.999
c-34.667 -14 -85.666 -21.0049 -152.999 -21.0049c34.667 -15.333 60.5 -33.666 77.5 -54.999s25.5 -48.666 25.5 -81.999c0 -34 -9.33301 -64.5 -28 -91.5s-45 -48.167 -79 -63.5s-73.333 -23 -118 -23c-22 0 -42.667 2 -62 6
c-5.33301 -2.66699 -9.5 -6.83398 -12.5 -12.501s-4.5 -11.5 -4.5 -17.5c0 -10 3.83301 -17.833 11.5 -23.5s23.167 -8.5 46.5 -8.5h88c40 0 75.333 -6.66699 106 -20s54.334 -31.666 71.001 -54.999s25 -49.666 25 -78.999c0 -55.333 -24.167 -98.5 -72.5 -129.5
s-118.833 -46.5 -211.5 -46.5c-66 0 -117.833 6.83301 -155.5 20.5s-64 32.834 -79 57.501s-22.5 55.667 -22.5 93h140c0 -16.667 3.16699 -29.667 9.5 -39s18.166 -16.333 35.499 -21s42.666 -7 75.999 -7c46.667 0 78.834 5.33301 96.501 16s26.5 25.667 26.5 45
c0 16 -6.5 28.833 -19.5 38.5s-32.167 14.5 -57.5 14.5h-84c-54.667 0 -95.667 9.83301 -123 29.5s-41 44.834 -41 75.501c0 20 5.16699 38.833 15.5 56.5s24.833 32.5 43.5 44.5c-33.333 18 -57.333 39.167 -72 63.5s-22 53.833 -22 88.5c0 39.333 10 73.666 30 102.999
s48 51.833 84 67.5s77 23.5 123 23.5c53.333 -1.33301 98.666 3.83398 135.999 15.501s75.333 29.167 114 52.5zM236.502 420.994c-14.333 -16 -21.502 -37.668 -21.502 -65.001c0 -28.667 7.33301 -51 22 -67s34.334 -24 59.001 -24c26 0 46 7.83301 60 23.5
s21 38.834 21 69.501c0 58 -27 87 -81 87c-25.333 0 -45.166 -8 -59.499 -24z" />
    <glyph glyph-name="Hcircumflex" unicode="&#x124;" 
d="M384 292h-168v-292h-164v693h164v-266h168v266h164v-693h-164v292zM489 813l-56 -65l-133 85l-133 -85l-57 65l142 130h96z" />
    <glyph glyph-name="hcircumflex" unicode="&#x125;" 
d="M228 478c44.667 47.333 96.666 71.001 155.999 71.001c46.667 0 82.667 -13.833 108 -41.5s38 -66.834 38 -117.501v-390h-158v346c0 32 -3.66699 54.333 -11 67s-20.666 19 -39.999 19c-16 0 -31.5 -5.5 -46.5 -16.5s-30.5 -27.167 -46.5 -48.5v-367h-158v742l158 16
v-280zM488.999 862.001l-56 -65l-133 85l-133 -85l-57 65l142 130h96z" />
    <glyph glyph-name="Hbar" unicode="&#x126;" 
d="M598 500h-55v-500h-164v297h-158v-297h-164v500h-55v92h55v101h164v-101h158v101h164v-101h55v-92zM379 500h-158v-76h158v76z" />
    <glyph glyph-name="hbar" unicode="&#x127;" 
d="M492 507.5c25.333 -27.667 37.999 -66.833 37.999 -117.5v-390h-158v346c0 32 -3.66699 54.333 -11 67s-20.666 19 -39.999 19c-16 0 -31.5 -5.5 -46.5 -16.5s-30.5 -27.167 -46.5 -48.5v-367h-158v593h-62v92h62v57l158 16v-73h141v-92h-141v-115
c44.667 47.333 96.667 71 156 71c46.667 0 82.667 -13.833 108 -41.5z" />
    <glyph glyph-name="Itilde" unicode="&#x128;" 
d="M525 573h-143v-452h143v-121h-450v121h143v452h-143v120h450v-120zM318 767c-10.667 4.66699 -22.3311 11.333 -34.998 20c-16.667 12 -30.334 18 -41.001 18c-12 0 -21.667 -3.33301 -29 -10s-15.333 -18 -24 -34l-79 38c14 35.333 31.833 63.833 53.5 85.5
s46.834 32.5 75.501 32.5c15.333 0 28.5 -2.33301 39.5 -7s22.833 -11.334 35.5 -20.001c8.66699 -6 16 -10.5 22 -13.5s12.333 -4.5 19 -4.5c10.667 0 19.667 3.33301 27 10s15.666 17.667 24.999 33l79 -38c-14 -35.333 -32.167 -63.666 -54.5 -84.999
s-47.5 -32 -75.5 -32c-14.667 0 -27.334 2.33301 -38.001 7z" />
    <glyph glyph-name="itilde" unicode="&#x129;" 
d="M394 108h136v-108h-444v108h150v315h-145v108h303v-423zM317 642c-10.667 4.66699 -22.3311 11.333 -34.998 20c-16.667 12 -30.334 18 -41.001 18c-12 0 -21.667 -3.33301 -29 -10s-15.333 -18 -24 -34l-79 38c14 35.333 31.833 63.833 53.5 85.5
s46.834 32.5 75.501 32.5c15.333 0 28.5 -2.33301 39.5 -7s22.833 -11.334 35.5 -20.001c8.66699 -6 16 -10.5 22 -13.5s12.333 -4.5 19 -4.5c10.667 0 19.667 3.33301 27 10s15.666 17.667 24.999 33l79 -38c-14 -35.333 -32 -63.666 -54 -84.999s-47.333 -32 -76 -32
c-14.667 0 -27.334 2.33301 -38.001 7z" />
    <glyph glyph-name="Imacron" unicode="&#x12a;" 
d="M525 573h-143v-452h143v-121h-450v121h143v452h-143v120h450v-120zM147 782v110h305v-110h-305z" />
    <glyph glyph-name="imacron" unicode="&#x12b;" 
d="M394 108h136v-108h-444v108h150v315h-145v108h303v-423zM146 658v109h306v-109h-306z" />
    <glyph glyph-name="Ibreve" unicode="&#x12c;" 
d="M525 573h-143v-452h143v-121h-450v121h143v452h-143v120h450v-120zM179 793.5c-28.667 28.333 -45.665 65.5 -50.998 111.5l87 16c6.66699 -20.667 16.667 -35.834 30 -45.501s31.666 -14.5 54.999 -14.5s41.666 4.83301 54.999 14.5s23.333 24.834 30 45.501l87 -16
c-4.66699 -45.333 -21.5 -82.333 -50.5 -111s-69.5 -43 -121.5 -43s-92.333 14.167 -121 42.5z" />
    <glyph glyph-name="ibreve" unicode="&#x12d;" 
d="M394 108h136v-108h-444v108h150v315h-145v108h303v-423zM177.5 662.5c-29 33.667 -45.834 74.833 -50.501 123.5l87 15c6 -25.333 16.167 -45.166 30.5 -59.499s32.5 -21.5 54.5 -21.5s40.167 7.16699 54.5 21.5s24.5 34.166 30.5 59.499l87 -15
c-4.66699 -48 -21.667 -89 -51 -123s-69.666 -51 -120.999 -51c-52 0 -92.5 16.833 -121.5 50.5z" />
    <glyph glyph-name="Iogonek" unicode="&#x12e;" 
d="M382 573v-452h143v-121h-143c-43.333 -14.667 -73.333 -31 -90 -49s-25 -38.333 -25 -61c0 -16 5.16699 -28.167 15.5 -36.5s24.5 -12.5 42.5 -12.5c16 0 34 2.33301 54 7l-12 -93c-19.333 -5.33301 -39 -8 -59 -8c-44 0 -80.167 10.833 -108.5 32.5
s-42.5 51.834 -42.5 90.501c0 55.333 26.667 98.666 80 129.999h-162v121h143v452h-143v120h450v-120h-143z" />
    <glyph glyph-name="iogonek" unicode="&#x12f;" 
d="M231.5 656.5c-17.667 17 -26.5 38.167 -26.5 63.5s8.83301 46.5 26.5 63.5s40.167 25.5 67.5 25.5s49.666 -8.5 66.999 -25.5s26 -38.167 26 -63.5c0 -26 -8.66699 -47.333 -26 -64s-39.666 -25 -66.999 -25s-49.833 8.5 -67.5 25.5zM530 108v-108h-136
c-43.333 -14.667 -73.333 -31 -90 -49s-25 -38.333 -25 -61c0 -16 5.16699 -28.167 15.5 -36.5s24.5 -12.5 42.5 -12.5c16 0 34 2.33301 54 7l-12 -93c-19.333 -5.33301 -39 -8 -59 -8c-44 0 -80.167 10.833 -108.5 32.5s-42.5 51.834 -42.5 90.501
c0 55.333 26.667 98.666 80 129.999h-163v108h150v315h-145v108h303v-423h136z" />
    <glyph glyph-name="Idotaccent" unicode="&#x130;" 
d="M525 573h-143v-452h143v-121h-450v121h143v452h-143v120h450v-120zM366.5 908.5c17.667 -17 26.5 -38.167 26.5 -63.5s-8.83301 -46.5 -26.5 -63.5s-39.834 -25.5 -66.501 -25.5c-28 0 -50.667 8.33301 -68 25s-26 38 -26 64c0 25.333 8.83301 46.5 26.5 63.5
s40.167 25.5 67.5 25.5c26.667 0 48.834 -8.5 66.501 -25.5z" />
    <glyph glyph-name="dotlessi" unicode="&#x131;" 
d="M394 108h136v-108h-444v108h150v315h-145v108h303v-423z" />
    <glyph glyph-name="IJ" unicode="&#x132;" 
d="M318 -27c31.333 19.333 52.5 43.832 63.5 73.499s16.5 68.834 16.5 117.501v428h-166v-490h53v-102h-277v102h73v490h-73v101h548v-523c0 -98 -27.5 -176.167 -82.5 -234.5s-146.167 -97.833 -273.5 -118.5l-19 111c60 10.667 105.667 25.667 137 45z" />
    <glyph glyph-name="ij" unicode="&#x133;" 
d="M250.5 783.5c17.667 -17 26.5 -38.167 26.5 -63.5c0 -26 -8.83301 -47.333 -26.5 -64s-40.5 -25 -68.5 -25c-26.667 0 -48.834 8.5 -66.501 25.5s-26.5 38.167 -26.5 63.5s8.83301 46.5 26.5 63.5s39.834 25.5 66.501 25.5c28 0 50.833 -8.5 68.5 -25.5zM523 783.5
c18 -17 27 -38.167 27 -63.5s-9 -46.5 -27 -63.5s-40.333 -25.5 -67 -25.5c-27.333 0 -49.833 8.5 -67.5 25.5s-26.5 38.167 -26.5 63.5s8.83301 46.5 26.5 63.5s40.167 25.5 67.5 25.5c26.667 0 49 -8.5 67 -25.5zM545 122c0 -67.333 -11.332 -122.833 -33.999 -166.5
s-55.5 -79 -98.5 -106s-98.833 -50.833 -167.5 -71.5l-52 117c47.333 14.667 84.666 30 111.999 46s48 37.167 62 63.5s21 60.833 21 103.5v316h-128v-316h52v-108h-277v108h69v316h-64v107h505v-409z" />
    <glyph glyph-name="Jcircumflex" unicode="&#x134;" 
d="M527 249c0 -81.333 -24.501 -145.668 -73.501 -193.001s-117.5 -71 -205.5 -71c-42.667 0 -80.167 5.33301 -112.5 16s-64.5 27 -96.5 49l62 101c24 -16 46.333 -27.333 67 -34s44.334 -10 71.001 -10c36.667 0 66.5 11.833 89.5 35.5s34.5 58.834 34.5 105.501v325h-212
v120h376v-444zM540.999 812.998l-56 -65l-133 85l-133 -85l-57 65l142 130h96z" />
    <glyph glyph-name="jcircumflex" unicode="&#x135;" 
d="M472 154c0 -75.333 -14 -137.833 -42 -187.5s-69.5 -89.334 -124.5 -119.001s-125.5 -52.834 -211.5 -69.501l-24 121c56.667 12.667 102.5 28.334 137.5 47.001s61.5 43.834 79.5 75.501s27 72.5 27 122.5v279h-190v108h348v-377zM180 676l142 139h96l141 -139l-56 -65
l-133 94l-133 -94z" />
    <glyph glyph-name="Kcommaaccent" unicode="&#x136;" 
d="M59 0v693h164v-693h-164zM417 693h172l-196 -311l215 -382h-189l-191 370zM358 -87c14.667 -14.667 21.999 -33.333 21.999 -56c0 -24 -7.66699 -51.333 -23 -82l-49 -97h-80l27 115c-21.333 18 -32 39.333 -32 64c0 22 7.5 40.5 22.5 55.5s33.833 22.5 56.5 22.5
s41.334 -7.33301 56.001 -22z" />
    <glyph glyph-name="kcommaaccent" unicode="&#x137;" 
d="M228 0h-158v742l158 17v-759zM399 296l189 -296h-180l-174 291l175 240h165zM356 -87c14.667 -14.667 21.999 -33.333 21.999 -56c0 -24 -7.66699 -51.333 -23 -82l-49 -97h-80l27 115c-21.333 18 -32 39.333 -32 64c0 22 7.5 40.5 22.5 55.5s33.833 22.5 56.5 22.5
s41.334 -7.33301 56.001 -22z" />
    <glyph glyph-name="kgreenlandic" unicode="&#x138;" 
d="M228 0h-158v531h158v-531zM398 287l190 -287h-180l-174 276l175 255h165z" />
    <glyph glyph-name="Lacute" unicode="&#x139;" 
d="M93 693h164v-563h300l-16 -130h-448v693zM312 835l-237 -84l-38 80l216 122z" />
    <glyph glyph-name="lacute" unicode="&#x13a;" 
d="M347 167c0 -39.333 22.667 -59.001 68 -59.001c24.667 0 50 5.33301 76 16l37 -106c-42.667 -23.333 -93.667 -35 -153 -35c-62 0 -108.5 17.833 -139.5 53.5s-46.5 85.834 -46.5 150.501v447h-156v108h314v-575zM394 926.999l-237 -94l-43 81l218 132z" />
    <glyph glyph-name="Lcommaaccent" unicode="&#x13b;" 
d="M93 693h164v-563h300l-16 -130h-448v693zM374 -87c14.667 -14.667 21.999 -33.333 21.999 -56c0 -24 -7.66699 -51.333 -23 -82l-49 -97h-80l27 115c-21.333 18 -32 39.333 -32 64c0 22 7.5 40.5 22.5 55.5s33.833 22.5 56.5 22.5s41.334 -7.33301 56.001 -22z" />
    <glyph glyph-name="lcommaaccent" unicode="&#x13c;" 
d="M347 167c0 -39.333 22.667 -59.001 68 -59.001c24.667 0 50 5.33301 76 16l37 -106c-42.667 -23.333 -93.667 -35 -153 -35c-62 0 -108.5 17.833 -139.5 53.5s-46.5 85.834 -46.5 150.501v447h-156v108h314v-575zM411 -87.001c14.667 -14.667 21.999 -33.333 21.999 -56
c0 -24 -7.66699 -51.333 -23 -82l-49 -97h-80l27 115c-21.333 18 -32 39.333 -32 64c0 22 7.5 40.5 22.5 55.5s33.833 22.5 56.5 22.5s41.334 -7.33301 56.001 -22z" />
    <glyph glyph-name="Lcaron" unicode="&#x13d;" 
d="M93 693h164v-563h300l-16 -130h-448v693zM488 698l-78 -232l-98 16l37 233z" />
    <glyph glyph-name="lcaron" unicode="&#x13e;" 
d="M347 167c0 -39.333 22.667 -59.001 68 -59.001c24.667 0 50 5.33301 76 16l37 -106c-42.667 -23.333 -93.667 -35 -153 -35c-62 0 -108.5 17.833 -139.5 53.5s-46.5 85.834 -46.5 150.501v447h-156v108h314v-575zM559 746.999l-78 -232l-98 16l37 233z" />
    <glyph glyph-name="Ldot" unicode="&#x13f;" 
d="M93 693h164v-563h300l-16 -130h-448v693zM533 448.5c17.333 -17 26 -38.167 26 -63.5c0 -26 -8.66699 -47.333 -26 -64s-39.666 -25 -66.999 -25s-49.833 8.5 -67.5 25.5s-26.5 38.167 -26.5 63.5s8.83301 46.5 26.5 63.5s40.167 25.5 67.5 25.5
s49.666 -8.5 66.999 -25.5z" />
    <glyph glyph-name="ldot" unicode="&#x140;" 
d="M347 167c0 -39.333 22.667 -59.001 68 -59.001c24.667 0 50 5.33301 76 16l37 -106c-42.667 -23.333 -93.667 -35 -153 -35c-62 0 -108.5 17.833 -139.5 53.5s-46.5 85.834 -46.5 150.501v447h-156v108h314v-575zM635 446.499c17.333 -17 26 -38.167 26 -63.5
c0 -26 -8.66699 -47.333 -26 -64s-39.666 -25 -66.999 -25s-49.833 8.5 -67.5 25.5s-26.5 38.167 -26.5 63.5s8.83301 46.5 26.5 63.5s40.167 25.5 67.5 25.5s49.666 -8.5 66.999 -25.5z" />
    <glyph glyph-name="Lslash" unicode="&#x141;" 
d="M572 130l-17 -130h-447v229l-46 -28l-53 87l99 61v344h164v-242l124 76l54 -85l-178 -111v-201h300z" />
    <glyph glyph-name="lslash" unicode="&#x142;" 
d="M528 18c-42.667 -23.333 -93.667 -35.001 -153 -35.001c-62 0 -108.5 17.833 -139.5 53.5s-46.5 85.834 -46.5 150.501v71l-45 -27l-55 88l100 61v254h-156v108h314v-265l65 40l56 -89l-121 -74v-187c0 -39.333 22.667 -59 68 -59c24.667 0 50 5.33301 76 16z" />
    <glyph glyph-name="Nacute" unicode="&#x143;" 
d="M167 557c6.66699 -50.667 12.333 -99.501 17 -146.501s7 -96.833 7 -149.5v-261h-139v693h205l176 -555c-16 102.667 -24 199.334 -24 290.001v265h139v-693h-199zM446.999 834.999l-237 -84l-38 80l216 122z" />
    <glyph glyph-name="nacute" unicode="&#x144;" 
d="M70 531h138l11 -61c24 26.667 49.167 46.5 75.5 59.5s56.166 19.5 89.499 19.5c46 0 81.833 -14 107.5 -42s38.5 -67 38.5 -117v-390h-158v344c0 33.333 -3.66699 56.333 -11 69s-20.666 19 -39.999 19c-16 0 -31.5 -5.16699 -46.5 -15.5s-30.5 -25.5 -46.5 -45.5v-371
h-158v531zM439 716l-237 -94l-43 81l218 132z" />
    <glyph glyph-name="Ncommaaccent" unicode="&#x145;" 
d="M167 557c6.66699 -50.667 12.333 -99.501 17 -146.501s7 -96.833 7 -149.5v-261h-139v693h205l176 -555c-16 102.667 -24 199.334 -24 290.001v265h139v-693h-199zM356.999 -87.001c14.667 -14.667 21.999 -33.333 21.999 -56c0 -24 -7.66699 -51.333 -23 -82l-49 -97
h-80l27 115c-21.333 18 -32 39.333 -32 64c0 22 7.5 40.5 22.5 55.5s33.833 22.5 56.5 22.5s41.334 -7.33301 56.001 -22z" />
    <glyph glyph-name="ncommaaccent" unicode="&#x146;" 
d="M70 531h138l11 -61c24 26.667 49.167 46.5 75.5 59.5s56.166 19.5 89.499 19.5c46 0 81.833 -14 107.5 -42s38.5 -67 38.5 -117v-390h-158v344c0 33.333 -3.66699 56.333 -11 69s-20.666 19 -39.999 19c-16 0 -31.5 -5.16699 -46.5 -15.5s-30.5 -25.5 -46.5 -45.5v-371
h-158v531zM357 -87c14.667 -14.667 21.999 -33.333 21.999 -56c0 -24 -7.66699 -51.333 -23 -82l-49 -97h-80l27 115c-21.333 18 -32 39.333 -32 64c0 22 7.5 40.5 22.5 55.5s33.833 22.5 56.5 22.5s41.334 -7.33301 56.001 -22z" />
    <glyph glyph-name="Ncaron" unicode="&#x147;" 
d="M167 557c6.66699 -50.667 12.333 -99.501 17 -146.501s7 -96.833 7 -149.5v-261h-139v693h205l176 -555c-16 102.667 -24 199.334 -24 290.001v265h139v-693h-199zM498.999 880.999l-141 -130h-96l-142 130l57 65l133 -85l133 85z" />
    <glyph glyph-name="ncaron" unicode="&#x148;" 
d="M70 531h138l11 -61c24 26.667 49.167 46.5 75.5 59.5s56.166 19.5 89.499 19.5c46 0 81.833 -14 107.5 -42s38.5 -67 38.5 -117v-390h-158v344c0 33.333 -3.66699 56.333 -11 69s-20.666 19 -39.999 19c-16 0 -31.5 -5.16699 -46.5 -15.5s-30.5 -25.5 -46.5 -45.5v-371
h-158v531zM490 751l-141 -140h-96l-142 140l57 64l133 -94l133 94z" />
    <glyph glyph-name="napostrophe" unicode="&#x149;" 
d="M114 742.5c14.667 -14.333 22.001 -32.168 22.001 -53.501c0 -12 -1.83301 -23.333 -5.5 -34s-9.83398 -24 -18.501 -40l-41 -80h-78l21 92c-20.667 17.333 -31 38 -31 62c0 20.667 7.33301 38.334 22 53.001s32.667 22 54 22c22 0 40.333 -7.16699 55 -21.5z
M90.001 530.998h137.999l11 -61c23.333 26.667 48.333 46.5 75 59.5s56.667 19.5 90 19.5c45.333 0 81 -14 107 -42s39 -67 39 -117v-390h-158v344c0 32.667 -3.66699 55.5 -11 68.5s-20.666 19.5 -39.999 19.5c-30.667 0 -61.667 -20.333 -93 -61v-371h-158v531z" />
    <glyph glyph-name="Eng" unicode="&#x14a;" 
d="M548 693l-0.00195312 -720.001c0 -64.667 -17.5 -114.334 -52.5 -149.001s-84.167 -52 -147.5 -52c-28.667 0 -53.667 3.83301 -75 11.5s-41.666 18.834 -60.999 33.501l60 92c13.333 -6 23.833 -10.333 31.5 -13s17.167 -4 28.5 -4c17.333 0 30.333 5.16699 39 15.5
s13 27.5 13 51.5v41h-35l-182 557c6.66699 -50.667 12.334 -99.5 17.001 -146.5s7 -96.833 7 -149.5v-261h-139v693h205l176 -555c-16 102.667 -24 199.334 -24 290.001v265h139z" />
    <glyph glyph-name="eng" unicode="&#x14b;" 
d="M505 -76c-16.667 -35.333 -39.833 -63.5 -69.5 -84.5s-68.5 -41.5 -116.5 -61.5l-56 116c26 11.333 46.5 22.833 61.5 34.5s26.667 27.167 35 46.5s12.5 44.333 12.5 75v294c0 33.333 -3.5 56.333 -10.5 69s-20.5 19 -40.5 19c-16 0 -31.5 -5.5 -46.5 -16.5
s-30.5 -27.167 -46.5 -48.5v-367h-158v531h138l11 -61c46.667 52.667 101.667 79 165 79c46.667 0 82.667 -13.833 108 -41.5s38 -66.834 38 -117.501v-330c0 -55.333 -8.33301 -100.666 -25 -135.999z" />
    <glyph glyph-name="Omacron" unicode="&#x14c;" 
d="M505.5 80.5c-47.667 -65 -116.167 -97.5 -205.5 -97.5c-90 0 -158.667 32.167 -206 96.5s-71 153.5 -71 267.5c0 112.667 23.833 201.5 71.5 266.5s116.167 97.5 205.5 97.5c90 0 158.667 -32.167 206 -96.5s71 -153.5 71 -267.5c0 -112.667 -23.833 -201.5 -71.5 -266.5
zM383.5 533c-17 38.667 -44.833 58 -83.5 58s-66.5 -19.333 -83.5 -58s-25.5 -100.667 -25.5 -186s8.5 -147.333 25.5 -186s44.833 -58 83.5 -58c39.333 0 67.333 19.333 84 58s25 100.667 25 186s-8.5 147.333 -25.5 186zM147 782v110h305v-110h-305z" />
    <glyph glyph-name="omacron" unicode="&#x14d;" 
d="M489.5 472.5c45.667 -51 68.4971 -119.5 68.4971 -205.5c0 -89.333 -22.667 -159 -68 -209s-108.666 -75 -189.999 -75s-144.666 24.833 -189.999 74.5s-68 119.167 -68 208.5c0 56.667 10.167 106.167 30.5 148.5s50 75.333 89 99s85.167 35.5 138.5 35.5
c80.667 0 143.834 -25.5 189.501 -76.5zM227.997 392.5c-15.333 -26.333 -23 -68.5 -23 -126.5c0 -58.667 7.66699 -101.167 23 -127.5s39.333 -39.5 72 -39.5s56.667 13.333 72 40s23 69.334 23 128.001c0 57.333 -7.66699 99.166 -23 125.499s-39.333 39.5 -72 39.5
s-56.667 -13.167 -72 -39.5zM146.997 658v109h306v-109h-306z" />
    <glyph glyph-name="Obreve" unicode="&#x14e;" 
d="M505.5 80.5c-47.667 -65 -116.167 -97.5 -205.5 -97.5c-90 0 -158.667 32.167 -206 96.5s-71 153.5 -71 267.5c0 112.667 23.833 201.5 71.5 266.5s116.167 97.5 205.5 97.5c90 0 158.667 -32.167 206 -96.5s71 -153.5 71 -267.5c0 -112.667 -23.833 -201.5 -71.5 -266.5
zM383.5 533c-17 38.667 -44.833 58 -83.5 58s-66.5 -19.333 -83.5 -58s-25.5 -100.667 -25.5 -186s8.5 -147.333 25.5 -186s44.833 -58 83.5 -58c39.333 0 67.333 19.333 84 58s25 100.667 25 186s-8.5 147.333 -25.5 186zM179 793.5
c-28.667 28.333 -45.665 65.5 -50.998 111.5l87 16c6.66699 -20.667 16.667 -35.834 30 -45.501s31.666 -14.5 54.999 -14.5s41.666 4.83301 54.999 14.5s23.333 24.834 30 45.501l87 -16c-4.66699 -45.333 -21.5 -82.333 -50.5 -111s-69.5 -43 -121.5 -43
s-92.333 14.167 -121 42.5z" />
    <glyph glyph-name="obreve" unicode="&#x14f;" 
d="M489.5 472.5c45.667 -51 68.4971 -119.5 68.4971 -205.5c0 -89.333 -22.667 -159 -68 -209s-108.666 -75 -189.999 -75s-144.666 24.833 -189.999 74.5s-68 119.167 -68 208.5c0 56.667 10.167 106.167 30.5 148.5s50 75.333 89 99s85.167 35.5 138.5 35.5
c80.667 0 143.834 -25.5 189.501 -76.5zM227.997 392.5c-15.333 -26.333 -23 -68.5 -23 -126.5c0 -58.667 7.66699 -101.167 23 -127.5s39.333 -39.5 72 -39.5s56.667 13.333 72 40s23 69.334 23 128.001c0 57.333 -7.66699 99.166 -23 125.499s-39.333 39.5 -72 39.5
s-56.667 -13.167 -72 -39.5zM178.497 662.5c-29 33.667 -45.834 74.833 -50.501 123.5l87 15c6 -25.333 16.167 -45.166 30.5 -59.499s32.5 -21.5 54.5 -21.5s40.167 7.16699 54.5 21.5s24.5 34.166 30.5 59.499l87 -15c-4.66699 -48 -21.667 -89 -51 -123
s-69.666 -51 -120.999 -51c-52 0 -92.5 16.833 -121.5 50.5z" />
    <glyph glyph-name="Ohungarumlaut" unicode="&#x150;" 
d="M505.5 80.5c-47.667 -65 -116.167 -97.5 -205.5 -97.5c-90 0 -158.667 32.167 -206 96.5s-71 153.5 -71 267.5c0 112.667 23.833 201.5 71.5 266.5s116.167 97.5 205.5 97.5c90 0 158.667 -32.167 206 -96.5s71 -153.5 71 -267.5c0 -112.667 -23.833 -201.5 -71.5 -266.5
zM383.5 533c-17 38.667 -44.833 58 -83.5 58s-66.5 -19.333 -83.5 -58s-25.5 -100.667 -25.5 -186s8.5 -147.333 25.5 -186s44.833 -58 83.5 -58c39.333 0 67.333 19.333 84 58s25 100.667 25 186s-8.5 147.333 -25.5 186zM258 982l107 -49l-124 -183l-83 36zM422 982
l106 -51l-125 -182l-81 39z" />
    <glyph glyph-name="ohungarumlaut" unicode="&#x151;" 
d="M489.5 472.5c45.667 -51 68.4971 -119.5 68.4971 -205.5c0 -89.333 -22.667 -159 -68 -209s-108.666 -75 -189.999 -75s-144.666 24.833 -189.999 74.5s-68 119.167 -68 208.5c0 56.667 10.167 106.167 30.5 148.5s50 75.333 89 99s85.167 35.5 138.5 35.5
c80.667 0 143.834 -25.5 189.501 -76.5zM227.997 392.5c-15.333 -26.333 -23 -68.5 -23 -126.5c0 -58.667 7.66699 -101.167 23 -127.5s39.333 -39.5 72 -39.5s56.667 13.333 72 40s23 69.334 23 128.001c0 57.333 -7.66699 99.166 -23 125.499s-39.333 39.5 -72 39.5
s-56.667 -13.167 -72 -39.5zM258.997 857l107 -49l-124 -183l-82 36zM422.997 857l106 -51l-125 -182l-81 39z" />
    <glyph glyph-name="OE" unicode="&#x152;" 
d="M271 706.5c14 -3 30.333 -7.5 49 -13.5h276l-16 -111h-182c22 -44 35 -102.667 39 -176h121v-110h-120c-4 -74 -19 -135.667 -45 -185h204v-111h-281c-18.667 -6 -34.5 -10.333 -47.5 -13s-27.5 -4 -43.5 -4c-74.667 0 -129.167 30.833 -163.5 92.5
s-51.5 152.167 -51.5 271.5c0 242.667 71.667 364 215 364c16.667 0 32 -1.5 46 -4.5zM179.5 574c-11 -16.667 -18.834 -43 -23.501 -79s-7 -85.333 -7 -148c0 -91.333 5.83301 -156.333 17.5 -195s31.5 -58 59.5 -58c28.667 0 48.834 19.167 60.501 57.5
s17.5 103.5 17.5 195.5c0 64 -2.33301 114 -7 150s-12.667 62 -24 78s-27 24 -47 24s-35.5 -8.33301 -46.5 -25z" />
    <glyph glyph-name="oe" unicode="&#x153;" 
d="M567 481c26 -45.333 39.002 -113.668 39.002 -205.001c0 -17.333 -1 -34 -3 -50h-234c4 -48 13.667 -83.167 29 -105.5s36.666 -33.5 63.999 -33.5c14.667 0 28.5 2.5 41.5 7.5s27.167 13.167 42.5 24.5l60 -79c-44.667 -38 -95.334 -57 -152.001 -57
c-68 0 -118.667 26.667 -152 80c-12.667 -26 -29 -45.833 -49 -59.5s-45.667 -20.5 -77 -20.5c-62 0 -108.167 24.333 -138.5 73s-45.5 118.667 -45.5 210c0 88 15.167 157.167 45.5 207.5s76.5 75.5 138.5 75.5c32.667 0 59.167 -7.16699 79.5 -21.5
s36.833 -35.166 49.5 -62.499c30 56 74.333 84 133 84c60 0 103 -22.667 129 -68zM387.002 418.998c-10 -20.667 -16.334 -56.333 -19.001 -107h119c-0.666992 50 -4.66699 85.5 -12 106.5s-21.666 31.5 -42.999 31.5c-20 0 -35 -10.333 -45 -31zM136.001 394.499
c-8.66699 -25 -13.002 -67.833 -13.002 -128.5c0 -42.667 1.83301 -76 5.5 -100s9.83398 -41.167 18.501 -51.5s20.334 -15.5 35.001 -15.5s26.167 5.16699 34.5 15.5s14.5 27.5 18.5 51.5s6 57.667 6 101c0 60 -4.5 102.5 -13.5 127.5s-24.167 37.5 -45.5 37.5
c-22 0 -37.333 -12.5 -46 -37.5z" />
    <glyph glyph-name="Racute" unicode="&#x154;" 
d="M523.5 364.5c-25 -31.667 -58.499 -55.832 -100.499 -72.499l181 -292h-186l-150 265h-46v-265h-164v693h218c95.333 0 166.666 -17.333 213.999 -52s71 -87.667 71 -159c0 -46.667 -12.5 -85.834 -37.5 -117.501zM363.501 555.002
c-19 15.333 -48.167 23.001 -87.5 23.001h-54v-200h61c36 0 63.167 8.33301 81.5 25s27.5 43 27.5 79c0 33.333 -9.5 57.666 -28.5 72.999zM437.001 835.003l-237 -84l-38 80l216 122z" />
    <glyph glyph-name="racute" unicode="&#x155;" 
d="M563 531l-28.998 -221.998h-100v98c-29.333 -5.33301 -55.333 -21.333 -78 -48s-40.334 -60.334 -53.001 -101.001v-152h105v-106h-333v106h70v320h-70v105h191l28 -119c19.333 45.333 43.666 79.166 72.999 101.499s65.333 33.5 108 33.5c32 0 61.333 -5.33301 88 -16z
M463.002 716.002l-237 -94l-43 81l218 132z" />
    <glyph glyph-name="Rcommaaccent" unicode="&#x156;" 
d="M523.5 364.5c-25 -31.667 -58.499 -55.832 -100.499 -72.499l181 -292h-186l-150 265h-46v-265h-164v693h218c95.333 0 166.666 -17.333 213.999 -52s71 -87.667 71 -159c0 -46.667 -12.5 -85.834 -37.5 -117.501zM363.501 555.002
c-19 15.333 -48.167 23.001 -87.5 23.001h-54v-200h61c36 0 63.167 8.33301 81.5 25s27.5 43 27.5 79c0 33.333 -9.5 57.666 -28.5 72.999zM367.001 -86.9971c14.667 -14.667 21.999 -33.333 21.999 -56c0 -24 -7.66699 -51.333 -23 -82l-49 -97h-80l27 115
c-21.333 18 -32 39.333 -32 64c0 22 7.5 40.5 22.5 55.5s33.833 22.5 56.5 22.5s41.334 -7.33301 56.001 -22z" />
    <glyph glyph-name="rcommaaccent" unicode="&#x157;" 
d="M563 531l-28.998 -221.998h-100v98c-29.333 -5.33301 -55.333 -21.333 -78 -48s-40.334 -60.334 -53.001 -101.001v-152h105v-106h-333v106h70v320h-70v105h191l28 -119c19.333 45.333 43.666 79.166 72.999 101.499s65.333 33.5 108 33.5c32 0 61.333 -5.33301 88 -16z
M280.002 -86.998c14.667 -14.667 21.999 -33.333 21.999 -56c0 -24 -7.66699 -51.333 -23 -82l-49 -97h-80l27 115c-21.333 18 -32 39.333 -32 64c0 22 7.5 40.5 22.5 55.5s33.833 22.5 56.5 22.5s41.334 -7.33301 56.001 -22z" />
    <glyph glyph-name="Rcaron" unicode="&#x158;" 
d="M523.5 364.5c-25 -31.667 -58.499 -55.832 -100.499 -72.499l181 -292h-186l-150 265h-46v-265h-164v693h218c95.333 0 166.666 -17.333 213.999 -52s71 -87.667 71 -159c0 -46.667 -12.5 -85.834 -37.5 -117.501zM363.501 555.002
c-19 15.333 -48.167 23.001 -87.5 23.001h-54v-200h61c36 0 63.167 8.33301 81.5 25s27.5 43 27.5 79c0 33.333 -9.5 57.666 -28.5 72.999zM489.001 881.003l-141 -130h-96l-142 130l57 65l133 -85l133 85z" />
    <glyph glyph-name="rcaron" unicode="&#x159;" 
d="M563 531l-28.998 -221.998h-100v98c-29.333 -5.33301 -55.333 -21.333 -78 -48s-40.334 -60.334 -53.001 -101.001v-152h105v-106h-333v106h70v320h-70v105h191l28 -119c19.333 45.333 43.666 79.166 72.999 101.499s65.333 33.5 108 33.5c32 0 61.333 -5.33301 88 -16z
M514.002 751.002l-141 -140h-96l-142 140l57 64l133 -94l133 94z" />
    <glyph glyph-name="Sacute" unicode="&#x15a;" 
d="M534 88c-22.667 -33.333 -55.167 -59.167 -97.5 -77.5s-92.5 -27.5 -150.5 -27.5c-114.667 0 -206 33.333 -274 100l83 92c52.667 -46.667 115 -70 187 -70c34.667 0 62.5 7.5 83.5 22.5s31.5 35.833 31.5 62.5c0 25.333 -8.83301 45.166 -26.5 59.499
s-50.5 28.833 -98.5 43.5c-81.333 24.667 -139 53.667 -173 87s-51 76.333 -51 129c0 41.333 11.5 77.333 34.5 108s54.333 54 94 70s83.834 24 132.501 24c102 0 184.667 -30 248 -90l-77 -89c-23.333 19.333 -48.5 33.833 -75.5 43.5s-54.833 14.5 -83.5 14.5
c-32 0 -57.167 -5.83301 -75.5 -17.5s-27.5 -28.5 -27.5 -50.5c0 -14.667 4.16699 -27 12.5 -37s22.166 -19.333 41.499 -28s48.333 -19 87 -31c70.667 -21.333 123.167 -48.833 157.5 -82.5s51.5 -80.5 51.5 -140.5c0 -43.333 -11.333 -81.666 -34 -114.999zM447 834.999
l-237 -84l-38 80l216 122z" />
    <glyph glyph-name="sacute" unicode="&#x15b;" 
d="M347.5 108.5c15.667 8.33301 23.5 20.8311 23.5 37.498c0 12 -3.16699 21.667 -9.5 29s-18.166 14.5 -35.499 21.5s-44.333 15.5 -81 25.5c-53.333 14 -94 33.5 -122 58.5s-42 59.5 -42 103.5c0 48.667 20.167 88.334 60.5 119.001s96.833 46 169.5 46
c84 0 155.667 -21.667 215 -65l-63 -93c-48.667 30 -97.667 45 -147 45c-26 0 -45.167 -3.33301 -57.5 -10s-18.5 -17 -18.5 -31c0 -9.33301 3.16699 -17.166 9.5 -23.499s18.333 -12.833 36 -19.5s44.167 -15 79.5 -25c38 -10.667 69.167 -22.334 93.5 -35.001
s43.166 -29.667 56.499 -51s20 -48.666 20 -81.999c0 -37.333 -11.333 -69.333 -34 -96s-53 -46.667 -91 -60s-80 -20 -126 -20c-49.333 0 -94 7 -134 21s-74 33.667 -102 59l79 89c48 -37.333 100 -56 156 -56c27.333 0 48.833 4.16699 64.5 12.5zM451 715.998l-237 -94
l-43 81l218 132z" />
    <glyph glyph-name="Scircumflex" unicode="&#x15c;" 
d="M534 88c-22.667 -33.333 -55.167 -59.167 -97.5 -77.5s-92.5 -27.5 -150.5 -27.5c-114.667 0 -206 33.333 -274 100l83 92c52.667 -46.667 115 -70 187 -70c34.667 0 62.5 7.5 83.5 22.5s31.5 35.833 31.5 62.5c0 25.333 -8.83301 45.166 -26.5 59.499
s-50.5 28.833 -98.5 43.5c-81.333 24.667 -139 53.667 -173 87s-51 76.333 -51 129c0 41.333 11.5 77.333 34.5 108s54.333 54 94 70s83.834 24 132.501 24c102 0 184.667 -30 248 -90l-77 -89c-23.333 19.333 -48.5 33.833 -75.5 43.5s-54.833 14.5 -83.5 14.5
c-32 0 -57.167 -5.83301 -75.5 -17.5s-27.5 -28.5 -27.5 -50.5c0 -14.667 4.16699 -27 12.5 -37s22.166 -19.333 41.499 -28s48.333 -19 87 -31c70.667 -21.333 123.167 -48.833 157.5 -82.5s51.5 -80.5 51.5 -140.5c0 -43.333 -11.333 -81.666 -34 -114.999zM499 812.999
l-56 -65l-133 85l-133 -85l-57 65l142 130h96z" />
    <glyph glyph-name="scircumflex" unicode="&#x15d;" 
d="M347.5 108.5c15.667 8.33301 23.5 20.8311 23.5 37.498c0 12 -3.16699 21.667 -9.5 29s-18.166 14.5 -35.499 21.5s-44.333 15.5 -81 25.5c-53.333 14 -94 33.5 -122 58.5s-42 59.5 -42 103.5c0 48.667 20.167 88.334 60.5 119.001s96.833 46 169.5 46
c84 0 155.667 -21.667 215 -65l-63 -93c-48.667 30 -97.667 45 -147 45c-26 0 -45.167 -3.33301 -57.5 -10s-18.5 -17 -18.5 -31c0 -9.33301 3.16699 -17.166 9.5 -23.499s18.333 -12.833 36 -19.5s44.167 -15 79.5 -25c38 -10.667 69.167 -22.334 93.5 -35.001
s43.166 -29.667 56.499 -51s20 -48.666 20 -81.999c0 -37.333 -11.333 -69.333 -34 -96s-53 -46.667 -91 -60s-80 -20 -126 -20c-49.333 0 -94 7 -134 21s-74 33.667 -102 59l79 89c48 -37.333 100 -56 156 -56c27.333 0 48.833 4.16699 64.5 12.5zM123 675.998l142 139h96
l141 -139l-56 -65l-133 94l-133 -94z" />
    <glyph glyph-name="Scedilla" unicode="&#x15e;" 
d="M505 54c-42 -39.333 -100.334 -62.335 -175.001 -69.002v-33c34 -4 59.667 -14.667 77 -32s26 -39.666 26 -66.999c0 -34 -13.667 -61.667 -41 -83s-63.333 -32 -108 -32c-22.667 0 -44.167 2.83301 -64.5 8.5s-37.833 12.834 -52.5 21.501l36 73
c22.667 -11.333 44 -17 64 -17c35.333 0 53 10.333 53 31c0 12.667 -7.33301 21.334 -22 26.001s-38 7 -70 7l10 97c-93.333 8 -168.666 40.667 -225.999 98l83 92c52.667 -46.667 115 -70 187 -70c34.667 0 62.5 7.5 83.5 22.5s31.5 35.833 31.5 62.5
c0 25.333 -8.83301 45.166 -26.5 59.499s-50.5 28.833 -98.5 43.5c-81.333 24.667 -139 53.667 -173 87s-51 76.333 -51 129c0 41.333 11.5 77.333 34.5 108s54.333 54 94 70s83.834 24 132.501 24c102 0 184.667 -30 248 -90l-77 -89
c-23.333 19.333 -48.5 33.833 -75.5 43.5s-54.833 14.5 -83.5 14.5c-32 0 -57.167 -5.83301 -75.5 -17.5s-27.5 -28.5 -27.5 -50.5c0 -14.667 4.16699 -27 12.5 -37s22.166 -19.333 41.499 -28s48.333 -19 87 -31c70.667 -21.333 123.167 -48.833 157.5 -82.5
s51.5 -80.5 51.5 -140.5s-21 -109.667 -63 -149z" />
    <glyph glyph-name="scedilla" unicode="&#x15f;" 
d="M478 40c-38 -30 -87 -48.0049 -147 -54.0049v-34c34 -4 59.667 -14.667 77 -32s26 -39.666 26 -66.999c0 -34 -13.667 -61.667 -41 -83s-63.333 -32 -108 -32c-22.667 0 -44.167 2.83301 -64.5 8.5s-37.833 12.834 -52.5 21.501l36 73c22.667 -11.333 44 -17 64 -17
c35.333 0 53 10.333 53 31c0 12.667 -7.33301 21.334 -22 26.001s-38 7 -70 7l11 97c-78 7.33301 -142 33.333 -192 78l79 89c48 -37.333 100 -56 156 -56c27.333 0 48.833 4.16699 64.5 12.5s23.5 20.833 23.5 37.5c0 12 -3.16699 21.667 -9.5 29
s-18.166 14.5 -35.499 21.5s-44.333 15.5 -81 25.5c-53.333 14 -94 33.5 -122 58.5s-42 59.5 -42 103.5c0 48.667 20.167 88.334 60.5 119.001s96.833 46 169.5 46c84 0 155.667 -21.667 215 -65l-63 -93c-48.667 30 -97.667 45 -147 45c-26 0 -45.167 -3.33301 -57.5 -10
s-18.5 -17 -18.5 -31c0 -9.33301 3.16699 -17.166 9.5 -23.499s18.333 -12.833 36 -19.5s44.167 -15 79.5 -25c38 -10.667 69.167 -22.334 93.5 -35.001s43.166 -29.667 56.499 -51s20 -48.666 20 -81.999c0 -49.333 -19 -89 -57 -119z" />
    <glyph glyph-name="Scaron" unicode="&#x160;" 
d="M534 88c-22.667 -33.333 -55.167 -59.167 -97.5 -77.5s-92.5 -27.5 -150.5 -27.5c-114.667 0 -206 33.333 -274 100l83 92c52.667 -46.667 115 -70 187 -70c34.667 0 62.5 7.5 83.5 22.5s31.5 35.833 31.5 62.5c0 25.333 -8.83301 45.166 -26.5 59.499
s-50.5 28.833 -98.5 43.5c-81.333 24.667 -139 53.667 -173 87s-51 76.333 -51 129c0 41.333 11.5 77.333 34.5 108s54.333 54 94 70s83.834 24 132.501 24c102 0 184.667 -30 248 -90l-77 -89c-23.333 19.333 -48.5 33.833 -75.5 43.5s-54.833 14.5 -83.5 14.5
c-32 0 -57.167 -5.83301 -75.5 -17.5s-27.5 -28.5 -27.5 -50.5c0 -14.667 4.16699 -27 12.5 -37s22.166 -19.333 41.499 -28s48.333 -19 87 -31c70.667 -21.333 123.167 -48.833 157.5 -82.5s51.5 -80.5 51.5 -140.5c0 -43.333 -11.333 -81.666 -34 -114.999zM499 880.999
l-141 -130h-96l-142 130l57 65l133 -85l133 85z" />
    <glyph glyph-name="scaron" unicode="&#x161;" 
d="M347.5 108.5c15.667 8.33301 23.5 20.8311 23.5 37.498c0 12 -3.16699 21.667 -9.5 29s-18.166 14.5 -35.499 21.5s-44.333 15.5 -81 25.5c-53.333 14 -94 33.5 -122 58.5s-42 59.5 -42 103.5c0 48.667 20.167 88.334 60.5 119.001s96.833 46 169.5 46
c84 0 155.667 -21.667 215 -65l-63 -93c-48.667 30 -97.667 45 -147 45c-26 0 -45.167 -3.33301 -57.5 -10s-18.5 -17 -18.5 -31c0 -9.33301 3.16699 -17.166 9.5 -23.499s18.333 -12.833 36 -19.5s44.167 -15 79.5 -25c38 -10.667 69.167 -22.334 93.5 -35.001
s43.166 -29.667 56.499 -51s20 -48.666 20 -81.999c0 -37.333 -11.333 -69.333 -34 -96s-53 -46.667 -91 -60s-80 -20 -126 -20c-49.333 0 -94 7 -134 21s-74 33.667 -102 59l79 89c48 -37.333 100 -56 156 -56c27.333 0 48.833 4.16699 64.5 12.5zM502 750.998l-141 -140
h-96l-142 140l57 64l133 -94l133 94z" />
    <glyph glyph-name="uni0162" unicode="&#x162;" 
d="M347 0l0.00195312 -48.0029c34 -4 59.667 -14.667 77 -32s26 -39.666 26 -66.999c0 -34 -13.667 -61.667 -41 -83s-63.333 -32 -108 -32c-22.667 0 -44.334 2.83301 -65.001 8.5s-38.334 12.834 -53.001 21.501l37 73c22.667 -11.333 44 -17 64 -17
c34.667 0 52 10.333 52 31c0 12.667 -7.33301 21.334 -22 26.001s-38 7 -70 7l12 112h-39v567h-195v126h561l-16 -126h-186v-567h-34z" />
    <glyph glyph-name="uni0163" unicode="&#x163;" 
d="M467 -80c17.333 -17.333 26 -39.668 26 -67.001c0 -34 -13.667 -61.667 -41 -83s-63.333 -32 -108 -32c-22.667 0 -44.167 2.83301 -64.5 8.5s-37.833 12.834 -52.5 21.501l36 73c22.667 -11.333 44 -17 64 -17c35.333 0 53 10.333 53 31
c0 12.667 -7.33301 21.334 -22 26.001s-38 7 -70 7l11 104c-43.333 11.333 -75.833 33.166 -97.5 65.499s-32.5 73.5 -32.5 123.5v241h-111v109h111v115l158 19v-134h171l-16 -109h-155v-241c0 -26 6 -44.667 18 -56s31.333 -17 58 -17c33.333 0 64.333 8 93 24l52 -101
c-46 -29.333 -98.667 -45.333 -158 -48v-31c34 -4 59.667 -14.667 77 -32z" />
    <glyph glyph-name="Tcaron" unicode="&#x164;" 
d="M381 0h-164v567h-195v126h561l-16 -126h-186v-567zM488 881l-141 -130h-96l-142 130l57 65l133 -85l133 85z" />
    <glyph glyph-name="tcaron" unicode="&#x165;" 
d="M374 -17c-68 0 -119.167 17.332 -153.5 51.999s-51.5 83.334 -51.5 146.001v241h-111v109h111v115l158 19v-134h171l-16 -109h-155v-241c0 -26 6 -44.667 18 -56s31.333 -17 58 -17c33.333 0 64.333 8 93 24l52 -101c-50 -32 -108 -48 -174 -48zM536 814.999l-78 -232
l-98 16l37 233z" />
    <glyph glyph-name="Tbar" unicode="&#x166;" 
d="M381 567v-161h117v-92h-117v-314h-164v314h-116v92h116v161h-195v126h561l-16 -126h-186z" />
    <glyph glyph-name="tbar" unicode="&#x167;" 
d="M548 31c-50 -32 -108 -48.001 -174 -48.001c-68 0 -119.167 17.333 -153.5 52s-51.5 83.334 -51.5 146.001v81h-99v99h99v61h-111v109h111v115l158 19v-134h171l-16 -109h-155v-61h154v-99h-154v-81c0 -26 6 -44.667 18 -56s31.333 -17 58 -17c33.333 0 64.333 8 93 24z
" />
    <glyph glyph-name="Utilde" unicode="&#x168;" 
d="M558 232c0 -48 -9.66895 -90.834 -29.002 -128.501s-48.333 -67.167 -87 -88.5s-86 -32 -142 -32c-84 0 -148 22.333 -192 67s-66 105.334 -66 182.001v461h165v-400c0 -44.667 2.33301 -80.334 7 -107.001s13.834 -46.834 27.501 -60.501s33.167 -20.5 58.5 -20.5
s44.833 6.83301 58.5 20.5s22.834 33.834 27.501 60.501s7 62.334 7 107.001v400h165v-461zM317.998 766.999c-10.667 4.66699 -22.3311 11.333 -34.998 20c-16.667 12 -30.334 18 -41.001 18c-12 0 -21.667 -3.33301 -29 -10s-15.333 -18 -24 -34l-79 38
c14 35.333 31.833 63.833 53.5 85.5s46.834 32.5 75.501 32.5c15.333 0 28.5 -2.33301 39.5 -7s22.833 -11.334 35.5 -20.001c8.66699 -6 16 -10.5 22 -13.5s12.333 -4.5 19 -4.5c10.667 0 19.667 3.33301 27 10s15.666 17.667 24.999 33l79 -38
c-14 -35.333 -32.167 -63.666 -54.5 -84.999s-47.5 -32 -75.5 -32c-14.667 0 -27.334 2.33301 -38.001 7z" />
    <glyph glyph-name="utilde" unicode="&#x169;" 
d="M228 168c0 -24.667 4.49805 -42.167 13.498 -52.5s22.5 -15.5 40.5 -15.5c16 0 32.333 5.16699 49 15.5s30.334 24.5 41.001 42.5v373h158v-531h-138l-7 62c-17.333 -25.333 -40.666 -44.833 -69.999 -58.5s-60.333 -20.5 -93 -20.5c-50 0 -87.833 14.5 -113.5 43.5
s-38.5 69.5 -38.5 121.5v383h158v-363zM317.998 642c-10.667 4.66699 -22.3311 11.333 -34.998 20c-16.667 12 -30.334 18 -41.001 18c-12 0 -21.667 -3.33301 -29 -10s-15.333 -18 -24 -34l-79 38c14 35.333 31.833 63.833 53.5 85.5s46.834 32.5 75.501 32.5
c15.333 0 28.5 -2.33301 39.5 -7s22.833 -11.334 35.5 -20.001c8.66699 -6 16 -10.5 22 -13.5s12.333 -4.5 19 -4.5c10.667 0 19.667 3.33301 27 10s15.666 17.667 24.999 33l79 -38c-14 -35.333 -32 -63.666 -54 -84.999s-47.333 -32 -76 -32
c-14.667 0 -27.334 2.33301 -38.001 7z" />
    <glyph glyph-name="Umacron" unicode="&#x16a;" 
d="M558 232c0 -48 -9.66895 -90.834 -29.002 -128.501s-48.333 -67.167 -87 -88.5s-86 -32 -142 -32c-84 0 -148 22.333 -192 67s-66 105.334 -66 182.001v461h165v-400c0 -44.667 2.33301 -80.334 7 -107.001s13.834 -46.834 27.501 -60.501s33.167 -20.5 58.5 -20.5
s44.833 6.83301 58.5 20.5s22.834 33.834 27.501 60.501s7 62.334 7 107.001v400h165v-461zM146.998 781.999v110h305v-110h-305z" />
    <glyph glyph-name="umacron" unicode="&#x16b;" 
d="M228 168c0 -24.667 4.49805 -42.167 13.498 -52.5s22.5 -15.5 40.5 -15.5c16 0 32.333 5.16699 49 15.5s30.334 24.5 41.001 42.5v373h158v-531h-138l-7 62c-17.333 -25.333 -40.666 -44.833 -69.999 -58.5s-60.333 -20.5 -93 -20.5c-50 0 -87.833 14.5 -113.5 43.5
s-38.5 69.5 -38.5 121.5v383h158v-363zM146.998 658v109h306v-109h-306z" />
    <glyph glyph-name="Ubreve" unicode="&#x16c;" 
d="M558 232c0 -48 -9.66895 -90.834 -29.002 -128.501s-48.333 -67.167 -87 -88.5s-86 -32 -142 -32c-84 0 -148 22.333 -192 67s-66 105.334 -66 182.001v461h165v-400c0 -44.667 2.33301 -80.334 7 -107.001s13.834 -46.834 27.501 -60.501s33.167 -20.5 58.5 -20.5
s44.833 6.83301 58.5 20.5s22.834 33.834 27.501 60.501s7 62.334 7 107.001v400h165v-461zM178.998 793.499c-28.667 28.333 -45.665 65.5 -50.998 111.5l87 16c6.66699 -20.667 16.667 -35.834 30 -45.501s31.666 -14.5 54.999 -14.5s41.666 4.83301 54.999 14.5
s23.333 24.834 30 45.501l87 -16c-4.66699 -45.333 -21.5 -82.333 -50.5 -111s-69.5 -43 -121.5 -43s-92.333 14.167 -121 42.5z" />
    <glyph glyph-name="ubreve" unicode="&#x16d;" 
d="M228 168c0 -24.667 4.49805 -42.167 13.498 -52.5s22.5 -15.5 40.5 -15.5c16 0 32.333 5.16699 49 15.5s30.334 24.5 41.001 42.5v373h158v-531h-138l-7 62c-17.333 -25.333 -40.666 -44.833 -69.999 -58.5s-60.333 -20.5 -93 -20.5c-50 0 -87.833 14.5 -113.5 43.5
s-38.5 69.5 -38.5 121.5v383h158v-363zM178.498 662.5c-29 33.667 -45.834 74.833 -50.501 123.5l87 15c6 -25.333 16.167 -45.166 30.5 -59.499s32.5 -21.5 54.5 -21.5s40.167 7.16699 54.5 21.5s24.5 34.166 30.5 59.499l87 -15c-4.66699 -48 -21.667 -89 -51 -123
s-69.666 -51 -120.999 -51c-52 0 -92.5 16.833 -121.5 50.5z" />
    <glyph glyph-name="Uring" unicode="&#x16e;" 
d="M558 232c0 -48 -9.66895 -90.834 -29.002 -128.501s-48.333 -67.167 -87 -88.5s-86 -32 -142 -32c-84 0 -148 22.333 -192 67s-66 105.334 -66 182.001v461h165v-400c0 -44.667 2.33301 -80.334 7 -107.001s13.834 -46.834 27.501 -60.501s33.167 -20.5 58.5 -20.5
s44.833 6.83301 58.5 20.5s22.834 33.834 27.501 60.501s7 62.334 7 107.001v400h165v-461zM399.998 951.999c25.333 -25.333 38 -56.333 38 -93s-12.833 -68 -38.5 -94s-59.167 -39 -100.5 -39s-74.666 13 -99.999 39s-38 57.333 -38 94s12.667 67.667 38 93
s58.666 38 99.999 38c42 0 75.667 -12.667 101 -38zM266.998 895.499c-8 -8.33301 -12 -20.5 -12 -36.5c0 -16.667 4 -29.334 12 -38.001s18.667 -13 32 -13c14 0 25 4.33301 33 13s12 21.334 12 38.001c0 16 -4 28.167 -12 36.5s-19 12.5 -33 12.5
c-13.333 0 -24 -4.16699 -32 -12.5z" />
    <glyph glyph-name="uring" unicode="&#x16f;" 
d="M228 168c0 -24.667 4.49805 -42.167 13.498 -52.5s22.5 -15.5 40.5 -15.5c16 0 32.333 5.16699 49 15.5s30.334 24.5 41.001 42.5v373h158v-531h-138l-7 62c-17.333 -25.333 -40.666 -44.833 -69.999 -58.5s-60.333 -20.5 -93 -20.5c-50 0 -87.833 14.5 -113.5 43.5
s-38.5 69.5 -38.5 121.5v383h158v-363zM399.998 827c25.333 -25.333 38.001 -56.333 38.001 -93s-12.833 -68 -38.5 -94s-59.167 -39 -100.5 -39c-27.333 0 -51.5 6 -72.5 18s-37.167 28.167 -48.5 48.5s-17 42.5 -17 66.5c0 36 12.667 66.833 38 92.5
s58.666 38.5 99.999 38.5c42 0 75.667 -12.667 101 -38zM266.999 770.5c-8 -8.33301 -12 -20.5 -12 -36.5c0 -16.667 4 -29.334 12 -38.001s18.667 -13 32 -13c14 0 25 4.33301 33 13s12 21.334 12 38.001c0 16 -4 28.167 -12 36.5s-19 12.5 -33 12.5
c-13.333 0 -24 -4.16699 -32 -12.5z" />
    <glyph glyph-name="Uhungarumlaut" unicode="&#x170;" 
d="M558 232c0 -48 -9.66895 -90.834 -29.002 -128.501s-48.333 -67.167 -87 -88.5s-86 -32 -142 -32c-84 0 -148 22.333 -192 67s-66 105.334 -66 182.001v461h165v-400c0 -44.667 2.33301 -80.334 7 -107.001s13.834 -46.834 27.501 -60.501s33.167 -20.5 58.5 -20.5
s44.833 6.83301 58.5 20.5s22.834 33.834 27.501 60.501s7 62.334 7 107.001v400h165v-461zM257.998 981.999l107 -49l-124 -183l-83 36zM421.998 981.999l106 -51l-125 -182l-81 39z" />
    <glyph glyph-name="uhungarumlaut" unicode="&#x171;" 
d="M228 168c0 -24.667 4.49805 -42.167 13.498 -52.5s22.5 -15.5 40.5 -15.5c16 0 32.333 5.16699 49 15.5s30.334 24.5 41.001 42.5v373h158v-531h-138l-7 62c-17.333 -25.333 -40.666 -44.833 -69.999 -58.5s-60.333 -20.5 -93 -20.5c-50 0 -87.833 14.5 -113.5 43.5
s-38.5 69.5 -38.5 121.5v383h158v-363zM258.998 857l107 -49l-124 -183l-82 36zM422.998 857l106 -51l-125 -182l-81 39z" />
    <glyph glyph-name="Uogonek" unicode="&#x172;" 
d="M558 693l-0.000976562 -461.001c0 -58.667 -14.333 -109 -43 -151s-70.334 -70.667 -125.001 -86c-37.333 -14.667 -63.333 -30.5 -78 -47.5s-22 -36.167 -22 -57.5c0 -16 5.16699 -28.167 15.5 -36.5s24.5 -12.5 42.5 -12.5c16 0 34 2.33301 54 7l-12 -93
c-19.333 -5.33301 -39 -8 -59 -8c-44 0 -80.167 10.833 -108.5 32.5s-42.5 51.834 -42.5 90.501c0 49.333 20.333 88.333 61 117c-65.333 10 -114.833 36.667 -148.5 80s-50.5 98.333 -50.5 165v461h165v-400c0 -44.667 2.33301 -80.334 7 -107.001
s13.834 -46.834 27.501 -60.501s33.167 -20.5 58.5 -20.5s44.833 6.83301 58.5 20.5s22.834 33.834 27.501 60.501s7 62.334 7 107.001v400h165z" />
    <glyph glyph-name="uogonek" unicode="&#x173;" 
d="M530 531l-0.00195312 -531.001c-43.333 -14.667 -73.333 -31 -90 -49s-25 -38.333 -25 -61c0 -16 5.16699 -28.167 15.5 -36.5s24.5 -12.5 42.5 -12.5c16 0 34 2.33301 54 7l-12 -93c-19.333 -5.33301 -39 -8 -59 -8c-44 0 -80.167 10.833 -108.5 32.5
s-42.5 51.834 -42.5 90.501c0 30.667 7.5 56.667 22.5 78s36.5 40 64.5 56l-7 58c-17.333 -25.333 -40.666 -44.833 -69.999 -58.5s-60.333 -20.5 -93 -20.5c-50 0 -87.833 14.5 -113.5 43.5s-38.5 69.5 -38.5 121.5v383h158v-363c0 -24.667 4.5 -42.167 13.5 -52.5
s22.5 -15.5 40.5 -15.5c16 0 32.333 5.16699 49 15.5s30.334 24.5 41.001 42.5v373h158z" />
    <glyph glyph-name="Wcircumflex" unicode="&#x174;" 
d="M522 0h-170l-51 496l-56 -496h-173l-75 693h153l24 -553l57 473h142l53 -473l34 553h143zM489 813l-56 -65l-133 85l-133 -85l-57 65l142 130h96z" />
    <glyph glyph-name="wcircumflex" unicode="&#x175;" 
d="M347 0l-46 357l-48 -357h-171l-79 531h145l35 -432l55 365h134l49 -365l36 432h140l-76 -531h-174zM110 676l142 139h96l141 -139l-56 -65l-133 94l-133 -94z" />
    <glyph glyph-name="Ycircumflex" unicode="&#x176;" 
d="M382 0h-164v259l-226 434h180l131 -298l132 298h173l-226 -433v-260zM489 813l-56 -65l-133 85l-133 -85l-57 65l142 130h96z" />
    <glyph glyph-name="ycircumflex" unicode="&#x177;" 
d="M395 0c-24 -71.333 -59.668 -125.167 -107.001 -161.5s-110.666 -56.833 -189.999 -61.5l-18 112c50.667 6.66699 88.167 18 112.5 34s43.833 41.667 58.5 77h-55l-168 531h167l103 -430l112 430h162zM109.999 675.999l142 139h96l141 -139l-56 -65l-133 94l-133 -94z
" />
    <glyph glyph-name="Ydieresis" unicode="&#x178;" 
d="M382 0h-164v259l-226 434h180l131 -298l132 298h173l-226 -433v-260zM126 785c-16 15.333 -24 34.333 -24 57s8 41.667 24 57s35.333 23 58 23c23.333 0 42.833 -7.66699 58.5 -23s23.5 -34.333 23.5 -57s-7.83301 -41.667 -23.5 -57s-35.167 -23 -58.5 -23
c-22.667 0 -42 7.66699 -58 23zM357.5 785.5c-16.333 15.667 -24.5 34.5 -24.5 56.5s8.16699 40.833 24.5 56.5s35.833 23.5 58.5 23.5c23.333 0 42.833 -7.66699 58.5 -23s23.5 -34.333 23.5 -57s-7.83301 -41.667 -23.5 -57s-35.167 -23 -58.5 -23
c-22.667 0 -42.167 7.83301 -58.5 23.5z" />
    <glyph glyph-name="Zacute" unicode="&#x179;" 
d="M562 131l-17 -131h-506v123l329 443h-293v127h479v-124l-322 -438h330zM450 835l-237 -84l-38 80l216 122z" />
    <glyph glyph-name="zacute" unicode="&#x17a;" 
d="M524 120l-15 -120h-437v112l264 300h-242v119h425v-111l-260 -300h265zM445 716l-237 -94l-43 81l218 132z" />
    <glyph glyph-name="Zdotaccent" unicode="&#x17b;" 
d="M562 131l-17 -131h-506v123l329 443h-293v127h479v-124l-322 -438h330zM379.5 908.5c17.667 -17 26.5 -38.167 26.5 -63.5s-8.83301 -46.5 -26.5 -63.5s-39.834 -25.5 -66.501 -25.5c-28 0 -50.667 8.33301 -68 25s-26 38 -26 64c0 25.333 8.83301 46.5 26.5 63.5
s40.167 25.5 67.5 25.5c26.667 0 48.834 -8.5 66.501 -25.5z" />
    <glyph glyph-name="zdotaccent" unicode="&#x17c;" 
d="M524 120l-15 -120h-437v112l264 300h-242v119h425v-111l-260 -300h265zM374 783.5c17.333 -17 26 -38.167 26 -63.5c0 -26 -8.66699 -47.333 -26 -64s-39.666 -25 -66.999 -25s-49.833 8.5 -67.5 25.5s-26.5 38.167 -26.5 63.5s8.83301 46.5 26.5 63.5
s40.167 25.5 67.5 25.5s49.666 -8.5 66.999 -25.5z" />
    <glyph glyph-name="Zcaron" unicode="&#x17d;" 
d="M562 131l-17 -131h-506v123l329 443h-293v127h479v-124l-322 -438h330zM502 881l-141 -130h-96l-142 130l57 65l133 -85l133 85z" />
    <glyph glyph-name="zcaron" unicode="&#x17e;" 
d="M524 120l-15 -120h-437v112l264 300h-242v119h425v-111l-260 -300h265zM496 751l-141 -140h-96l-142 140l57 64l133 -94l133 94z" />
    <glyph glyph-name="florin" unicode="&#x192;" 
d="M533 725l-44.001 -103c-30 13.333 -59 20 -87 20c-26.667 0 -45 -5.16699 -55 -15.5s-15 -28.5 -15 -54.5v-41h126l-18 -110h-108v-358c0 -56 -8.66699 -102.333 -26 -139s-41 -66 -71 -88s-68 -41.333 -114 -58l-55 115c26 12 46.5 23.833 61.5 35.5
s26.667 27.167 35 46.5s12.5 44.333 12.5 75v371h-82v110h82v47c0 53.333 17.5 96.833 52.5 130.5s85.167 50.5 150.5 50.5c54.667 0 106.334 -11.333 155.001 -34z" />
    <glyph glyph-name="AEacute" unicode="&#x1fc;" 
d="M173 153l-28 -153h-157l175 693h402l-17 -111h-182l33 -176h157v-110h-137l36 -185h148v-111h-265l-25 153h-140zM296 265l-51 318l-54 -318h105zM488 835l-237 -84l-38 80l216 122z" />
    <glyph glyph-name="aeacute" unicode="&#x1fd;" 
d="M559.5 480.5c27 -45.667 40.501 -113.834 40.501 -204.501c0 -17.333 -1 -34 -3 -50h-241c8.66699 -92.667 41 -139 97 -139c15.333 0 29.833 2.66699 43.5 8s28.167 13.333 43.5 24l60 -79c-44.667 -38 -96.667 -57 -156 -57c-70.667 0 -124 28 -160 84
c-20 -30 -40.333 -51.5 -61 -64.5s-47.334 -19.5 -80.001 -19.5c-46 0 -82.333 15.667 -109 47s-40 72 -40 122c0 57.333 16.667 100.833 50 130.5s84 44.5 152 44.5h41v23c0 67.333 -29.667 101 -89 101c-16 0 -30.5 -1.83301 -43.5 -5.5s-29.5 -10.167 -49.5 -19.5l-36 87
c28 12.667 53 21.834 75 27.501s45.333 8.5 70 8.5c34.667 0 63 -6.16699 85 -18.5s39.667 -29.833 53 -52.5c12.667 22 29.5 39.333 50.5 52s46.167 19 75.5 19c60.667 0 104.5 -22.833 131.5 -68.5zM375.501 419c-10.333 -20.667 -16.833 -56.332 -19.5 -106.999h125
c-0.666992 49.333 -5 84.666 -13 105.999s-23.333 32 -46 32c-20.667 0 -36.167 -10.333 -46.5 -31zM216.001 242.002c-32 0 -54.999 -6.99902 -68.999 -20.999s-21 -34.667 -21 -62c0 -23.333 4 -41.333 12 -54s19.333 -19 34 -19c13.333 0 25.666 5 36.999 15
s22.333 25.667 33 47c-3.33301 33.333 -5 64.666 -5 93.999h-21zM440.002 716.003l-237 -94l-43 81l218 132z" />
    <glyph glyph-name="Oslashacute" unicode="&#x1fe;" 
d="M546 535.5c20.667 -53.667 31 -116.5 31 -188.5c0 -112.667 -23.833 -201.5 -71.5 -266.5s-116.167 -97.5 -205.5 -97.5c-16.667 0 -34 1.66699 -52 5l-28 -97l-111 33l34 110c-38.667 30 -68.334 71.833 -89.001 125.5s-31 116.167 -31 187.5
c0 112.667 23.833 201.5 71.5 266.5s116.167 97.5 205.5 97.5c16 0 33 -1.66699 51 -5l29 97l111 -33l-34 -110c38.667 -29.333 68.334 -70.833 89.001 -124.5zM212 535.5c-18 -39 -27 -101.833 -27 -188.5c0 -82 7.66699 -142.333 23 -181l124 424
c-13.333 2.66699 -24 4 -32 4c-40.667 0 -70 -19.5 -88 -58.5zM388.5 158.5c17.667 39 26.5 101.832 26.5 188.499c0 82.667 -7.33301 142.334 -22 179.001l-123 -422c8 -2.66699 18 -4 30 -4c41.333 0 70.833 19.5 88.5 58.5zM437 834.999l-237 -84l-38 80l216 122z" />
    <glyph glyph-name="oslashacute" unicode="&#x1ff;" 
d="M529 412.5c19.333 -41.667 29.001 -90.167 29.001 -145.5c0 -89.333 -22.667 -159 -68 -209s-108.666 -75 -189.999 -75l-31 1l-37 -121l-116 34l40 122c-36.667 22.667 -64.834 55 -84.501 97s-29.5 92 -29.5 150c0 56.667 10.167 106.167 30.5 148.5s50 75.333 89 99
s85.167 35.5 138.5 35.5c7.33301 0 17.666 -0.666992 30.999 -2l39 116l114 -34l-39 -119c36.667 -23.333 64.667 -55.833 84 -97.5zM225.501 395c-15.667 -26.667 -23.501 -69.666 -23.501 -128.999c0 -62.667 6 -106.334 18 -131.001l96 299
c-3.33301 0.666992 -8.66602 1 -15.999 1c-34 0 -58.833 -13.333 -74.5 -40zM374.5 136.001c15.667 26.667 23.5 70.333 23.5 131c0 61.333 -5.66699 103.333 -17 126l-95 -297h14c34 0 58.833 13.333 74.5 40zM438 716l-237 -94l-43 81l218 132z" />
    <glyph glyph-name="Scommaaccent" unicode="&#x218;" 
d="M534 88c-22.667 -33.333 -55.167 -59.167 -97.5 -77.5s-92.5 -27.5 -150.5 -27.5c-114.667 0 -206 33.333 -274 100l83 92c52.667 -46.667 115 -70 187 -70c34.667 0 62.5 7.5 83.5 22.5s31.5 35.833 31.5 62.5c0 25.333 -8.83301 45.166 -26.5 59.499
s-50.5 28.833 -98.5 43.5c-81.333 24.667 -139 53.667 -173 87s-51 76.333 -51 129c0 41.333 11.5 77.333 34.5 108s54.333 54 94 70s83.834 24 132.501 24c102 0 184.667 -30 248 -90l-77 -89c-23.333 19.333 -48.5 33.833 -75.5 43.5s-54.833 14.5 -83.5 14.5
c-32 0 -57.167 -5.83301 -75.5 -17.5s-27.5 -28.5 -27.5 -50.5c0 -14.667 4.16699 -27 12.5 -37s22.166 -19.333 41.499 -28s48.333 -19 87 -31c70.667 -21.333 123.167 -48.833 157.5 -82.5s51.5 -80.5 51.5 -140.5c0 -43.333 -11.333 -81.666 -34 -114.999zM357 -87.001
c14.667 -14.667 21.999 -33.333 21.999 -56c0 -24 -7.66699 -51.333 -23 -82l-49 -97h-80l27 115c-21.333 18 -32 39.333 -32 64c0 22 7.5 40.5 22.5 55.5s33.833 22.5 56.5 22.5s41.334 -7.33301 56.001 -22z" />
    <glyph glyph-name="scommaaccent" unicode="&#x219;" 
d="M347.5 108.5c15.667 8.33301 23.5 20.8311 23.5 37.498c0 12 -3.16699 21.667 -9.5 29s-18.166 14.5 -35.499 21.5s-44.333 15.5 -81 25.5c-53.333 14 -94 33.5 -122 58.5s-42 59.5 -42 103.5c0 48.667 20.167 88.334 60.5 119.001s96.833 46 169.5 46
c84 0 155.667 -21.667 215 -65l-63 -93c-48.667 30 -97.667 45 -147 45c-26 0 -45.167 -3.33301 -57.5 -10s-18.5 -17 -18.5 -31c0 -9.33301 3.16699 -17.166 9.5 -23.499s18.333 -12.833 36 -19.5s44.167 -15 79.5 -25c38 -10.667 69.167 -22.334 93.5 -35.001
s43.166 -29.667 56.499 -51s20 -48.666 20 -81.999c0 -37.333 -11.333 -69.333 -34 -96s-53 -46.667 -91 -60s-80 -20 -126 -20c-49.333 0 -94 7 -134 21s-74 33.667 -102 59l79 89c48 -37.333 100 -56 156 -56c27.333 0 48.833 4.16699 64.5 12.5zM357 -87.002
c14.667 -14.667 21.999 -33.333 21.999 -56c0 -24 -7.66699 -51.333 -23 -82l-49 -97h-80l27 115c-21.333 18 -32 39.333 -32 64c0 22 7.5 40.5 22.5 55.5s33.833 22.5 56.5 22.5s41.334 -7.33301 56.001 -22z" />
    <glyph glyph-name="uni021A" unicode="&#x21a;" 
d="M381 0h-164v567h-195v126h561l-16 -126h-186v-567zM356 -87c14.667 -14.667 21.999 -33.333 21.999 -56c0 -24 -7.66699 -51.333 -23 -82l-49 -97h-80l27 115c-21.333 18 -32 39.333 -32 64c0 22 7.5 40.5 22.5 55.5s33.833 22.5 56.5 22.5s41.334 -7.33301 56.001 -22z
" />
    <glyph glyph-name="uni021B" unicode="&#x21b;" 
d="M374 -17c-68 0 -119.167 17.332 -153.5 51.999s-51.5 83.334 -51.5 146.001v241h-111v109h111v115l158 19v-134h171l-16 -109h-155v-241c0 -26 6 -44.667 18 -56s31.333 -17 58 -17c33.333 0 64.333 8 93 24l52 -101c-50 -32 -108 -48 -174 -48zM416 -87.001
c14.667 -14.667 21.999 -33.333 21.999 -56c0 -24 -7.66699 -51.333 -23 -82l-49 -97h-80l27 115c-21.333 18 -32 39.333 -32 64c0 22 7.5 40.5 22.5 55.5s33.833 22.5 56.5 22.5s41.334 -7.33301 56.001 -22z" />
    <glyph glyph-name="uni0237" unicode="&#x237;" 
d="M472 154c0 -75.333 -14 -137.833 -42 -187.5s-69.5 -89.334 -124.5 -119.001s-125.5 -52.834 -211.5 -69.501l-24 121c56.667 12.667 102.5 28.334 137.5 47.001s61.5 43.834 79.5 75.501s27 72.5 27 122.5v279h-190v108h348v-377z" />
    <glyph glyph-name="uni02B9" unicode="&#x2b9;" 
d="M270 693h142l-118 -279h-105z" />
    <glyph glyph-name="uni02BA" unicode="&#x2ba;" 
d="M173 693h142l-118 -279h-105zM366 693h142l-118 -279h-105z" />
    <glyph glyph-name="uni02BC" unicode="&#x2bc;" 
d="M346.5 736.5c15 -14.333 22.5 -31.833 22.5 -52.5c0 -19.333 -9.33301 -46 -28 -80l-36 -67h-79l18 79c-21.333 18 -32 39.333 -32 64c0 22 7.5 40.5 22.5 55.5s33.833 22.5 56.5 22.5c22 0 40.5 -7.16699 55.5 -21.5z" />
    <glyph glyph-name="circumflex" unicode="&#x2c6;" 
d="M110 676l142 139h96l141 -139l-56 -65l-133 94l-133 -94z" />
    <glyph glyph-name="caron" unicode="&#x2c7;" 
d="M489 751l-141 -140h-96l-142 140l57 64l133 -94l133 94z" />
    <glyph glyph-name="uni02C9" unicode="&#x2c9;" 
d="M147 671v110h306v-110h-306z" />
    <glyph glyph-name="breve" unicode="&#x2d8;" 
d="M178.5 662.5c-29 33.667 -45.834 74.833 -50.501 123.5l87 15c6 -25.333 16.167 -45.166 30.5 -59.499s32.5 -21.5 54.5 -21.5s40.167 7.16699 54.5 21.5s24.5 34.166 30.5 59.499l87 -15c-4.66699 -48 -21.667 -89 -51 -123s-69.666 -51 -120.999 -51
c-52 0 -92.5 16.833 -121.5 50.5z" />
    <glyph glyph-name="dotaccent" unicode="&#x2d9;" 
d="M367 783.5c17.333 -17 26 -38.167 26 -63.5c0 -26 -8.66699 -47.333 -26 -64s-39.666 -25 -66.999 -25s-49.833 8.5 -67.5 25.5s-26.5 38.167 -26.5 63.5s8.83301 46.5 26.5 63.5s40.167 25.5 67.5 25.5s49.666 -8.5 66.999 -25.5z" />
    <glyph glyph-name="ring" unicode="&#x2da;" 
d="M400 827c25.333 -25.333 38.001 -56.333 38.001 -93s-12.833 -68 -38.5 -94s-59.167 -39 -100.5 -39c-27.333 0 -51.5 6 -72.5 18s-37.167 28.167 -48.5 48.5s-17 42.5 -17 66.5c0 36 12.667 66.833 38 92.5s58.666 38.5 99.999 38.5c42 0 75.667 -12.667 101 -38z
M267.001 770.5c-8 -8.33301 -12 -20.5 -12 -36.5c0 -16.667 4 -29.334 12 -38.001s18.667 -13 32 -13c14 0 25 4.33301 33 13s12 21.334 12 38.001c0 16 -4 28.167 -12 36.5s-19 12.5 -33 12.5c-13.333 0 -24 -4.16699 -32 -12.5z" />
    <glyph glyph-name="ogonek" unicode="&#x2db;" 
d="M395 0c-43.333 -14.667 -73.332 -31 -89.999 -49s-25 -38.333 -25 -61c0 -16 5.16699 -28.167 15.5 -36.5s24.5 -12.5 42.5 -12.5c16 0 34 2.33301 54 7l-12 -93c-19.333 -5.33301 -39 -8 -59 -8c-44 0 -80.167 10.833 -108.5 32.5s-42.5 51.834 -42.5 90.501
c0 33.333 8.66699 61.166 26 83.499s40.666 40.833 69.999 55.5s66.333 28.667 111 42z" />
    <glyph glyph-name="tilde" unicode="&#x2dc;" 
d="M318 642c-10.667 4.66699 -22.3311 11.333 -34.998 20c-16.667 12 -30.334 18 -41.001 18c-12 0 -21.667 -3.33301 -29 -10s-15.333 -18 -24 -34l-79 38c14 35.333 31.833 63.833 53.5 85.5s46.834 32.5 75.501 32.5c15.333 0 28.5 -2.33301 39.5 -7
s22.833 -11.334 35.5 -20.001c8.66699 -6 16 -10.5 22 -13.5s12.333 -4.5 19 -4.5c10.667 0 19.667 3.33301 27 10s15.666 17.667 24.999 33l79 -38c-14 -35.333 -32 -63.666 -54 -84.999s-47.333 -32 -76 -32c-14.667 0 -27.334 2.33301 -38.001 7z" />
    <glyph glyph-name="hungarumlaut" unicode="&#x2dd;" 
d="M214 857l107 -49l-124 -183l-82 36zM378 857l106 -51l-125 -182l-81 39z" />
    <glyph glyph-name="gravecomb" unicode="&#x300;" horiz-adv-x="0" 
d="M-158 703l-43 -81l-236 94l61 119z" />
    <glyph glyph-name="acutecomb" unicode="&#x301;" horiz-adv-x="0" 
d="M-162 716l-237 -94l-43 81l218 132z" />
    <glyph glyph-name="uni0302" unicode="&#x302;" horiz-adv-x="0" 
d="M-110 651l-56 -65l-133 85l-133 -85l-57 65l142 130h96z" />
    <glyph glyph-name="tildecomb" unicode="&#x303;" horiz-adv-x="0" 
d="M-282 642c-10.667 4.66699 -22.3311 11.333 -34.998 20c-16.667 12 -30.334 18 -41.001 18c-12 0 -21.667 -3.33301 -29 -10s-15.333 -18 -24 -34l-79 38c14 35.333 31.833 63.833 53.5 85.5s46.834 32.5 75.501 32.5c15.333 0 28.5 -2.33301 39.5 -7
s22.833 -11.334 35.5 -20.001c8.66699 -6 16 -10.5 22 -13.5s12.333 -4.5 19 -4.5c10.667 0 19.667 3.33301 27 10s15.666 17.667 24.999 33l79 -38c-14 -35.333 -32 -63.666 -54 -84.999s-47.333 -32 -76 -32c-14.667 0 -27.334 2.33301 -38.001 7z" />
    <glyph glyph-name="uni0304" unicode="&#x304;" horiz-adv-x="0" 
d="M-453 621v109h306v-109h-306z" />
    <glyph glyph-name="uni0306" unicode="&#x306;" horiz-adv-x="0" 
d="M-421 631.5c-28.667 28.333 -45.6631 65.5 -50.9961 111.5l87 16c6.66699 -20.667 16.667 -35.834 30 -45.501s31.666 -14.5 54.999 -14.5s41.666 4.83301 54.999 14.5s23.333 24.834 30 45.501l87 -16c-4.66699 -46 -21.334 -83.167 -50.001 -111.5
s-69.334 -42.5 -122.001 -42.5c-52 0 -92.333 14.167 -121 42.5z" />
    <glyph glyph-name="uni0307" unicode="&#x307;" horiz-adv-x="0" 
d="M-232 746.5c17.333 -17 26 -38.5 26 -64.5c0 -25.333 -8.66699 -46.5 -26 -63.5s-39.666 -25.5 -66.999 -25.5s-49.833 8.5 -67.5 25.5s-26.5 38.167 -26.5 63.5c0 26 8.83301 47.5 26.5 64.5s40.167 25.5 67.5 25.5s49.666 -8.5 66.999 -25.5z" />
    <glyph glyph-name="uni0308" unicode="&#x308;" horiz-adv-x="0" 
d="M-474 660.5c-16 15.667 -24 34.834 -24 57.501c0 22 8 40.667 24 56s35.333 23 58 23c23.333 0 43 -7.66699 59 -23s24 -34 24 -56c0 -22.667 -8 -41.834 -24 -57.501s-35.667 -23.5 -59 -23.5c-22.667 0 -42 7.83301 -58 23.5zM-242.5 660.5
c-16.333 15.667 -24.5 34.834 -24.5 57.501c0 22 8.16699 40.667 24.5 56s35.833 23 58.5 23s42 -7.66699 58 -23s24 -34 24 -56c0 -22.667 -7.83301 -41.834 -23.5 -57.501s-35.167 -23.5 -58.5 -23.5c-22.667 0 -42.167 7.83301 -58.5 23.5z" />
    <glyph glyph-name="uni030A" unicode="&#x30a;" horiz-adv-x="0" 
d="M-199 790c25.333 -25.333 38.001 -56.333 38.001 -93s-12.833 -68 -38.5 -94s-59.167 -39 -100.5 -39c-27.333 0 -51.5 6 -72.5 18s-37.167 28.167 -48.5 48.5s-17 42.5 -17 66.5c0 36 12.667 66.833 38 92.5s58.666 38.5 99.999 38.5c42 0 75.667 -12.667 101 -38z
M-331.999 733.5c-8 -8.33301 -12 -20.5 -12 -36.5c0 -16.667 4 -29.334 12 -38.001s18.667 -13 32 -13c14 0 25 4.33301 33 13s12 21.334 12 38.001c0 16 -4 28.167 -12 36.5s-19 12.5 -33 12.5c-13.333 0 -24 -4.16699 -32 -12.5z" />
    <glyph glyph-name="uni030B" unicode="&#x30b;" horiz-adv-x="0" 
d="M-385 820l107 -49l-124 -183l-82 36zM-221 820l106 -51l-125 -182l-81 39z" />
    <glyph glyph-name="uni030C" unicode="&#x30c;" horiz-adv-x="0" 
d="M-110 719l-141 -130h-96l-142 130l57 65l133 -85l133 85z" />
    <glyph glyph-name="uni030F" unicode="&#x30f;" horiz-adv-x="0" 
d="M-359 624l-125 182l106 51l100 -194zM-197 625l-124 183l107 49l99 -196z" />
    <glyph glyph-name="uni0313" unicode="&#x313;" horiz-adv-x="0" 
d="M-363 770c14.667 -14.667 21.999 -33.333 21.999 -56c0 -24 -7.66699 -51.333 -23 -82l-49 -97h-80l27 115c-21.333 18 -32 39.333 -32 64c0 22 7.5 40.5 22.5 55.5s33.833 22.5 56.5 22.5s41.334 -7.33301 56.001 -22z" />
    <glyph glyph-name="uni0314" unicode="&#x314;" horiz-adv-x="0" 
d="M-360 589c-14.667 14.667 -21.999 33 -21.999 55c0 22.667 7.66699 50 23 82l49 98h80l-27 -115c21.333 -18 32 -39.667 32 -65c0 -22 -7.5 -40.333 -22.5 -55s-33.833 -22 -56.5 -22s-41.334 7.33301 -56.001 22z" />
    <glyph glyph-name="uni0326" unicode="&#x326;" horiz-adv-x="0" 
d="M-243 -87c14.667 -14.667 21.999 -33.333 21.999 -56c0 -24 -7.66699 -51.333 -23 -82l-49 -97h-80l27 115c-21.333 18 -32 39.333 -32 64c0 22 7.5 40.5 22.5 55.5s33.833 22.5 56.5 22.5s41.334 -7.33301 56.001 -22z" />
    <glyph glyph-name="uni0327" unicode="&#x327;" horiz-adv-x="0" 
d="M-302 -119c-14.667 4.66699 -38 6.99707 -70 6.99707l14 128h88v-64c34 -4 59.667 -14.667 77 -32s26 -39.666 26 -66.999c0 -34 -13.667 -61.667 -41 -83s-63.333 -32 -108 -32c-22.667 0 -44.167 2.83301 -64.5 8.5s-37.833 12.834 -52.5 21.501l36 73
c22.667 -11.333 44 -17 64 -17c35.333 0 53 10.333 53 31c0 12.667 -7.33301 21.334 -22 26.001z" />
    <glyph glyph-name="uni0335" unicode="&#x335;" horiz-adv-x="0" 
d="M-497 282v93h395v-93h-395z" />
    <glyph glyph-name="uni0336" unicode="&#x336;" horiz-adv-x="0" 
d="M-634 282v93h668v-93h-668z" />
    <glyph glyph-name="uni0342" unicode="&#x342;" horiz-adv-x="0" 
d="M-282 642c-10.667 4.66699 -22.3311 11.333 -34.998 20c-16.667 12 -30.334 18 -41.001 18c-12 0 -21.667 -3.33301 -29 -10s-15.333 -18 -24 -34l-79 38c14 35.333 31.833 63.833 53.5 85.5s46.834 32.5 75.501 32.5c15.333 0 28.5 -2.33301 39.5 -7
s22.833 -11.334 35.5 -20.001c8.66699 -6 16 -10.5 22 -13.5s12.333 -4.5 19 -4.5c10.667 0 19.667 3.33301 27 10s15.666 17.667 24.999 33l79 -38c-14 -35.333 -32 -63.666 -54 -84.999s-47.333 -32 -76 -32c-14.667 0 -27.334 2.33301 -38.001 7z" />
    <glyph glyph-name="uni0345" unicode="&#x345;" horiz-adv-x="0" 
d="M-387 -169c-22.667 23.333 -33.999 54.333 -33.999 93v34h112v-31c0 -26.667 13.333 -40 40 -40c16.667 0 33.667 5 51 15l41 -69c-32 -24.667 -69.333 -37 -112 -37s-75.334 11.667 -98.001 35z" />
    <glyph glyph-name="uni0370" unicode="&#x370;" 
d="M259 294v-294h-163v693h163v-267h246v-132h-246z" />
    <glyph glyph-name="uni0371" unicode="&#x371;" 
d="M533 210h-264v-210h-158v382c0 50 -7.33301 97.667 -22 143l146 20c10.667 -22 19 -48 25 -78s9 -70.667 9 -122v-14h264v-121z" />
    <glyph glyph-name="uni0372" unicode="&#x372;" 
d="M584 693v-293h-121v169h-81v-569h-164v569h-80v-169h-121v293h567z" />
    <glyph glyph-name="uni0373" unicode="&#x373;" 
d="M569 413h-192v-618l-158 -17v635h-82c-42.667 0 -76.667 -3.66699 -102 -11l-24 111c28.667 12 69 18 121 18h437v-118z" />
    <glyph glyph-name="uni0374" unicode="&#x374;" 
d="M270 693h142l-118 -279h-105z" />
    <glyph glyph-name="uni0375" unicode="&#x375;" 
d="M331 -133h-142l118 279h105z" />
    <glyph glyph-name="uni0376" unicode="&#x376;" 
d="M52 693l150 0.000976562v-235c0 -65.333 -2.33301 -121.5 -7 -168.5s-11.667 -95.833 -21 -146.5l193 550h181v-693h-150v230c0 109.333 9 215.666 27 318.999l-189 -549h-184v693z" />
    <glyph glyph-name="uni0377" unicode="&#x377;" 
d="M535 127.5c6 -11.667 17.332 -21.5 33.999 -29.5l-46 -115c-46.667 10 -82.167 27.833 -106.5 53.5s-36.5 61.5 -36.5 107.5c0 24 3.83301 64.333 11.5 121s14.834 100.334 21.501 131.001l-186 -396h-161v531h149v-171c0 -80.667 -9 -155 -27 -223l180 394h158v-352
c0 -22.667 3 -39.834 9 -51.501z" />
    <glyph glyph-name="uni037A" unicode="&#x37a;" 
d="M213 -169c-22.667 23.333 -33.999 54.333 -33.999 93v34h112v-31c0 -26.667 13.333 -40 40 -40c16.667 0 33.667 5 51 15l41 -69c-32 -24.667 -69.333 -37 -112 -37s-75.334 11.667 -98.001 35z" />
    <glyph glyph-name="uni037B" unicode="&#x37b;" 
d="M148 2c-33.333 12.667 -62.668 29.6689 -88.001 51.002l70 100c21.333 -14.667 41.333 -25.834 60 -33.501s38 -11.5 58 -11.5c37.333 0 66.333 11.833 87 35.5s31 63.167 31 118.5c0 59.333 -8.33301 101.666 -25 126.999s-44.334 38 -83.001 38
c-22.667 0 -44.167 -3.33301 -64.5 -10s-42.166 -16.667 -65.499 -30l-68 95c32 22.667 64.167 39.5 96.5 50.5s69.5 16.5 111.5 16.5c86 0 151.333 -25.333 196 -76s67 -121 67 -211c0 -55.333 -11 -104 -33 -146s-53.5 -74.667 -94.5 -98s-89.833 -35 -146.5 -35
c-39.333 0 -75.666 6.33301 -108.999 19z" />
    <glyph glyph-name="uni037C" unicode="&#x37c;" 
d="M410 119.5c18.667 7.66699 38.667 18.834 60 33.501l70 -100c-25.333 -21.333 -54.666 -38.333 -87.999 -51s-69.666 -19 -108.999 -19c-56.667 0 -105.5 11.667 -146.5 35s-72.5 56 -94.5 98s-33 90.667 -33 146s11.333 104.666 34 147.999s54.834 77.333 96.501 102
s90.5 37 146.5 37c39.333 0 74.666 -5.5 105.999 -16.5s60.666 -27.833 87.999 -50.5l-68 -95c-38.667 26.667 -78.334 40 -119.001 40c-79.333 0 -119 -55 -119 -165c0 -55.333 10.333 -94.833 31 -118.5s49.667 -35.5 87 -35.5c20 0 39.333 3.83301 58 11.5zM427.5 320.5
c15 -15 22.5 -33.833 22.5 -56.5c0 -22 -7.5 -40.5 -22.5 -55.5s-34.5 -22.5 -58.5 -22.5s-43.833 7.5 -59.5 22.5s-23.5 33.5 -23.5 55.5c0 22.667 7.83301 41.5 23.5 56.5s35.5 22.5 59.5 22.5s43.5 -7.5 58.5 -22.5z" />
    <glyph glyph-name="uni037D" unicode="&#x37d;" 
d="M148 2c-33.333 12.667 -62.668 29.6689 -88.001 51.002l70 100c21.333 -14.667 41.333 -25.834 60 -33.501s38 -11.5 58 -11.5c37.333 0 66.333 11.833 87 35.5s31 63.167 31 118.5c0 59.333 -8.33301 101.666 -25 126.999s-44.334 38 -83.001 38
c-22.667 0 -44.167 -3.33301 -64.5 -10s-42.166 -16.667 -65.499 -30l-68 95c32 22.667 64.167 39.5 96.5 50.5s69.5 16.5 111.5 16.5c86 0 151.333 -25.333 196 -76s67 -121 67 -211c0 -55.333 -11 -104 -33 -146s-53.5 -74.667 -94.5 -98s-89.833 -35 -146.5 -35
c-39.333 0 -75.666 6.33301 -108.999 19zM288.498 320.502c15 -15 22.5 -33.833 22.5 -56.5c0 -22 -7.5 -40.5 -22.5 -55.5s-34.5 -22.5 -58.5 -22.5s-43.833 7.5 -59.5 22.5s-23.5 33.5 -23.5 55.5c0 22.667 7.83301 41.5 23.5 56.5s35.5 22.5 59.5 22.5
s43.5 -7.5 58.5 -22.5z" />
    <glyph glyph-name="uni037E" unicode="&#x37e;" 
d="M376 508c20 -20.667 30 -45.334 30 -74.001s-10 -53.167 -30 -73.5s-44.667 -30.5 -74 -30.5s-54.166 10.167 -74.499 30.5s-30.5 44.833 -30.5 73.5s10.167 53.334 30.5 74.001s45.166 31 74.499 31s54 -10.333 74 -31zM376.5 167c19.667 -20 29.5 -44.666 29.5 -73.999
c0 -17.333 -3 -35.333 -9 -54s-16.667 -45 -32 -79l-69 -158h-103l49 205c-14 9.33301 -25 21.666 -33 36.999s-12 32 -12 50c0 29.333 10 53.833 30 73.5s45 29.5 75 29.5s54.833 -10 74.5 -30z" />
    <glyph glyph-name="uni037F" unicode="&#x37f;" 
d="M527 249c0 -81.333 -24.501 -145.668 -73.501 -193.001s-117.5 -71 -205.5 -71c-42.667 0 -80.167 5.33301 -112.5 16s-64.5 27 -96.5 49l62 101c24 -16 46.333 -27.333 67 -34s44.334 -10 71.001 -10c36.667 0 66.5 11.833 89.5 35.5s34.5 58.834 34.5 105.501v325h-212
v120h376v-444z" />
    <glyph glyph-name="tonos" unicode="&#x384;" 
d="M396 815l-88 -228l-103 17l38 243z" />
    <glyph glyph-name="dieresistonos" unicode="&#x385;" 
d="M411 930l-71 -190l-88 14l29 200zM225.5 736c15.667 -15.333 23.5 -34 23.5 -56s-7.83301 -40.667 -23.5 -56s-34.5 -23 -56.5 -23c-23.333 0 -42.666 7.66699 -57.999 23s-23 34 -23 56c0 22.667 7.66699 41.5 23 56.5s34.666 22.5 57.999 22.5
c22 0 40.833 -7.66699 56.5 -23zM489 736.5c15.333 -15 23.002 -33.833 23.002 -56.5c0 -22 -7.83301 -40.667 -23.5 -56s-34.834 -23 -57.501 -23s-41.667 7.66699 -57 23s-23 34 -23 56c0 22.667 7.66699 41.5 23 56.5s34.333 22.5 57 22.5
c23.333 0 42.666 -7.5 57.999 -22.5z" />
    <glyph glyph-name="Alphatonos" unicode="&#x386;" 
d="M197 150l-36 -150h-172l212 693h199l212 -693h-176l-36 150h-203zM373 268l-75 307l-75 -307h150zM164 693l-87 -226l-101 18l38 239z" />
    <glyph glyph-name="anoteleia" unicode="&#x387;" 
d="M221.5 420.5c21.667 21.667 47.834 32.5 78.501 32.5s56.834 -10.833 78.501 -32.5s32.5 -47.834 32.5 -78.501s-10.833 -56.834 -32.5 -78.501s-47.834 -32.5 -78.501 -32.5s-56.834 10.833 -78.501 32.5s-32.5 47.834 -32.5 78.501s10.833 56.834 32.5 78.501z" />
    <glyph glyph-name="Epsilontonos" unicode="&#x388;" 
d="M257 409h240v-114h-240v-177h289v-118h-453v693h453l-17 -117h-272v-167zM67 693l-87 -226l-101 18l38 239z" />
    <glyph glyph-name="Etatonos" unicode="&#x389;" 
d="M384 292h-168v-292h-164v693h164v-266h168v266h164v-693h-164v292zM26 693l-87 -226l-101 18l38 239z" />
    <glyph glyph-name="Iotatonos" unicode="&#x38a;" 
d="M525 573h-143v-452h143v-121h-450v121h143v452h-143v120h450v-120zM49 693l-87 -226l-101 18l38 239z" />
    <glyph glyph-name="Omicrontonos" unicode="&#x38c;" 
d="M505.5 80.5c-47.667 -65 -116.167 -97.5 -205.5 -97.5c-90 0 -158.667 32.167 -206 96.5s-71 153.5 -71 267.5c0 112.667 23.833 201.5 71.5 266.5s116.167 97.5 205.5 97.5c90 0 158.667 -32.167 206 -96.5s71 -153.5 71 -267.5c0 -112.667 -23.833 -201.5 -71.5 -266.5
zM383.5 533c-17 38.667 -44.833 58 -83.5 58s-66.5 -19.333 -83.5 -58s-25.5 -100.667 -25.5 -186s8.5 -147.333 25.5 -186s44.833 -58 83.5 -58c39.333 0 67.333 19.333 84 58s25 100.667 25 186s-8.5 147.333 -25.5 186zM78 693l-87 -226l-101 18l38 239z" />
    <glyph glyph-name="Upsilontonos" unicode="&#x38e;" 
d="M382 0h-164v259l-226 434h180l131 -298l132 298h173l-226 -433v-260zM-24 693l-87 -226l-101 18l38 239z" />
    <glyph glyph-name="Omegatonos" unicode="&#x38f;" 
d="M217 538c-17.333 -34.667 -26.002 -88.3359 -26.002 -161.003c0 -76 6.33301 -134.333 19 -175s33.667 -69.667 63 -87v-115h-239v117h116c-84.667 44 -127 130.667 -127 260c0 64.667 10.833 122.167 32.5 172.5s53.334 89.833 95.001 118.5s91.5 43 149.5 43
s107.833 -14.333 149.5 -43s73.334 -68.167 95.001 -118.5s32.5 -107.833 32.5 -172.5c0 -128 -42.667 -214.667 -128 -260h117v-117h-239v115c30 16.667 51.167 45.334 63.5 86.001s18.5 99.334 18.5 176.001c0 72.667 -8.66699 126.334 -26 161.001s-45 52 -83 52
s-65.667 -17.333 -83 -52zM80.998 692.998l-87 -226l-101 18l38 239z" />
    <glyph glyph-name="iotadieresistonos" unicode="&#x390;" 
d="M38 416l12.999 115h308v-365c0 -38.667 23 -58 69 -58c24 0 49 5.33301 75 16l38 -106c-44 -23.333 -95.333 -35 -154 -35c-57.333 0 -102.666 16 -135.999 48s-50 75 -50 129v256h-163zM400.999 930l-71 -190l-88 14l29 200zM215.499 736
c15.667 -15.333 23.5 -34 23.5 -56s-7.83301 -40.667 -23.5 -56s-34.5 -23 -56.5 -23c-23.333 0 -42.666 7.66699 -57.999 23s-23 34 -23 56c0 22.667 7.66699 41.5 23 56.5s34.666 22.5 57.999 22.5c22 0 40.833 -7.66699 56.5 -23zM478.999 736.5
c15.333 -15 23.002 -33.833 23.002 -56.5c0 -22 -7.83301 -40.667 -23.5 -56s-34.834 -23 -57.501 -23s-41.667 7.66699 -57 23s-23 34 -23 56c0 22.667 7.66699 41.5 23 56.5s34.333 22.5 57 22.5c23.333 0 42.666 -7.5 57.999 -22.5z" />
    <glyph glyph-name="Alpha" unicode="&#x391;" 
d="M197 150l-36 -150h-172l212 693h199l212 -693h-176l-36 150h-203zM373 268l-75 307l-75 -307h150z" />
    <glyph glyph-name="Beta" unicode="&#x392;" 
d="M492.5 46c-52.333 -30.667 -121.167 -46 -206.5 -46h-230v693h220c79.333 0 143.333 -13.833 192 -41.5s73 -72.834 73 -135.501c0 -39.333 -12 -71.666 -36 -96.999s-54.333 -42.666 -91 -51.999c44 -7.33301 81.167 -23.833 111.5 -49.5s45.5 -63.834 45.5 -114.501
c0 -74 -26.167 -126.333 -78.5 -157zM350.499 558.5c-17 12.333 -43.833 18.501 -80.5 18.501h-50v-161h56c34.667 0 60 6.5 76 19.5s24 34.167 24 63.5c0 27.333 -8.5 47.166 -25.5 59.499zM372.499 284.001c-19.667 14.667 -48.167 21.998 -85.5 21.998h-67v-186h60
c38 0 67.833 6.33301 89.5 19s32.5 36.334 32.5 71.001s-9.83301 59.334 -29.5 74.001z" />
    <glyph glyph-name="Gamma" unicode="&#x393;" 
d="M543 564h-289v-564h-164v693h469z" />
    <glyph glyph-name="uni0394" unicode="&#x394;" 
d="M612 0h-623l212 693h199zM192 133h212l-106 442z" />
    <glyph glyph-name="Epsilon" unicode="&#x395;" 
d="M257 409h240v-114h-240v-177h289v-118h-453v693h453l-17 -117h-272v-167z" />
    <glyph glyph-name="Zeta" unicode="&#x396;" 
d="M562 131l-17 -131h-506v123l329 443h-293v127h479v-124l-322 -438h330z" />
    <glyph glyph-name="Eta" unicode="&#x397;" 
d="M384 292h-168v-292h-164v693h164v-266h168v266h164v-693h-164v292z" />
    <glyph glyph-name="Theta" unicode="&#x398;" 
d="M505.5 80.5c-47.667 -65 -116.167 -97.5 -205.5 -97.5c-90 0 -158.667 32.167 -206 96.5s-71 153.5 -71 267.5c0 112.667 23.833 201.5 71.5 266.5s116.167 97.5 205.5 97.5c90 0 158.667 -32.167 206 -96.5s71 -153.5 71 -267.5c0 -112.667 -23.833 -201.5 -71.5 -266.5
zM387 533c-18.667 38.667 -47.667 58 -87 58s-68.333 -19.167 -87 -57.5s-28 -100.5 -28 -186.5c0 -85.333 9.33301 -147.333 28 -186s47.667 -58 87 -58c40 0 69.167 19.167 87.5 57.5s27.5 100.5 27.5 186.5c0 85.333 -9.33301 147.333 -28 186zM224 307v91h151v-91h-151z
" />
    <glyph glyph-name="Iota" unicode="&#x399;" 
d="M525 573h-143v-452h143v-121h-450v121h143v452h-143v120h450v-120z" />
    <glyph glyph-name="Kappa" unicode="&#x39a;" 
d="M59 0v693h164v-693h-164zM417 693h172l-196 -311l215 -382h-189l-191 370z" />
    <glyph glyph-name="Lambda" unicode="&#x39b;" 
d="M607 0h-176l-132 571l-133 -571h-173l208 693h199z" />
    <glyph glyph-name="Mu" unicode="&#x39c;" 
d="M583 0l-144 -0.000976562l-8 297c-0.666992 14.667 -1 34.667 -1 60c0 33.333 1 65.833 3 97.5s4.33301 64.834 7 99.501l-78 -436h-124l-85 436c7.33301 -76.667 11 -145.667 11 -207l-1 -53l-5 -294h-141l39 693h169l77 -448l73 448h169z" />
    <glyph glyph-name="Nu" unicode="&#x39d;" 
d="M167 557c6.66699 -50.667 12.333 -99.501 17 -146.501s7 -96.833 7 -149.5v-261h-139v693h205l176 -555c-16 102.667 -24 199.334 -24 290.001v265h139v-693h-199z" />
    <glyph glyph-name="Xi" unicode="&#x39e;" 
d="M528 563h-475v130h494zM484 291h-372v122h372v-122zM547 0h-494v135h494v-135z" />
    <glyph glyph-name="Omicron" unicode="&#x39f;" 
d="M505.5 80.5c-47.667 -65 -116.167 -97.5 -205.5 -97.5c-90 0 -158.667 32.167 -206 96.5s-71 153.5 -71 267.5c0 112.667 23.833 201.5 71.5 266.5s116.167 97.5 205.5 97.5c90 0 158.667 -32.167 206 -96.5s71 -153.5 71 -267.5c0 -112.667 -23.833 -201.5 -71.5 -266.5
zM383.5 533c-17 38.667 -44.833 58 -83.5 58s-66.5 -19.333 -83.5 -58s-25.5 -100.667 -25.5 -186s8.5 -147.333 25.5 -186s44.833 -58 83.5 -58c39.333 0 67.333 19.333 84 58s25 100.667 25 186s-8.5 147.333 -25.5 186z" />
    <glyph glyph-name="Pi" unicode="&#x3a0;" 
d="M384 567h-168v-567h-164v693h496v-693h-164v567z" />
    <glyph glyph-name="Rho" unicode="&#x3a1;" 
d="M502.5 290.5c-49 -39.667 -115.833 -59.5 -200.5 -59.5h-76v-231h-164v693h218c96 0 169.333 -18.833 220 -56.5s76 -94.167 76 -169.5c0 -78 -24.5 -136.833 -73.5 -176.5zM283 576h-56.999v-227h65c37.333 0 66.166 9.66699 86.499 29s30.5 49 30.5 89
c0 72.667 -41.667 109 -125 109z" />
    <glyph glyph-name="Sigma" unicode="&#x3a3;" 
d="M234 122h312v-122h-491v119l212 222l-212 233v119h491v-119h-310l187 -198v-65z" />
    <glyph glyph-name="Tau" unicode="&#x3a4;" 
d="M381 0h-164v567h-195v126h561l-16 -126h-186v-567z" />
    <glyph glyph-name="Upsilon" unicode="&#x3a5;" 
d="M382 0h-164v259l-226 434h180l131 -298l132 298h173l-226 -433v-260z" />
    <glyph glyph-name="Phi" unicode="&#x3a6;" 
d="M357 614c80 -3.33301 139.833 -26 179.5 -68s59.5 -107.333 59.5 -196s-20 -155.167 -60 -199.5s-99.667 -67.833 -179 -70.5v-80h-114v80c-81.333 2.66699 -141.5 26 -180.5 70s-58.5 110.667 -58.5 200s19.333 154.833 58 196.5s99 64.167 181 67.5v79h114v-79z
M173 482.5c-15.333 -28.333 -23 -72.5 -23 -132.5c0 -61.333 7.33301 -106.5 22 -135.5s41.667 -43.833 81 -44.5v356c-38 -0.666992 -64.667 -15.167 -80 -43.5zM347 170c39.333 0.666992 66.333 15.667 81 45s22 74.333 22 135c0 60 -7.66699 104.167 -23 132.5
s-42 42.833 -80 43.5v-356z" />
    <glyph glyph-name="Chi" unicode="&#x3a7;" 
d="M196 693l104 -222l107 222h173l-184 -318l201 -375h-177l-122 264l-120 -264h-174l196 368l-181 325h177z" />
    <glyph glyph-name="Psi" unicode="&#x3a8;" 
d="M228 183c-144.667 20 -217 100.002 -217 240.002v270h139v-274c0 -41.333 5.83301 -71.833 17.5 -91.5s35.5 -32.834 71.5 -39.501v405h124v-404c34 7.33301 57 20.666 69 39.999s18 49.333 18 90v274h139v-270c0 -66.667 -18 -120.5 -54 -161.5
s-90.333 -66.833 -163 -77.5v-184h-144v183z" />
    <glyph glyph-name="uni03A9" unicode="&#x3a9;" 
d="M217 538c-17.333 -34.667 -26.002 -88.3359 -26.002 -161.003c0 -76 6.33301 -134.333 19 -175s33.667 -69.667 63 -87v-115h-239v117h116c-84.667 44 -127 130.667 -127 260c0 64.667 10.833 122.167 32.5 172.5s53.334 89.833 95.001 118.5s91.5 43 149.5 43
s107.833 -14.333 149.5 -43s73.334 -68.167 95.001 -118.5s32.5 -107.833 32.5 -172.5c0 -128 -42.667 -214.667 -128 -260h117v-117h-239v115c30 16.667 51.167 45.334 63.5 86.001s18.5 99.334 18.5 176.001c0 72.667 -8.66699 126.334 -26 161.001s-45 52 -83 52
s-65.667 -17.333 -83 -52z" />
    <glyph glyph-name="Iotadieresis" unicode="&#x3aa;" 
d="M525 573h-143v-452h143v-121h-450v121h143v452h-143v120h450v-120zM126 785c-16 15.333 -24 34.333 -24 57s8 41.667 24 57s35.333 23 58 23c23.333 0 42.833 -7.66699 58.5 -23s23.5 -34.333 23.5 -57s-7.83301 -41.667 -23.5 -57s-35.167 -23 -58.5 -23
c-22.667 0 -42 7.66699 -58 23zM357.5 785.5c-16.333 15.667 -24.5 34.5 -24.5 56.5s8.16699 40.833 24.5 56.5s35.833 23.5 58.5 23.5c23.333 0 42.833 -7.66699 58.5 -23s23.5 -34.333 23.5 -57s-7.83301 -41.667 -23.5 -57s-35.167 -23 -58.5 -23
c-22.667 0 -42.167 7.83301 -58.5 23.5z" />
    <glyph glyph-name="Upsilondieresis" unicode="&#x3ab;" 
d="M382 0h-164v259l-226 434h180l131 -298l132 298h173l-226 -433v-260zM126 785c-16 15.333 -24 34.333 -24 57s8 41.667 24 57s35.333 23 58 23c23.333 0 42.833 -7.66699 58.5 -23s23.5 -34.333 23.5 -57s-7.83301 -41.667 -23.5 -57s-35.167 -23 -58.5 -23
c-22.667 0 -42 7.66699 -58 23zM357.5 785.5c-16.333 15.667 -24.5 34.5 -24.5 56.5s8.16699 40.833 24.5 56.5s35.833 23.5 58.5 23.5c23.333 0 42.833 -7.66699 58.5 -23s23.5 -34.333 23.5 -57s-7.83301 -41.667 -23.5 -57s-35.167 -23 -58.5 -23
c-22.667 0 -42.167 7.83301 -58.5 23.5z" />
    <glyph glyph-name="alphatonos" unicode="&#x3ac;" 
d="M356.5 511c26.333 -25.333 42.167 -61 47.5 -107l25 127h142l-84 -248l27 -116c4.66699 -22 11.334 -37.5 20.001 -46.5s21 -15.167 37 -18.5l-51 -119c-32 5.33301 -56.5 14.5 -73.5 27.5s-28.833 35.167 -35.5 66.5l-11 53c-12.667 -50 -32.5 -87 -59.5 -111
s-62.167 -36 -105.5 -36c-62 0 -110.833 24.667 -146.5 74s-53.5 118 -53.5 206c0 54.667 8.66699 103.667 26 147s42 77.333 74 102s69 37 111 37c47.333 0 84.166 -12.667 110.499 -38zM195.001 263c0 -110 23 -165 69 -165c45.333 0 77.666 56 96.999 168
c-9.33301 59.333 -21.666 102 -36.999 128s-34 39 -56 39c-48.667 0 -73 -56.667 -73 -170zM421.001 815l-88 -228l-103 17l38 243z" />
    <glyph glyph-name="epsilontonos" unicode="&#x3ad;" 
d="M320 223c-32 0 -55.332 -5.16992 -69.999 -15.5029s-22 -25.5 -22 -45.5c0 -21.333 9.16699 -37.666 27.5 -48.999s45.5 -17 81.5 -17c63.333 0 118.666 13.333 165.999 40l71 -88c-65.333 -43.333 -148.333 -65 -249 -65c-78.667 0 -141.834 14.333 -189.501 43
s-71.5 69.667 -71.5 123c0 39.333 11.333 69.833 34 91.5s58.334 35.834 107.001 42.501c-80.667 18 -121 58.667 -121 122c0 44.667 21.5 79.834 64.5 105.501s98.5 38.5 166.5 38.5c91.333 0 167 -18.667 227 -56l-69 -85c-37.333 20.667 -83 31 -137 31
c-61.333 0 -92 -18.667 -92 -56c0 -18 7 -32.333 21 -43s34.667 -16 62 -16h107l-15 -101h-99zM456.001 814.997l-88 -228l-103 17l38 243z" />
    <glyph glyph-name="etatonos" unicode="&#x3ae;" 
d="M498 507.5c25.333 -27.667 38.001 -66.834 38.001 -117.501v-595l-158 -17v566c0 33.333 -3.5 56.333 -10.5 69s-20.5 19 -40.5 19c-16 0 -31.5 -5.5 -46.5 -16.5s-30.5 -27.167 -46.5 -48.5v-367h-158v382c0 24.667 -2 49.834 -6 75.501s-9 48.167 -15 67.5l146 20
c9.33301 -16.667 17 -42 23 -76c47.333 53.333 102.666 80 165.999 80c46.667 0 82.667 -13.833 108 -41.5zM450.001 815l-88 -228l-103 17l38 243z" />
    <glyph glyph-name="iotatonos" unicode="&#x3af;" 
d="M38 416l12.999 115h308v-365c0 -38.667 23 -58 69 -58c24 0 49 5.33301 75 16l38 -106c-44 -23.333 -95.333 -35 -154 -35c-57.333 0 -102.666 16 -135.999 48s-50 75 -50 129v256h-163zM430.999 815l-88 -228l-103 17l38 243z" />
    <glyph glyph-name="upsilondieresistonos" unicode="&#x3b0;" 
d="M551 256c0 -60.667 -12 -111.501 -36 -152.501s-56.333 -71.333 -97 -91s-86 -29.5 -136 -29.5c-65.333 0 -117.833 17 -157.5 51s-59.5 82.667 -59.5 146v351h158v-342c0 -32 5.83301 -55 17.5 -69s29.167 -21 52.5 -21c30.667 0 55 13.5 73 40.5s27 68.833 27 125.5
c0 82.667 -9 171.334 -27 266.001h156c19.333 -95.333 29 -187 29 -275zM411 929.999l-71 -190l-88 14l29 200zM225.5 735.999c15.667 -15.333 23.5 -34 23.5 -56s-7.83301 -40.667 -23.5 -56s-34.5 -23 -56.5 -23c-23.333 0 -42.666 7.66699 -57.999 23s-23 34 -23 56
c0 22.667 7.66699 41.5 23 56.5s34.666 22.5 57.999 22.5c22 0 40.833 -7.66699 56.5 -23zM489 736.499c15.333 -15 23.002 -33.833 23.002 -56.5c0 -22 -7.83301 -40.667 -23.5 -56s-34.834 -23 -57.501 -23s-41.667 7.66699 -57 23s-23 34 -23 56
c0 22.667 7.66699 41.5 23 56.5s34.333 22.5 57 22.5c23.333 0 42.666 -7.5 57.999 -22.5z" />
    <glyph glyph-name="alpha" unicode="&#x3b1;" 
d="M356.5 511c26.333 -25.333 42.167 -61 47.5 -107l25 127h142l-84 -248l27 -116c4.66699 -22 11.334 -37.5 20.001 -46.5s21 -15.167 37 -18.5l-51 -119c-32 5.33301 -56.5 14.5 -73.5 27.5s-28.833 35.167 -35.5 66.5l-11 53c-12.667 -50 -32.5 -87 -59.5 -111
s-62.167 -36 -105.5 -36c-62 0 -110.833 24.667 -146.5 74s-53.5 118 -53.5 206c0 54.667 8.66699 103.667 26 147s42 77.333 74 102s69 37 111 37c47.333 0 84.166 -12.667 110.499 -38zM195.001 263c0 -110 23 -165 69 -165c45.333 0 77.666 56 96.999 168
c-9.33301 59.333 -21.666 102 -36.999 128s-34 39 -56 39c-48.667 0 -73 -56.667 -73 -170z" />
    <glyph glyph-name="beta" unicode="&#x3b2;" 
d="M511.5 354.5c36.333 -29 54.501 -77.166 54.501 -144.499c0 -44.667 -9 -84.5 -27 -119.5s-43.833 -62.167 -77.5 -81.5s-73.167 -29 -118.5 -29c-44.667 0 -88.334 14 -131.001 42v-222l-159 -27v776c0 44.667 9.83301 83.167 29.5 115.5s47 57 82 74
s74.833 25.5 119.5 25.5c46.667 0 87.334 -8.66699 122.001 -26s61.167 -41 79.5 -71s27.5 -63.333 27.5 -100c0 -42.667 -10.833 -77.334 -32.5 -104.001s-55.167 -45.667 -100.5 -57c51.333 -5.33301 95.166 -22.5 131.499 -51.5zM375.001 128.001
c19.333 20 29.0039 50.667 29.0039 92c0 38.667 -10.833 68.167 -32.5 88.5s-49.834 30.5 -84.501 30.5h-33l10 112h20c21.333 0 38.166 8.83301 50.499 26.5s18.5 42.5 18.5 74.5c0 31.333 -6 55 -18 71s-29 24 -51 24c-22.667 0 -40.334 -7.5 -53.001 -22.5
s-19 -37.167 -19 -66.5v-435c27.333 -16.667 56.333 -25 87 -25c31.333 0 56.666 10 75.999 30z" />
    <glyph glyph-name="gamma" unicode="&#x3b3;" 
d="M585 508l-209.998 -481.998c-18 -40.667 -27 -85 -27 -133c0 -26.667 3.33301 -60 10 -100l-124 -13c-18.667 39.333 -28 79.666 -28 120.999c0 34.667 6.66699 72 20 112c-26.667 106 -57.334 198 -92.001 276s-74.334 145 -119.001 201l156 57
c30 -46.667 56.667 -104.834 80 -174.501s40.333 -147.5 51 -233.5l125 406z" />
    <glyph glyph-name="delta" unicode="&#x3b4;" 
d="M510 696l-75.001 -85.998c-33.333 24 -70 36 -110 36c-22.667 0 -39.667 -4 -51 -12s-17 -18.667 -17 -32c0 -10.667 2.33301 -19.834 7 -27.501s13.667 -15.167 27 -22.5s33 -16.333 59 -27c50 -20.667 90 -42.834 120 -66.501s52.333 -52.5 67 -86.5
s22 -75.333 22 -124c0 -52.667 -10.5 -99 -31.5 -139s-51 -71 -90 -93s-84.5 -33 -136.5 -33c-53.333 0 -99.5 10.667 -138.5 32s-68.667 51.5 -89 90.5s-30.5 84.5 -30.5 136.5c0 51.333 13.167 96 39.5 134s64.5 67.667 114.5 89c-37.333 19.333 -63 39.5 -77 60.5
s-21 47.5 -21 79.5c0 46 18.833 83.167 56.5 111.5s92.167 42.5 163.5 42.5c74.667 0 138.334 -21 191.001 -63zM221.999 351.502c-11.333 -27.667 -17 -61.833 -17 -102.5c0 -100 31.667 -150 95 -150c32 0 56 12.167 72 36.5s24 62.166 24 113.499
c0 34 -3.16699 61.333 -9.5 82s-17.5 38.334 -33.5 53.001s-39 28.667 -69 42c-30 -22 -50.667 -46.833 -62 -74.5z" />
    <glyph glyph-name="epsilon" unicode="&#x3b5;" 
d="M320 223c-32 0 -55.332 -5.16992 -69.999 -15.5029s-22 -25.5 -22 -45.5c0 -21.333 9.16699 -37.666 27.5 -48.999s45.5 -17 81.5 -17c63.333 0 118.666 13.333 165.999 40l71 -88c-65.333 -43.333 -148.333 -65 -249 -65c-78.667 0 -141.834 14.333 -189.501 43
s-71.5 69.667 -71.5 123c0 39.333 11.333 69.833 34 91.5s58.334 35.834 107.001 42.501c-80.667 18 -121 58.667 -121 122c0 44.667 21.5 79.834 64.5 105.501s98.5 38.5 166.5 38.5c91.333 0 167 -18.667 227 -56l-69 -85c-37.333 20.667 -83 31 -137 31
c-61.333 0 -92 -18.667 -92 -56c0 -18 7 -32.333 21 -43s34.667 -16 62 -16h107l-15 -101h-99z" />
    <glyph glyph-name="zeta" unicode="&#x3b6;" 
d="M565 647c-106.667 -76.667 -184.332 -146.332 -232.999 -208.999s-73 -122.334 -73 -179.001c0 -26 3.83301 -46.833 11.5 -62.5s20.5 -29.167 38.5 -40.5s44.667 -23.666 80 -36.999c45.333 -17.333 79.5 -32.333 102.5 -45s39.667 -26.834 50 -42.501
s15.5 -35.5 15.5 -59.5c0 -42 -14.833 -78.833 -44.5 -110.5s-75.5 -60.834 -137.5 -87.501l-58 95c27.333 14.667 47.166 28 59.499 40s18.5 26.667 18.5 44c0 10 -4.5 18.333 -13.5 25s-27.167 15 -54.5 25c-58 22 -103.167 42.667 -135.5 62s-56.666 43.833 -72.999 73.5
s-24.5 67.834 -24.5 114.501c0 69.333 25.167 135.333 75.5 198s132.166 126 245.499 190c-12.667 -6 -33.167 -9.83301 -61.5 -11.5s-68.5 -2.5 -120.5 -2.5h-105l17 115h403z" />
    <glyph glyph-name="eta" unicode="&#x3b7;" 
d="M498 507.5c25.333 -27.667 38.001 -66.834 38.001 -117.501v-595l-158 -17v566c0 33.333 -3.5 56.333 -10.5 69s-20.5 19 -40.5 19c-16 0 -31.5 -5.5 -46.5 -16.5s-30.5 -27.167 -46.5 -48.5v-367h-158v382c0 24.667 -2 49.834 -6 75.501s-9 48.167 -15 67.5l146 20
c9.33301 -16.667 17 -42 23 -76c47.333 53.333 102.666 80 165.999 80c46.667 0 82.667 -13.833 108 -41.5z" />
    <glyph glyph-name="theta" unicode="&#x3b8;" 
d="M491 660.5c44.667 -65.667 66.999 -161.501 66.999 -287.501s-22.5 -222.5 -67.5 -289.5s-108.5 -100.5 -190.5 -100.5s-145.5 33.167 -190.5 99.5s-67.5 162.833 -67.5 289.5c0 124.667 22.5 220.334 67.5 287.001s108.5 100 190.5 100
c82.667 0 146.334 -32.833 191.001 -98.5zM223.499 594.499c-17 -33.667 -26.5 -92.833 -28.5 -177.5h210c-1.33301 58 -6.16602 103.5 -14.499 136.5s-19.833 56.5 -34.5 70.5s-33.334 21 -56.001 21c-34 0 -59.5 -16.833 -76.5 -50.5zM193.999 324
c2.66699 -84.667 12.5 -143.666 29.5 -176.999s42.5 -50 76.5 -50c22.667 0 41.334 6.83301 56.001 20.5s26.167 37.167 34.5 70.5s13.166 78.666 14.499 135.999h-211z" />
    <glyph glyph-name="iota" unicode="&#x3b9;" 
d="M38 416l12.999 115h308v-365c0 -38.667 23 -58 69 -58c24 0 49 5.33301 75 16l38 -106c-44 -23.333 -95.333 -35 -154 -35c-57.333 0 -102.666 16 -135.999 48s-50 75 -50 129v256h-163z" />
    <glyph glyph-name="kappa" unicode="&#x3ba;" 
d="M560 489l-163 -201.999l110 -133c12 -14.667 23.667 -25.334 35 -32.001s24.666 -11.667 39.999 -15l-53 -125c-36 3.33301 -65.167 13 -87.5 29s-46.166 43.333 -71.499 82l-134 185l195 269zM224 442.501c5.33301 -34.333 8 -69.5 8 -105.5v-337h-158v348
c0 68.667 -7.33301 129.667 -22 183h152c8 -24.667 14.667 -54.167 20 -88.5z" />
    <glyph glyph-name="lambda" unicode="&#x3bb;" 
d="M255 531c-10 26.667 -21.335 47.501 -34.002 62.501s-29.667 26.833 -51 35.5s-50 15.667 -86 21l19 108c67.333 -8.66699 120.833 -23.167 160.5 -43.5s71.334 -50.5 95.001 -90.5s44.167 -96 61.5 -168c26.667 -110 52.834 -196.833 78.501 -260.5
s56.167 -117.834 91.5 -162.501l-156 -50c-34.667 51.333 -62.5 109.5 -83.5 174.5s-39.833 152.167 -56.5 261.5l-111 -436l-156 37l176 511h52z" />
    <glyph glyph-name="uni03BC" unicode="&#x3bc;" 
d="M524 188c0 -59.333 3.99805 -122 11.998 -188l-142 -14c-6 22 -10.333 47.667 -13 77c-15.333 -24.667 -32.666 -43.834 -51.999 -57.501s-40.333 -20.5 -63 -20.5c-18.667 0 -34.167 3.33301 -46.5 10s-25.5 19.334 -39.5 38.001
c12.667 -26.667 21.834 -50.5 27.501 -71.5s8.5 -46.5 8.5 -76.5v-90l-149 -16v752h157v-302c0 -32.667 1 -57.5 3 -74.5s7 -30 15 -39s20.333 -13.5 37 -13.5s32.5 5 47.5 15s28.167 24 39.5 42v372h158v-343z" />
    <glyph glyph-name="nu" unicode="&#x3bd;" 
d="M121 308.5c-32.667 90.333 -67.999 153.5 -105.999 189.5l145 50c30.667 -37.333 58.167 -92.666 82.5 -165.999s43.5 -161 57.5 -263l123 430l152 -35l-192 -514h-179c-22.667 115.333 -50.334 218.166 -83.001 308.499z" />
    <glyph glyph-name="xi" unicode="&#x3be;" 
d="M572 697l-67.999 -83.9971c-37.333 23.333 -79.333 35 -126 35c-31.333 0 -56.666 -6.66699 -75.999 -20s-29 -32.333 -29 -57c0 -30 9.5 -51.333 28.5 -64s47.833 -19 86.5 -19h97l-14 -104h-87c-46.667 0 -82.667 -9.5 -108 -28.5s-38 -46.5 -38 -82.5
c0 -26.667 5 -47.834 15 -63.501s26.5 -29.334 49.5 -41.001s60.833 -27.5 113.5 -47.5c34.667 -12.667 62.167 -25.167 82.5 -37.5s35.833 -27.333 46.5 -45s16 -40.167 16 -67.5c0 -41.333 -14.833 -77.833 -44.5 -109.5s-75.834 -60.834 -138.501 -87.501l-57 95
c50.667 26.667 76 56.667 76 90c0 12 -4.16699 21.5 -12.5 28.5s-24.5 15.167 -48.5 24.5c-69.333 27.333 -120.833 50.333 -154.5 69s-59.834 42 -78.501 70s-28 65 -28 111c0 52 16.167 93 48.5 123s73.5 49.667 123.5 59c-41.333 14 -73.833 32.5 -97.5 55.5
s-35.5 53.167 -35.5 90.5c0 33.333 11 62.833 33 88.5s51.833 45.5 89.5 59.5s78.5 21 122.5 21c83.333 0 154.333 -20.667 213 -62z" />
    <glyph glyph-name="omicron" unicode="&#x3bf;" 
d="M489.5 472.5c45.667 -51 68.4971 -119.5 68.4971 -205.5c0 -89.333 -22.667 -159 -68 -209s-108.666 -75 -189.999 -75s-144.666 24.833 -189.999 74.5s-68 119.167 -68 208.5c0 56.667 10.167 106.167 30.5 148.5s50 75.333 89 99s85.167 35.5 138.5 35.5
c80.667 0 143.834 -25.5 189.501 -76.5zM227.997 392.5c-15.333 -26.333 -23 -68.5 -23 -126.5c0 -58.667 7.66699 -101.167 23 -127.5s39.333 -39.5 72 -39.5s56.667 13.333 72 40s23 69.334 23 128.001c0 57.333 -7.66699 99.166 -23 125.499s-39.333 39.5 -72 39.5
s-56.667 -13.167 -72 -39.5z" />
    <glyph glyph-name="pi" unicode="&#x3c0;" 
d="M507 417v-238.001c0 -21.333 3.33301 -38.166 10 -50.499s18 -22.166 34 -29.499l-46 -116c-100.667 17.333 -151 75.666 -151 174.999v259h-107v-417h-151v415c-24.667 -2 -46.667 -6.66699 -66 -14l-26 108c36.667 14.667 73.667 22 111 22h462v-114h-70z" />
    <glyph glyph-name="rho" unicode="&#x3c1;" 
d="M496 477.5c41.333 -47.667 61.998 -117.833 61.998 -210.5c0 -54 -8.16699 -102.5 -24.5 -145.5s-40.166 -76.833 -71.499 -101.5s-68 -37 -110 -37c-52.667 0 -94.667 18.667 -126 56v-244l-158 -17v497c0 88.667 20.333 156.5 61 203.5s101.334 70.5 182.001 70.5
c82 0 143.667 -23.833 185 -71.5zM244.498 390.501c-12.333 -28.333 -18.5 -75.833 -18.5 -142.5v-102c20.667 -31.333 46.667 -47 78 -47c30 0 52.667 13.5 68 40.5s23 68.833 23 125.5c0 62 -7 105.5 -21 130.5s-35.667 37.5 -65 37.5
c-30.667 0 -52.167 -14.167 -64.5 -42.5z" />
    <glyph glyph-name="uni03C2" unicode="&#x3c2;" 
d="M552 483l-67.998 -94.001c-34 25.333 -72.333 38 -115 38c-38.667 0 -69.334 -12.167 -92.001 -36.5s-34 -61.5 -34 -111.5c0 -30 4.33301 -53.833 13 -71.5s22.667 -32.834 42 -45.501s48 -26.334 86 -41.001c35.333 -13.333 63.5 -26.166 84.5 -38.499
s37.167 -27.333 48.5 -45s17 -39.834 17 -66.501c0 -41.333 -14.833 -77.833 -44.5 -109.5s-75.5 -60.834 -137.5 -87.501l-59 97c26 13.333 45.5 26 58.5 38s19.5 26.333 19.5 43c0 14.667 -6.16699 26.334 -18.5 35.001s-37.5 20.334 -75.5 35.001
c-44 16.667 -80 34.834 -108 54.501s-50.167 45.834 -66.5 78.501s-24.5 74 -24.5 124c0 50.667 11.667 96.5 35 137.5s56.166 73.333 98.499 97s90.833 35.5 145.5 35.5c75.333 0 140.333 -22 195 -66z" />
    <glyph glyph-name="sigma" unicode="&#x3c3;" 
d="M578 426l-99 8c52.667 -42 79 -102 79 -180c0 -83.333 -22.833 -149.333 -68.5 -198s-108.834 -73 -189.501 -73c-81.333 0 -144.666 24.5 -189.999 73.5s-68 117.833 -68 206.5c0 85.333 23 152.833 69 202.5s111.333 74.5 196 74.5c66 0 156.333 -3.66699 271 -11v-103
zM371 138c15.333 26 22.998 67.668 22.998 125.001c0 48 -4.16699 85.333 -12.5 112s-20.166 47 -35.499 61c-33.333 -0.666992 -60.166 -5.83398 -80.499 -15.501s-35.5 -27 -45.5 -52s-15 -60.167 -15 -105.5c0 -57.333 7.66699 -99 23 -125s39.333 -39 72 -39
c32 0 55.667 13 71 39z" />
    <glyph glyph-name="tau" unicode="&#x3c4;" 
d="M353 415v-249c0 -38.667 22.333 -58 67 -58c25.333 0 51 5.33301 77 16l37 -106c-42.667 -23.333 -93.667 -35 -153 -35c-58 0 -103.5 16 -136.5 48s-49.5 75 -49.5 129v255h-47c-42.667 0 -77 -3.66699 -103 -11l-24 109c29.333 12 70 18 122 18h393v-116h-183z" />
    <glyph glyph-name="upsilon" unicode="&#x3c5;" 
d="M551 256c0 -60.667 -12 -111.501 -36 -152.501s-56.333 -71.333 -97 -91s-86 -29.5 -136 -29.5c-65.333 0 -117.833 17 -157.5 51s-59.5 82.667 -59.5 146v351h158v-342c0 -32 5.83301 -55 17.5 -69s29.167 -21 52.5 -21c30.667 0 55 13.5 73 40.5s27 68.833 27 125.5
c0 82.667 -9 171.334 -27 266.001h156c19.333 -95.333 29 -187 29 -275z" />
    <glyph glyph-name="phi" unicode="&#x3c6;" 
d="M539 479.5c28.667 -46.333 43 -116.168 43 -209.501c0 -170.667 -75.667 -265 -227 -283v-197l-121 -12v209c-144 16 -216 100.333 -216 253c0 96 17.667 193 53 291h129c-16.667 -52 -29 -99.667 -37 -143s-12 -85.333 -12 -126c0 -56 6 -97.667 18 -125
s33.667 -45 65 -53v240c0 74.667 13.333 130.834 40 168.501s68.667 56.5 126 56.5c64 0 110.333 -23.167 139 -69.5zM362.5 421.498c-5 -18.333 -7.50098 -51.167 -7.50098 -98.5v-239c32.667 7.33301 55.834 25.5 69.501 54.5s20.5 72.5 20.5 130.5
c0 46.667 -1.16699 82.5 -3.5 107.5s-7 43.333 -14 55s-16.833 17.5 -29.5 17.5c-18.667 0 -30.5 -9.16699 -35.5 -27.5z" />
    <glyph glyph-name="chi" unicode="&#x3c7;" 
d="M584 -193l-156 -43l-130 310l-126 -310l-157 36l200 374c-22 65.333 -50 125.5 -84 180.5s-72 101.5 -114 139.5l152 54c30.667 -38.667 57.167 -80.167 79.5 -124.5s40.5 -95.5 54.5 -153.5l112 277l149 -33l-182 -341z" />
    <glyph glyph-name="psi" unicode="&#x3c8;" 
d="M361 91c24 5.33301 42.001 13.835 54.001 25.502s20.333 28.5 25 50.5s7 53 7 93c0 41.333 -1.83301 82 -5.5 122s-9.16699 89.667 -16.5 149h127c18.667 -88.667 28 -180.334 28 -275.001c0 -83.333 -16.833 -145.833 -50.5 -187.5s-89.834 -68.834 -168.501 -81.501
v-192l-121 -17v209c-76.667 8 -131.167 30.5 -163.5 67.5s-48.5 86.5 -48.5 148.5v328h132v-326c0 -34.667 6.33301 -61.167 19 -79.5s33 -29.833 61 -34.5v440h121v-440z" />
    <glyph glyph-name="omega" unicode="&#x3c9;" 
d="M571.5 380c9.66699 -47.333 14.499 -93.3359 14.499 -138.003c0 -85.333 -13 -149.833 -39 -193.5s-64 -65.5 -114 -65.5c-36 0 -64.833 8 -86.5 24s-37.5 42.667 -47.5 80c-10.667 -36.667 -26.334 -63.167 -47.001 -79.5s-47.667 -24.5 -81 -24.5
c-51.333 0 -90.333 21.667 -117 65s-40 108 -40 194c0 78.667 17.667 175 53 289h124c-12.667 -52 -22.167 -100.333 -28.5 -145s-9.5 -89.667 -9.5 -135c0 -54.667 3.33301 -93.667 10 -117s19.334 -35 38.001 -35c12 0 20.833 4.33301 26.5 13s9.66699 22.334 12 41.001
s3.5 45.667 3.5 81v108l115 20v-123c0 -37.333 1.16699 -65.666 3.5 -84.999s6.5 -33.333 12.5 -42s15.333 -13 28 -13c18.667 0 30.834 11.167 36.501 33.5s8.5 61.833 8.5 118.5c0 44 -3.16699 88.333 -9.5 133s-15.833 93.667 -28.5 147h124
c16 -53.333 28.833 -103.666 38.5 -150.999z" />
    </font>
</defs>
</svg>
